<svg xmlns="http://www.w3.org/2000/svg" viewBox="0 0 456 342" width="456" height="342"><g>
<path d="M107.92 206.45C107.28 203.72 106.98 200.88 107 197.96C107.04 194.26 108.47 190.29 111.37 185.83C113.86 182 116.97 178.55 119.68 175.68C120.16 174.32 120.61 172.89 120.6 171.59C120.6 170.21 120.1 169.02 119.1 167.93C118.2 166.97 116.98 166.18 115.79 165.42C115.57 165.28 115.34 165.13 115.12 164.99C113.1 163.67 114.26 161.18 115.49 158.56C115.81 157.86 116.16 157.13 116.45 156.41C116.8 155.53 117.23 154.61 118.25 153.9C119.56 152.99 121.22 152.94 122.1 153.35C123.01 153.78 123.4 154.59 123.79 155.37L123.82 155.44C125.83 159.57 128.63 163.47 132.13 167.02C135.42 170.35 139.42 173.47 144.02 176.29C152.22 181.32 162.65 185.6 175.03 189.02C177 189.56 179.02 190.08 180.97 190.59C187.05 192.17 193.34 193.8 198.79 196.15C202.7 197.84 205.59 199.9 207.39 202.27C209.57 205.15 210.05 208.42 208.82 212C207.62 215.48 205.03 219.11 200.87 223.09C197.57 226.26 193.29 229.61 187.8 233.37C187.1 233.85 186.39 234.33 185.67 234.81C183.3 236.39 180.96 237.89 178.48 238.96C175.12 240.4 171.85 240.85 169.68 241.08C167.55 241.29 165.35 241.39 162.96 241.38C149.9 241.31 137.55 237.65 126.26 230.47C120.17 226.62 115.43 221.99 112.16 216.69C110.19 213.48 108.76 210.05 107.92 206.44V206.45ZM120.51 170.39C120.59 170.76 120.64 171.15 120.64 171.58C120.64 172.88 120.2 174.33 119.72 175.69C117.01 178.57 113.9 182.02 111.41 185.85C108.52 190.3 107.09 194.26 107.05 197.96C106.99 204.72 108.72 211.02 112.21 216.66C115.47 221.96 120.2 226.59 126.28 230.43C137.57 237.6 149.91 241.26 162.95 241.33C165.34 241.34 167.53 241.25 169.66 241.03C174.18 240.57 176.84 239.6 178.44 238.92C180.93 237.85 183.26 236.35 185.62 234.77C186.35 234.29 187.06 233.8 187.76 233.33C193.26 229.58 197.53 226.22 200.83 223.05C204.98 219.08 207.57 215.46 208.76 211.99C209.98 208.42 209.5 205.16 207.33 202.3C205.54 199.94 202.65 197.89 198.74 196.2C193.31 193.86 187.02 192.22 180.94 190.65C178.98 190.14 176.96 189.62 175 189.08C162.62 185.66 152.18 181.38 143.98 176.34C139.38 173.51 135.38 170.4 132.08 167.06C128.57 163.5 125.77 159.6 123.76 155.46L123.73 155.4C123.36 154.62 122.96 153.82 122.07 153.39C121.19 152.99 119.56 153.04 118.27 153.93C117.26 154.63 116.83 155.55 116.49 156.42C116.21 157.13 115.86 157.87 115.53 158.56C114.31 161.18 113.15 163.64 115.14 164.94C115.37 165.08 115.59 165.23 115.81 165.37C117.86 166.69 119.96 168.05 120.51 170.39Z" fill="#573610" fill-opacity="0.3" />
<path d="M104.91 207.73C104.12 204.33 103.8 200.82 103.98 197.19C104.16 193.38 105.58 189.24 108.33 184.5C110.69 180.42 113.6 176.64 116.17 173.31L116.61 172.74C117.14 171.15 117.63 169.48 117.59 167.96C117.55 166.35 116.95 164.95 115.74 163.69C114.66 162.56 113.21 161.63 111.8 160.74C111.53 160.58 111.27 160.4 111 160.24C108.61 158.69 109.91 155.8 111.29 152.73C111.67 151.91 112.05 151.05 112.37 150.2C112.77 149.17 113.25 148.09 114.43 147.27C115.89 146.24 117.83 146.13 118.87 146.62C119.91 147.11 120.35 148.06 120.79 148.96L120.82 149.04C123.08 153.84 126.26 158.35 130.27 162.46C134.03 166.31 138.62 169.91 143.92 173.17C148.84 176.18 154.49 178.99 160.73 181.49C166.46 183.78 172.85 185.89 179.7 187.75C181.98 188.37 184.35 188.97 186.62 189.55C193.63 191.34 200.89 193.18 207.17 195.86C211.71 197.79 215.07 200.15 217.14 202.88C219.67 206.19 220.22 209.95 218.77 214.09C217.39 218.03 214.4 222.13 209.63 226.64C205.86 230.2 201.14 233.87 194.75 238.22C193.97 238.75 193.17 239.29 192.34 239.84C189.54 241.7 186.99 243.35 184.21 244.56C180.42 246.19 176.7 246.74 174.23 247.02C171.75 247.29 169.24 247.42 166.57 247.42C158.67 247.43 150.94 246.17 143.58 243.67C137.36 241.56 131.2 238.49 125.28 234.55C118.36 229.95 113.02 224.61 109.42 218.67C107.31 215.21 105.81 211.54 104.92 207.72L104.91 207.73ZM117.48 166.67C117.58 167.09 117.63 167.51 117.64 167.96C117.67 169.49 117.18 171.17 116.65 172.77L116.21 173.34C113.65 176.67 110.74 180.45 108.38 184.52C105.64 189.25 104.22 193.4 104.04 197.2C103.67 204.9 105.49 212.12 109.46 218.66C113.06 224.59 118.4 229.92 125.32 234.51C131.24 238.45 137.39 241.52 143.6 243.63C150.95 246.13 158.68 247.39 166.57 247.38C169.24 247.38 171.74 247.25 174.23 246.97C179.38 246.4 182.38 245.3 184.2 244.51C186.97 243.31 189.52 241.67 192.32 239.81C193.14 239.26 193.96 238.72 194.73 238.19C201.11 233.84 205.84 230.16 209.59 226.61C214.37 222.12 217.35 218.01 218.73 214.09C220.17 209.98 219.63 206.22 217.11 202.92C215.04 200.2 211.69 197.85 207.16 195.92C200.88 193.24 193.63 191.4 186.62 189.61C184.35 189.03 181.98 188.43 179.7 187.81C172.84 185.94 166.46 183.84 160.73 181.54C154.48 179.04 148.82 176.23 143.9 173.22C138.6 169.96 134.01 166.36 130.24 162.51C126.22 158.39 123.04 153.87 120.78 149.07L120.75 149C120.32 148.09 119.88 147.16 118.85 146.68C117.83 146.2 115.91 146.31 114.47 147.33C113.31 148.14 112.83 149.21 112.43 150.24C112.11 151.08 111.73 151.94 111.35 152.76C109.98 155.81 108.68 158.68 111.04 160.21C111.31 160.39 111.58 160.55 111.84 160.72C113.26 161.62 114.71 162.54 115.79 163.67C116.67 164.59 117.24 165.59 117.5 166.69L117.48 166.67Z" fill="#573610" fill-opacity="0.3" />
<path d="M101.84 208.97C100.89 204.93 100.59 200.74 100.95 196.43C101.48 189.98 105.56 183.33 109.16 177.46C110.82 174.75 112.39 172.19 113.53 169.81C114.32 168.16 114.65 166.42 114.58 164.34C114.5 162.49 113.78 160.89 112.37 159.44C111.11 158.14 109.42 157.09 107.79 156.06C107.48 155.87 107.18 155.68 106.87 155.49C104.09 153.72 105.55 150.4 107.09 146.89C107.5 145.95 107.93 144.97 108.28 144C108.72 142.82 109.27 141.58 110.6 140.64C112.25 139.46 114.45 139.34 115.62 139.89C116.8 140.44 117.29 141.52 117.76 142.55L117.8 142.65C120.31 148.1 123.88 153.24 128.39 157.91C132.63 162.28 137.81 166.37 143.8 170.05C149.36 173.47 155.77 176.62 162.85 179.44C169.34 182.03 176.58 184.4 184.36 186.48C186.98 187.18 189.68 187.86 192.29 188.52C200.23 190.52 208.44 192.58 215.56 195.58C220.72 197.75 224.53 200.42 226.9 203.49C229.77 207.24 230.38 211.5 228.72 216.17C225.16 226.16 212.41 235.79 201.69 243.07C200.83 243.65 199.95 244.24 199 244.88C195.85 246.98 192.99 248.81 189.92 250.16C185.71 252 181.53 252.65 178.75 252.97C175.92 253.3 173.11 253.47 170.15 253.48C153.87 253.58 138.87 248.72 124.29 238.64C116.51 233.27 110.56 227.23 106.62 220.69C104.38 216.96 102.77 213.05 101.82 208.99L101.84 208.97ZM113.58 169.83C112.43 172.22 110.87 174.77 109.21 177.48C105.61 183.35 101.53 189.99 101.01 196.43C100.3 205.07 102.21 213.21 106.69 220.65C110.62 227.18 116.56 233.22 124.34 238.58C138.91 248.65 153.9 253.51 170.17 253.42C173.13 253.4 175.94 253.24 178.77 252.9C184.55 252.22 187.9 250.97 189.92 250.1C192.99 248.76 195.84 246.92 198.99 244.83C199.94 244.2 200.82 243.6 201.68 243.02C212.39 235.74 225.13 226.12 228.68 216.15C230.35 211.49 229.73 207.24 226.87 203.51C224.52 200.44 220.7 197.78 215.55 195.61C208.43 192.62 200.23 190.55 192.29 188.56C189.68 187.91 186.98 187.23 184.36 186.53C176.58 184.44 169.34 182.07 162.85 179.48C155.77 176.67 149.35 173.51 143.79 170.08C137.8 166.4 132.61 162.32 128.38 157.93C123.86 153.26 120.29 148.12 117.78 142.66L117.74 142.57C117.26 141.54 116.77 140.48 115.62 139.93C114.46 139.38 112.28 139.51 110.65 140.68C109.33 141.61 108.79 142.84 108.36 144.02C108 144.98 107.58 145.95 107.16 146.9C105.62 150.39 104.18 153.69 106.92 155.45C107.22 155.64 107.53 155.83 107.84 156.02C109.47 157.05 111.17 158.11 112.43 159.41C113.85 160.86 114.58 162.47 114.65 164.33C114.73 166.42 114.39 168.17 113.6 169.82L113.58 169.83Z" fill="#573610" fill-opacity="0.3" />
<path d="M98.54 210.18C97.44 205.5 97.17 200.64 97.73 195.64C98.46 188.97 102.14 182.26 105.7 175.77C107.44 172.61 109.07 169.61 110.26 166.8C111.09 164.85 111.46 162.81 111.37 160.73C111.14 156.2 107.52 153.94 103.69 151.56C103.34 151.34 102.99 151.12 102.64 150.9C99.34 148.81 100.98 145.01 102.71 140.97C103.17 139.91 103.64 138.81 104.03 137.74C104.52 136.38 105.13 134.95 106.66 133.86C108.65 132.43 111.15 132.34 112.49 132.98C113.87 133.63 114.43 134.86 114.96 136.06L115 136.16C124.93 158.17 149.86 174.6 189.11 185.01C192.05 185.79 195.1 186.55 198.03 187.27C206.91 189.48 216.09 191.76 224.06 195.09C237.06 200.52 242.33 208.76 238.88 218.28C234.92 229.26 220.71 239.96 208.78 248.05C207.78 248.72 206.79 249.38 205.8 250.04C202.18 252.45 199.15 254.41 195.75 255.9C191.08 257.95 186.43 258.7 183.33 259.07C180.15 259.46 177.01 259.67 173.76 259.69C155.9 259.87 139.36 254.36 123.2 242.84C109.6 233.17 101.35 222.22 98.53 210.18H98.54ZM110.7 166.95C109.5 169.79 107.86 172.79 106.11 175.96C102.57 182.41 98.91 189.09 98.19 195.67C96.24 213.4 104.75 229.16 123.5 242.49C139.58 253.95 156.02 259.44 173.78 259.26C177.01 259.24 180.12 259.03 183.29 258.64C186.36 258.26 190.96 257.52 195.57 255.5C198.92 254.03 201.94 252.09 205.55 249.68C206.54 249.03 207.53 248.36 208.51 247.69C231.12 232.36 236.38 223.85 238.44 218.15C240.82 211.57 240.22 202.31 223.86 195.49C215.92 192.17 206.76 189.9 197.9 187.7C194.96 186.97 191.92 186.21 188.97 185.43C149.59 174.98 124.55 158.47 114.57 136.33L114.53 136.23C114.02 135.11 113.5 133.95 112.27 133.37C111.03 132.78 108.7 132.93 106.94 134.2C105.52 135.22 104.93 136.57 104.47 137.86C104.08 138.95 103.6 140.05 103.15 141.11C101.41 145.16 99.91 148.64 102.91 150.53C103.25 150.74 103.6 150.96 103.95 151.18C107.71 153.52 111.6 155.93 111.83 160.69C111.93 162.83 111.55 164.93 110.7 166.95L110.7 166.95Z" fill="#573610" fill-opacity="0.3" />
<path d="M95.6 211.37C95.56 211.19 95.52 211 95.48 210.82C94.36 205.71 94.17 200.35 94.91 194.88C95.83 188.09 99.28 181.11 102.61 174.36C104.43 170.7 106.13 167.25 107.39 163.93C108.27 161.58 108.68 159.21 108.57 157.09C108.43 154.77 107.49 152.77 105.68 150.96C104.06 149.34 101.91 148.01 99.83 146.73C99.44 146.49 99.04 146.24 98.65 146C95.1 143.77 96.86 139.6 98.72 135.2C99.22 134.02 99.74 132.8 100.16 131.6C100.68 130.12 101.33 128.57 102.97 127.38C103.9 126.71 105.07 126.24 106.26 126.08C107.36 125.93 108.42 126.06 109.16 126.42C110.61 127.11 111.2 128.44 111.77 129.73L111.82 129.83C114.83 136.62 119.17 142.99 124.7 148.77C129.88 154.18 136.25 159.23 143.62 163.77C150.48 167.99 158.38 171.87 167.13 175.32C175.15 178.49 184.1 181.38 193.73 183.91C197.01 184.78 200.38 185.61 203.65 186.41C213.45 188.82 223.59 191.31 232.38 194.96C238.79 197.62 243.53 200.88 246.46 204.67C250.02 209.27 250.76 214.53 248.66 220.3C246.72 225.62 242.55 231.16 235.92 237.24C230.85 241.88 224.6 246.65 215.64 252.72C214.61 253.42 213.54 254.13 212.39 254.9C209.1 257.08 205.38 259.56 201.43 261.3C196.36 263.54 191.27 264.37 187.88 264.8C184.4 265.24 180.88 265.49 177.4 265.53C171.81 265.61 166.27 265.14 160.94 264.17C156.04 263.27 151.15 261.9 146.42 260.1C138.35 257.03 130.48 252.67 122.37 246.75C117.84 243.44 113.8 240.01 110.41 236.56C106.63 232.72 103.48 228.71 101.06 224.64C98.51 220.38 96.69 215.91 95.63 211.37L95.6 211.37ZM107.44 163.94C106.18 167.26 104.47 170.72 102.65 174.39C99.32 181.13 95.88 188.1 94.96 194.89C94.22 200.35 94.41 205.7 95.53 210.81C95.57 210.99 95.61 211.18 95.65 211.37C96.72 215.91 98.54 220.36 101.08 224.63C103.5 228.69 106.65 232.69 110.44 236.53C113.84 239.98 117.86 243.41 122.4 246.72C130.51 252.64 138.36 257 146.43 260.07C151.17 261.86 156.05 263.24 160.95 264.13C166.28 265.11 171.81 265.57 177.39 265.5C180.87 265.46 184.4 265.21 187.86 264.77C194.93 263.86 198.97 262.34 201.4 261.27C205.35 259.54 209.06 257.06 212.35 254.88C213.51 254.11 214.57 253.39 215.6 252.7C224.56 246.63 230.81 241.86 235.87 237.22C242.5 231.14 246.67 225.61 248.61 220.3C250.71 214.54 249.97 209.3 246.42 204.71C243.49 200.93 238.77 197.67 232.37 195.02C223.57 191.38 213.44 188.89 203.64 186.47C200.37 185.66 197 184.83 193.72 183.97C184.09 181.44 175.13 178.54 167.11 175.38C158.37 171.93 150.45 168.04 143.6 163.82C136.22 159.28 129.84 154.23 124.66 148.81C119.12 143.03 114.79 136.65 111.77 129.86L111.72 129.75C111.16 128.47 110.57 127.15 109.14 126.46C107.71 125.78 105.02 125.95 103 127.41C101.37 128.59 100.73 130.13 100.21 131.6C99.79 132.81 99.27 134.02 98.77 135.2C96.92 139.59 95.16 143.74 98.68 145.95C99.07 146.2 99.47 146.44 99.86 146.68C101.95 147.97 104.1 149.3 105.73 150.92C107.55 152.74 108.5 154.75 108.63 157.07C108.75 159.21 108.34 161.58 107.44 163.94L107.44 163.94Z" fill="#573610" fill-opacity="0.3" />
<path d="M92.45 212.55C92.38 212.21 92.3 211.88 92.23 211.54C91.06 205.95 90.94 200.08 91.89 194.11C92.99 187.17 96.22 179.97 99.35 173C101.22 168.81 103 164.85 104.32 160.99C105.28 158.18 105.71 155.64 105.56 153.46C105.41 150.92 104.34 148.71 102.33 146.72C100.53 144.94 98.15 143.47 95.84 142.05C95.4 141.79 94.96 141.51 94.52 141.24C90.59 138.79 92.5 134.2 94.52 129.33C95.06 128.04 95.62 126.71 96.08 125.39C96.64 123.76 97.35 122.05 99.15 120.74C101.38 119.11 104.35 118.92 105.92 119.67C107.5 120.43 108.14 121.89 108.77 123.31L108.81 123.42C112.07 130.86 116.8 137.86 122.83 144.2C128.49 150.14 135.44 155.66 143.52 160.63C151.01 165.23 159.67 169.48 169.25 173.26C178.04 176.71 187.85 179.87 198.4 182.63C202.01 183.57 205.72 184.47 209.32 185.35C220.04 187.97 231.14 190.68 240.78 194.66C244.06 196.01 246.99 197.53 249.48 199.2C252.28 201.05 254.55 203.09 256.23 205.26C260.14 210.29 260.95 216.05 258.61 222.36C256.49 228.14 251.94 234.15 244.67 240.76C237.67 247.13 229.19 253.08 222.58 257.55C221.48 258.29 220.33 259.06 219.05 259.92C215.47 262.3 211.41 265 207.15 266.89C201.65 269.32 196.1 270.24 192.41 270.73C188.59 271.23 184.75 271.51 180.98 271.57C174.89 271.66 168.87 271.16 163.08 270.08C157.76 269.09 152.46 267.57 147.34 265.57C138.68 262.21 130.19 257.37 121.39 250.81C110.76 242.9 103.19 234.99 98.21 226.62C95.5 222.07 93.57 217.34 92.45 212.53L92.45 212.55ZM104.37 161C103.05 164.87 101.27 168.83 99.39 173.02C96.26 179.98 93.04 187.19 91.94 194.12C90.99 200.08 91.11 205.95 92.28 211.53C92.35 211.87 92.42 212.21 92.5 212.54C93.63 217.34 95.56 222.07 98.26 226.62C103.24 234.98 110.81 242.88 121.43 250.79C130.23 257.35 138.72 262.18 147.37 265.55C152.5 267.54 157.79 269.06 163.1 270.04C168.89 271.13 174.91 271.62 180.99 271.53C184.76 271.47 188.6 271.19 192.42 270.69C200.12 269.68 204.51 268.02 207.14 266.85C211.4 264.97 215.46 262.27 219.03 259.89C220.31 259.04 221.47 258.26 222.56 257.52C229.17 253.06 237.65 247.12 244.65 240.75C251.91 234.15 256.47 228.13 258.58 222.36C260.91 216.06 260.11 210.33 256.2 205.3C254.52 203.14 252.25 201.1 249.47 199.25C246.97 197.59 244.05 196.06 240.77 194.71C231.14 190.75 220.04 188.04 209.32 185.41C205.73 184.53 202.01 183.62 198.4 182.68C187.85 179.92 178.04 176.77 169.25 173.31C159.66 169.54 151.01 165.29 143.51 160.69C135.43 155.71 128.47 150.19 122.82 144.25C116.77 137.91 112.06 130.91 108.79 123.46L108.74 123.34C108.12 121.94 107.48 120.48 105.92 119.73C104.36 118.98 101.42 119.18 99.2 120.8C97.41 122.09 96.71 123.79 96.14 125.42C95.69 126.74 95.13 128.08 94.59 129.38C93.56 131.85 92.59 134.18 92.35 136.23C92.09 138.52 92.79 140.11 94.57 141.22C95 141.5 95.45 141.77 95.88 142.04C98.19 143.45 100.58 144.92 102.38 146.71C104.4 148.71 105.46 150.93 105.62 153.48C105.76 155.66 105.34 158.21 104.38 161.03L104.37 161Z" fill="#573610" fill-opacity="0.3" />
<path d="M89.05 213.79C87.52 207.2 87.4 200.41 88.67 193.3C89.93 186.25 92.95 178.86 95.88 171.72C97.74 167.16 99.67 162.46 101.06 157.99C102.1 154.64 102.51 152.06 102.36 149.84C101.94 143.75 96.99 140.73 91.76 137.53C91.27 137.24 90.79 136.94 90.31 136.64C85.86 133.88 87.95 128.8 90.17 123.42C90.75 122.01 91.35 120.56 91.84 119.12C92.46 117.31 93.23 115.42 95.23 113.95C97.73 112.12 101.05 111.9 102.82 112.75C104.6 113.61 105.31 115.23 105.99 116.8L106.05 116.93C112.83 132.59 125.46 146.19 143.58 157.33C159.16 166.91 179.21 174.93 203.18 181.15C207.11 182.18 211.16 183.16 215.08 184.11C226.75 186.95 238.81 189.88 249.3 194.17C259.28 198.26 275.07 207.64 268.81 224.49C263.75 238.14 247.02 250.84 229.69 262.54C228.41 263.4 227.14 264.25 225.87 265.09C221.81 267.8 217.6 270.59 213 272.63C207.04 275.27 201.02 276.3 197.02 276.84C192.85 277.39 188.69 277.72 184.62 277.79C154.58 278.31 133.53 265.04 120.31 255.01C102.71 241.67 92.45 228.23 89.07 213.77L89.05 213.79ZM101.51 158.11C100.11 162.59 98.18 167.3 96.31 171.87C93.39 178.99 90.38 186.36 89.13 193.37C85.11 215.89 95.11 235.38 120.6 254.7C133.77 264.68 154.72 277.89 184.61 277.37C188.65 277.3 192.81 276.98 196.95 276.42C200.93 275.89 206.9 274.87 212.8 272.26C217.36 270.24 221.55 267.45 225.6 264.75C226.86 263.91 228.14 263.05 229.42 262.2C246.67 250.54 263.34 237.9 268.35 224.36C270.87 217.59 270.01 211.41 265.8 206C262.34 201.56 256.71 197.71 249.09 194.59C238.64 190.3 226.6 187.38 214.94 184.55C211.02 183.6 206.97 182.61 203.03 181.59C179.02 175.35 158.91 167.31 143.29 157.71C125.1 146.52 112.42 132.87 105.6 117.12L105.54 116.99C104.89 115.48 104.22 113.94 102.58 113.16C100.93 112.37 97.84 112.58 95.5 114.3C93.61 115.69 92.87 117.5 92.27 119.25C91.78 120.7 91.17 122.16 90.59 123.57C88.45 128.79 86.42 133.72 90.57 136.29C91.05 136.59 91.53 136.88 92.01 137.18C97.12 140.29 102.39 143.51 102.83 149.8C102.99 152.07 102.56 154.71 101.51 158.11Z" fill="#573610" fill-opacity="0.3" />
<path d="M86.1 214.85C85.95 214.23 85.82 213.6 85.7 212.98C84.42 206.42 84.48 199.55 85.85 192.54C87.24 185.47 90.05 178 92.76 170.78C94.71 165.61 96.71 160.26 98.19 155.09C99.03 152.15 99.78 149.03 99.57 146.19C99.35 143.19 98.07 140.58 95.66 138.21C93.5 136.1 90.65 134.37 87.89 132.69C87.38 132.38 86.84 132.05 86.31 131.73C81.61 128.83 83.83 123.39 86.17 117.63C86.79 116.1 87.43 114.52 87.97 112.97C88.61 111.04 89.43 109.02 91.54 107.47C94.16 105.54 97.64 105.31 99.49 106.19C101.34 107.08 102.08 108.8 102.8 110.47L102.86 110.6C106.62 119.38 112.1 127.61 119.15 135.06C125.74 142.04 133.89 148.53 143.35 154.36C152.13 159.76 162.29 164.74 173.54 169.14C183.86 173.18 195.38 176.86 207.78 180.07C212.05 181.16 216.44 182.23 220.69 183.25C233.27 186.29 246.29 189.44 257.61 194.05C261.47 195.63 264.92 197.41 267.85 199.35C271.13 201.52 273.81 203.9 275.78 206.44C280.39 212.34 281.33 219.09 278.56 226.49C275.89 233.63 269.96 241.12 260.44 249.39C252.12 256.61 242.06 263.54 232.43 269.95C228.05 272.86 223.54 275.87 218.65 278.04C212.29 280.87 205.84 281.98 201.53 282.57C192.8 283.77 184.24 283.97 176.07 283.16C168.64 282.42 161.3 280.81 154.24 278.38C147.89 276.2 141.77 273.4 135.54 269.8C130.27 266.76 125.01 263.2 119.47 258.94C113.59 254.42 108.68 250.12 104.46 245.79C99.51 240.73 95.61 235.76 92.55 230.6C89.52 225.48 87.35 220.2 86.1 214.83L86.1 214.85ZM99.35 144.36C99.49 144.95 99.58 145.56 99.62 146.19C99.84 149.05 99.08 152.17 98.24 155.11C96.76 160.28 94.76 165.63 92.81 170.8C90.1 178.02 87.3 185.49 85.9 192.55C84.53 199.55 84.47 206.41 85.75 212.97C86.9 218.96 89.2 224.89 92.59 230.58C95.65 235.73 99.55 240.71 104.49 245.77C108.71 250.08 113.61 254.38 119.49 258.91C125.04 263.18 130.3 266.73 135.56 269.76C141.8 273.35 147.91 276.16 154.26 278.34C161.32 280.77 168.66 282.37 176.08 283.11C184.24 283.93 192.79 283.73 201.52 282.53C210.5 281.3 215.58 279.36 218.62 278C223.51 275.83 228.03 272.82 232.39 269.92C242.03 263.51 252.09 256.59 260.41 249.36C269.92 241.11 275.84 233.62 278.51 226.48C281.27 219.09 280.34 212.36 275.74 206.47C273.77 203.94 271.1 201.56 267.82 199.39C264.88 197.45 261.44 195.67 257.58 194.09C246.28 189.48 233.26 186.33 220.67 183.29C216.42 182.27 212.03 181.21 207.77 180.11C195.36 176.9 183.83 173.22 173.51 169.18C162.26 164.78 152.1 159.81 143.32 154.39C133.85 148.57 125.7 142.07 119.1 135.09C112.05 127.62 106.56 119.39 102.8 110.61L102.74 110.48C102.02 108.82 101.29 107.1 99.46 106.22C97.62 105.34 94.17 105.57 91.57 107.5C89.47 109.04 88.66 111.05 88.02 112.97C87.49 114.53 86.84 116.11 86.22 117.63C85.03 120.56 83.9 123.32 83.64 125.75C83.35 128.48 84.21 130.36 86.34 131.67C86.86 132 87.4 132.32 87.92 132.64C90.68 134.32 93.53 136.04 95.69 138.16C97.61 140.04 98.82 142.07 99.34 144.34L99.35 144.36Z" fill="#573610" fill-opacity="0.3" />
<path d="M87.62 220.61C87.03 218.04 86.63 215.44 86.44 212.82C86.16 208.72 86.38 204.47 87.11 200.2C88.07 194.56 90.26 188.58 92.39 182.79C94.62 176.71 96.94 170.42 97.82 164.49C98.48 160.04 97.47 155.44 96.51 151.93C95.45 148.03 93.59 144.33 90.98 140.94C90.78 140.67 90.56 140.39 90.34 140.13C88.13 137.31 86.04 134.65 86.07 130.69C86.07 129.93 85.99 129.23 85.9 128.55C85.82 127.97 85.75 127.41 85.74 126.86C84.81 125.74 84.49 124.33 84.75 122.58C84.96 121.13 85.57 119.42 86.67 117.18C87.48 115.6 88.41 113.98 89.4 112.25C90.58 110.18 91.8 108.04 92.85 105.92C93.99 103.65 95.2 101.47 97.51 99.71C98.57 98.9 99.74 98.26 101.01 97.81C103.35 96.84 105.09 96.93 105.79 98.07C107.32 99.07 107.87 100.84 108.4 102.54C108.43 102.65 108.47 102.76 108.5 102.86C110.18 108.16 112.54 113.33 115.51 118.23C119.75 125.2 125.62 131.6 132.94 137.24C135.86 139.49 139.13 141.78 142.95 144.25C153.23 150.88 164.53 156.95 176.56 162.26C188.61 167.58 201.48 172.2 214.83 175.99C221.52 177.87 228.48 179.61 235.23 181.29C239.45 182.34 243.82 183.43 248.06 184.55C253.06 185.85 259.6 187.63 265.85 189.75C271.82 191.78 276.85 194.13 280.81 196.76C284.88 199.48 287.49 202.03 289 204.81C291.33 209.07 292.07 212.92 291.32 216.92C291.28 217.14 291.22 217.38 291.15 217.62C291.07 217.94 290.99 218.27 290.94 218.6C289.69 227.99 283.85 237.16 273.1 246.66C262.97 255.6 249.88 263.57 238.42 270.19C233.01 273.31 226.88 276.85 220.86 279.46C216.25 281.44 211.83 282.87 208.91 283.77C208.56 283.88 208.21 283.99 207.87 284.1C205.18 284.94 202.41 285.8 199.69 286.22C194.63 287 189.59 287.4 184.7 287.41C180.11 287.43 175.51 287.11 171.04 286.44C162.96 285.25 155.16 283.01 147.16 279.59C138.34 275.81 129.59 270.59 120.43 263.64C112.46 257.58 106.15 251.79 101.14 245.93C98.26 242.55 95.77 239.1 93.75 235.66C91.57 231.95 89.84 228.14 88.63 224.3C88.24 223.07 87.9 221.83 87.61 220.57L87.62 220.61ZM97.14 154.17C97.87 157.29 98.41 160.94 97.88 164.5C96.99 170.44 94.67 176.73 92.44 182.82C90.31 188.6 88.12 194.57 87.16 200.22C86.43 204.49 86.21 208.73 86.49 212.82C86.77 216.71 87.51 220.59 88.7 224.33C89.91 228.15 91.63 231.97 93.81 235.68C95.83 239.12 98.32 242.57 101.2 245.94C106.21 251.8 112.52 257.58 120.48 263.64C129.63 270.59 138.37 275.81 147.19 279.58C155.18 283 162.99 285.24 171.05 286.42C175.53 287.08 180.12 287.4 184.72 287.39C189.6 287.37 194.64 286.97 199.69 286.19C202.41 285.77 205.06 284.94 207.87 284.07C208.22 283.96 208.56 283.85 208.91 283.75C211.83 282.84 216.25 281.41 220.86 279.43C226.88 276.83 233.01 273.29 238.41 270.17C249.87 263.55 262.95 255.59 273.08 246.65C283.83 237.16 289.66 227.99 290.9 218.62C290.95 218.29 291.04 217.96 291.12 217.64C291.19 217.4 291.24 217.18 291.29 216.95C292.03 212.96 291.3 209.12 288.97 204.87C287.46 202.11 284.87 199.55 280.8 196.84C276.85 194.22 271.82 191.86 265.86 189.83C259.61 187.71 253.08 185.94 248.08 184.63C243.83 183.52 239.47 182.43 235.24 181.37C228.5 179.69 221.53 177.95 214.85 176.08C201.5 172.28 188.62 167.65 176.57 162.33C164.54 157.02 153.23 150.96 142.95 144.32C139.14 141.85 135.86 139.55 132.94 137.31C125.61 131.66 119.74 125.26 115.49 118.28C112.52 113.38 110.15 108.2 108.48 102.9C108.44 102.79 108.41 102.68 108.38 102.58C107.84 100.88 107.29 99.12 105.77 98.13C105.1 97 103.38 96.91 101.06 97.88C99.8 98.32 98.62 98.96 97.58 99.76C95.27 101.52 94.07 103.7 92.94 105.97C91.88 108.08 90.66 110.22 89.48 112.29C88.5 114.01 87.57 115.64 86.75 117.21C85.65 119.44 85.05 121.15 84.83 122.6C84.57 124.34 84.9 125.73 85.81 126.85V126.87C85.81 127.42 85.89 127.98 85.97 128.56C86.06 129.24 86.15 129.94 86.14 130.71C86.12 134.65 88.2 137.3 90.41 140.11C90.63 140.38 90.83 140.65 91.05 140.92C93.66 144.32 95.52 148.02 96.59 151.93C96.78 152.64 96.98 153.39 97.16 154.17H97.14Z" fill="#573610" fill-opacity="0.3" />
<path d="M88.78 226.3C88.28 224.18 87.93 222.03 87.73 219.89C87.36 215.99 87.47 211.95 88.04 207.89C88.75 202.8 90.63 197.38 92.46 192.15C94.58 186.05 96.77 179.75 97.13 173.91C97.43 169.05 95.5 163.96 93.64 159.05C93.47 158.61 93.3 158.17 93.14 157.73C90.77 151.43 87.56 146.23 85.29 142.99C85.11 142.75 84.95 142.5 84.77 142.26C83.44 140.41 82.07 138.48 81.44 136.2C81.4 136.06 81.36 135.92 81.33 135.78C80.77 133.34 81.1 130.72 82.35 127.76C82.6 127.16 82.83 126.58 83.05 126C83.61 124.6 84.12 123.27 84.86 122.03C84.86 121.99 84.84 121.94 84.83 121.89C84.19 119.14 86 115.66 88.9 111.29C89.56 110.35 90.24 109.4 90.95 108.4C93.16 105.3 95.46 102.09 97.45 98.92C99.11 96.29 100.69 93.95 103.19 91.98C104.38 91.05 105.67 90.27 107.02 89.67C108.82 88.72 110.2 88.42 111 88.79C111.44 88.99 111.7 89.4 111.78 89.99C113 91.09 113.38 92.88 113.74 94.62C113.78 94.8 113.81 94.97 113.85 95.16C115.09 100.87 117.03 106.22 119.82 111.49C123.75 118.96 129.75 125.59 137.66 131.21C141.35 133.83 145.31 136.29 148.34 138.15C160.36 145.46 171.68 151.61 182.94 156.93C195.97 163.09 208.61 168.01 221.6 171.98C232.63 175.36 244.16 178.15 255.3 180.84L256.42 181.11C262.48 182.58 268.2 183.96 273.82 185.52C280.14 187.27 285.51 189.28 289.79 191.5C293.24 193.29 297.04 195.53 299.08 198.47C301.39 201.78 303.43 205.08 303.2 209.18C303.19 209.38 303.16 209.59 303.13 209.8C303.08 210.12 303.03 210.44 303.04 210.77C303.16 213.92 302.83 217.05 302.06 220.08C301.33 222.98 300.17 225.88 298.63 228.7C295.73 233.97 291.49 239.04 285.66 244.18C274.49 254.03 259.1 262.64 244.14 270.47C237.5 273.95 229.96 277.89 222.8 280.92C218.19 282.87 213.79 284.46 209.9 285.87C209.43 286.03 208.97 286.2 208.51 286.37C207.72 286.66 206.91 286.96 206.13 287.26C203.34 288.33 200.44 289.42 197.55 289.91C192.69 290.71 187.85 291.14 183.12 291.17C178.72 291.2 174.29 290.9 169.96 290.26C162.3 289.12 154.77 286.96 146.96 283.64C138.41 280.01 129.96 275.03 121.11 268.41C113.42 262.65 107.3 257.12 102.41 251.49C99.6 248.27 97.18 244.97 95.18 241.69C93.04 238.15 91.32 234.5 90.09 230.85C89.58 229.35 89.15 227.83 88.78 226.29V226.3ZM97.18 173.91C96.82 179.76 94.63 186.06 92.51 192.15C90.68 197.39 88.8 202.8 88.09 207.89C87.52 211.95 87.42 215.99 87.78 219.88C88.13 223.59 88.92 227.28 90.14 230.85C91.37 234.5 93.09 238.14 95.23 241.67C97.23 244.95 99.65 248.26 102.46 251.46C107.35 257.09 113.47 262.62 121.15 268.38C129.99 275 138.44 279.98 146.98 283.61C154.79 286.92 162.32 289.08 169.97 290.22C174.3 290.86 178.73 291.17 183.12 291.14C187.84 291.1 192.69 290.68 197.54 289.87C200.43 289.39 203.32 288.29 206.11 287.24C206.89 286.94 207.7 286.63 208.5 286.34C208.95 286.17 209.41 286.01 209.88 285.84C213.76 284.44 218.17 282.83 222.78 280.89C229.95 277.88 237.47 273.93 244.11 270.45C259.07 262.62 274.45 254.02 285.62 244.17C291.44 239.03 295.68 233.97 298.58 228.71C300.12 225.9 301.28 223 302.01 220.1C302.78 217.08 303.11 213.95 302.99 210.8C302.98 210.48 303.03 210.15 303.08 209.83C303.11 209.61 303.14 209.41 303.15 209.21C303.37 205.12 301.34 201.82 299.04 198.52C297.01 195.6 293.21 193.36 289.77 191.56C285.49 189.35 280.12 187.34 273.81 185.59C268.19 184.02 262.47 182.64 256.41 181.19L255.29 180.91C244.15 178.22 232.62 175.44 221.58 172.05C208.6 168.08 195.95 163.15 182.92 156.99C171.65 151.66 160.33 145.51 148.31 138.21C145.27 136.35 141.32 133.89 137.62 131.26C129.71 125.64 123.7 119.01 119.76 111.54C117.16 106.6 115.28 101.6 114.05 96.31C113.96 95.93 113.87 95.56 113.8 95.18C113.75 95 113.72 94.83 113.68 94.64C113.31 92.91 112.94 91.13 111.73 90.03V90.01C111.66 89.43 111.4 89.04 110.98 88.85C110.2 88.49 108.83 88.79 107.05 89.73C105.69 90.33 104.4 91.1 103.22 92.03C100.73 93.99 99.15 96.33 97.49 98.96C95.5 102.12 93.21 105.33 90.99 108.43C90.28 109.43 89.6 110.38 88.94 111.32C86.05 115.68 84.24 119.15 84.88 121.88C84.89 121.93 84.91 121.98 84.91 122.03V122.04C84.17 123.28 83.65 124.61 83.1 126.02C82.88 126.58 82.64 127.17 82.4 127.77C81.07 130.9 80.78 133.65 81.49 136.19C82.12 138.46 83.49 140.38 84.82 142.23C85 142.47 85.16 142.71 85.34 142.95C87.62 146.2 90.83 151.39 93.2 157.7C93.36 158.14 93.53 158.58 93.69 159.02C95.56 163.95 97.49 169.04 97.19 173.91H97.18Z" fill="#573610" fill-opacity="0.3" />
<path d="M89.53 231.84C88.29 226.52 87.97 221.03 88.58 215.42C89.08 210.69 90.68 205.66 92.24 200.79C94.12 194.88 96.06 188.77 96.05 183.18C96.04 177.91 93.61 172.62 91.03 167.01C90.48 165.82 89.91 164.58 89.37 163.35C86.02 155.71 82 149.08 79.2 144.86C78.99 144.55 78.78 144.23 78.58 143.93C77 141.6 75.38 139.19 74.93 136.19C74.69 134.58 74.8 132.93 75.28 131.14C75.81 129.14 76.77 127.02 78.23 124.66C79.92 121.94 81.51 119.36 83.61 117.05C84.06 113.71 87.23 109.56 90.73 105.25C94.19 101.21 98.2 96.45 101.64 91.77C103.49 89.27 105.57 86.43 108.47 84.12C109.79 83.06 111.19 82.14 112.64 81.4C114.7 80.16 116.12 79.74 116.86 80.13C117.3 80.38 117.47 80.92 117.4 81.76C118.32 82.95 118.52 84.68 118.73 86.51C118.76 86.78 118.78 87.04 118.82 87.32C119.57 93.37 121.18 99.03 123.73 104.62C125.55 108.61 128.06 112.39 131.2 115.87C134.23 119.23 137.86 122.32 141.98 125.03C145.51 127.36 149.22 129.52 153.34 131.9C165.75 139.03 177 145.42 188.95 151.43C202.74 158.36 215.51 163.72 227.99 167.84C237.74 171.05 248.91 174.05 262.15 177C265.39 177.72 268.65 178.41 271.81 179.08C274.97 179.75 278.26 180.44 281.41 181.15C288.22 182.65 293.77 184.27 298.39 186.09C302.77 187.83 306.57 189.49 308.78 191.99C309.12 192.37 309.47 192.76 309.85 193.17C311.75 195.24 313.89 197.56 314.54 200.35C314.61 200.66 314.66 200.97 314.7 201.3V201.37C314.75 201.8 314.8 202.27 314.75 202.8C316.39 206.13 317.27 209.51 317.36 212.86C317.44 216.02 316.82 219.25 315.5 222.44C314.26 225.44 312.37 228.51 309.88 231.55C307.55 234.4 304.61 237.31 301.16 240.21C287.58 251.65 267.35 261.91 249.46 270.62C240.39 275.04 232.23 278.97 224.34 282.25C220.69 283.76 217.28 285.09 213.97 286.37C211.76 287.23 209.67 288.04 207.73 288.83C206.69 289.25 205.64 289.71 204.62 290.15C201.51 291.49 198.29 292.88 195.02 293.46C190.37 294.27 185.7 294.71 181.16 294.76C176.94 294.8 172.68 294.52 168.51 293.9C161.21 292.82 153.97 290.74 146.37 287.54C138.1 284.05 129.92 279.31 121.4 273.02C114 267.56 108.07 262.28 103.28 256.88C100.56 253.82 98.18 250.67 96.22 247.54C94.11 244.17 92.4 240.71 91.14 237.23C90.5 235.46 89.96 233.66 89.54 231.84H89.53ZM95.51 178.5C95.88 180.07 96.1 181.63 96.1 183.18C96.11 188.78 94.16 194.89 92.28 200.8C90.73 205.67 89.13 210.7 88.63 215.42C87.81 222.94 88.67 230.27 91.18 237.21C92.44 240.68 94.15 244.15 96.25 247.51C98.22 250.64 100.59 253.78 103.31 256.84C108.1 262.24 114.03 267.51 121.44 272.97C129.96 279.25 138.11 284 146.39 287.48C153.98 290.68 161.22 292.76 168.51 293.84C172.68 294.45 176.94 294.75 181.15 294.7C185.69 294.65 190.36 294.21 195 293.4C198.26 292.83 201.47 291.44 204.58 290.1C205.6 289.66 206.65 289.2 207.7 288.78C209.64 287.99 211.72 287.18 213.93 286.32C217.24 285.04 220.65 283.71 224.29 282.2C232.19 278.92 240.34 275 249.42 270.58C267.31 261.86 287.53 251.61 301.11 240.17C304.56 237.27 307.49 234.36 309.82 231.52C312.31 228.49 314.2 225.42 315.44 222.42C316.75 219.23 317.37 216.01 317.29 212.86C317.2 209.52 316.33 206.14 314.68 202.81V202.8C314.73 202.28 314.68 201.8 314.64 201.38V201.31C314.3 198.11 311.9 195.5 309.79 193.2C309.42 192.79 309.06 192.4 308.72 192.02C306.52 189.53 302.72 187.88 298.34 186.13C293.73 184.32 288.18 182.7 281.38 181.2C278.22 180.49 274.94 179.8 271.77 179.13C268.61 178.46 265.36 177.76 262.12 177.05C248.88 174.1 237.7 171.1 227.95 167.89C215.47 163.77 202.7 158.41 188.91 151.48C176.96 145.48 165.71 139.08 153.3 131.95C149.18 129.57 145.47 127.41 141.94 125.08C137.81 122.37 134.18 119.28 131.15 115.91C128.02 112.43 125.5 108.65 123.68 104.65C121.12 99.06 119.52 93.39 118.76 87.33C118.73 87.07 118.69 86.79 118.67 86.53C118.46 84.7 118.26 82.98 117.34 81.8V81.78C117.42 80.96 117.25 80.43 116.82 80.19C116.11 79.79 114.71 80.22 112.67 81.45C111.22 82.2 109.81 83.1 108.5 84.17C105.62 86.48 103.53 89.31 101.68 91.82C98.24 96.49 94.23 101.25 90.77 105.29C87.27 109.6 84.11 113.74 83.66 117.07V117.09C81.56 119.4 79.97 121.98 78.28 124.7C76.82 127.06 75.87 129.17 75.34 131.16C74.86 132.94 74.75 134.59 74.99 136.2C75.03 136.51 75.09 136.81 75.16 137.1C75.77 139.68 77.22 141.83 78.64 143.92C78.84 144.23 79.05 144.53 79.26 144.85C82.05 149.07 86.09 155.71 89.43 163.35C89.97 164.58 90.53 165.82 91.09 167.01C92.91 170.97 94.66 174.77 95.53 178.52L95.51 178.5Z" fill="#573610" fill-opacity="0.3" />
<path d="M90.11 237.62C89.02 232.97 88.65 228.18 89.01 223.3C89.32 218.88 90.64 214.16 91.92 209.59C93.51 203.94 95.15 198.1 94.86 192.8C94.53 186.88 91.44 180.91 88.16 174.59C87.27 172.87 86.35 171.09 85.49 169.32C82.22 162.46 78.02 154.97 73.01 147.09C72.77 146.71 72.52 146.33 72.27 145.95C70.44 143.14 68.54 140.24 68.29 136.52C68.14 134.51 68.48 132.43 69.32 130.18C70.25 127.65 71.78 124.94 73.99 121.93C76.18 118.93 78.88 115.45 82.23 112.42C83.87 108.69 87.84 104.46 92.44 99.56C97.4 94.53 101.99 89.49 105.72 84.98L105.8 84.89C108.16 82.03 110.6 79.08 113.63 76.6C115.08 75.41 116.6 74.36 118.13 73.47C120.41 71.96 121.91 71.4 122.58 71.82C123.03 72.09 123.12 72.79 122.87 73.88C123.51 75.14 123.56 76.87 123.61 78.69C123.62 79.05 123.63 79.43 123.65 79.8C123.91 86.19 125.18 92.16 127.51 98.07C130.81 106.43 137.26 113.73 146.16 119.18C149.53 121.25 153.14 123.22 156.63 125.13C157.15 125.41 157.67 125.7 158.2 125.98C163.38 128.81 168.61 131.75 173.66 134.6C192.53 145.22 212.05 156.2 234.21 164.01C244.84 167.75 256.49 170.94 268.85 173.47C274.7 174.67 280.6 175.68 286.31 176.66C287.16 176.81 288 176.96 288.84 177.1C296.37 178.38 302.08 179.62 306.83 181L307.4 181.17C311.55 182.38 315.86 183.62 318.33 185.83C318.94 186.38 319.68 186.94 320.45 187.54C322.73 189.28 325.3 191.26 326.04 193.74V193.77C326.17 194.16 326.31 194.62 326.31 195.16C328.71 198.93 330.21 202.74 330.74 206.5C331.25 210.07 330.91 213.69 329.73 217.25C326.56 226.81 317.42 236.38 301.78 246.49C288.08 255.35 271.02 263.56 254.63 271.11C245.6 275.27 235.17 280.05 225.72 283.92C223.05 285.02 220.47 286.05 217.98 287.05C213.93 288.67 210.12 290.2 206.8 291.64C205.55 292.18 204.3 292.78 203.09 293.35C199.62 294.99 196.03 296.68 192.35 297.35C187.9 298.17 183.42 298.62 179.06 298.68C175.01 298.73 170.93 298.46 166.9 297.87C159.95 296.85 152.99 294.85 145.63 291.78C137.62 288.44 129.75 283.94 121.55 277.99C114.43 272.83 108.69 267.81 104 262.64C101.36 259.73 99.04 256.75 97.11 253.77C95.04 250.57 93.33 247.28 92.05 243.97C91.25 241.89 90.59 239.78 90.09 237.64L90.11 237.62ZM94.34 188.98C94.64 190.25 94.84 191.52 94.91 192.79C95.2 198.1 93.56 203.94 91.97 209.6C90.69 214.17 89.37 218.89 89.06 223.3C88.54 230.42 89.57 237.37 92.12 243.93C93.4 247.23 95.1 250.52 97.17 253.72C99.1 256.7 101.42 259.69 104.06 262.59C108.74 267.75 114.48 272.76 121.6 277.93C129.8 283.86 137.67 288.38 145.67 291.71C153.03 294.78 159.99 296.77 166.93 297.8C170.94 298.39 175.03 298.66 179.07 298.6C183.43 298.54 187.9 298.09 192.35 297.28C196.03 296.61 199.61 294.91 203.08 293.27C204.29 292.7 205.55 292.11 206.79 291.56C210.11 290.11 213.93 288.58 217.97 286.96C220.46 285.96 223.04 284.94 225.71 283.84C235.16 279.96 245.58 275.2 254.62 271.03C271.01 263.48 288.07 255.28 301.76 246.42C317.39 236.31 326.53 226.75 329.69 217.2C330.87 213.64 331.21 210.04 330.7 206.48C330.17 202.73 328.68 198.92 326.27 195.15V195.15C326.27 194.61 326.13 194.16 326.01 193.76V193.73C325.26 191.26 322.69 189.29 320.42 187.56C319.64 186.96 318.91 186.39 318.3 185.85C315.84 183.65 311.54 182.4 307.39 181.2L306.82 181.03C302.08 179.65 296.36 178.41 288.83 177.13C287.99 176.99 287.14 176.84 286.3 176.7C280.59 175.72 274.69 174.7 268.84 173.5C256.48 170.97 244.83 167.78 234.19 164.04C212.03 156.23 192.51 145.24 173.64 134.61C168.58 131.77 163.35 128.83 158.17 126C157.65 125.72 157.13 125.43 156.6 125.14C153.11 123.24 149.5 121.27 146.13 119.2C137.22 113.74 130.76 106.44 127.45 98.07C125.12 92.15 123.85 86.18 123.59 79.78C123.57 79.41 123.56 79.04 123.56 78.66C123.51 76.84 123.46 75.11 122.81 73.86V73.85C123.06 72.77 122.98 72.09 122.55 71.83C121.89 71.43 120.41 71.98 118.15 73.47C116.61 74.36 115.1 75.42 113.65 76.6C110.62 79.07 108.18 82.03 105.82 84.88L105.75 84.97C102.01 89.49 97.43 94.53 92.46 99.56C87.87 104.46 83.91 108.68 82.26 112.42C78.91 115.46 76.22 118.93 74.03 121.93C71.83 124.94 70.3 127.64 69.37 130.17C68.53 132.42 68.2 134.48 68.34 136.48C68.59 140.2 70.48 143.09 72.31 145.89C72.55 146.27 72.81 146.65 73.05 147.03C78.06 154.92 82.26 162.41 85.54 169.27C86.4 171.05 87.32 172.82 88.21 174.54C90.78 179.52 93.24 184.27 94.34 188.96V188.98Z" fill="#573610" fill-opacity="0.3" />
<path d="M61.53 140.33C60.37 135.35 61.63 129.06 69.32 119.53C73.15 114.79 76.67 111.16 80.42 108.13C82.96 104.42 87.14 100.45 91.97 95.86L93.72 94.19C99.22 89.17 104.63 83.75 109.36 78.51L109.79 78.02C112.46 75.05 115.23 71.99 118.37 69.38C119.96 68.06 121.59 66.87 123.24 65.83C125.87 63.96 127.45 63.31 128.19 63.79C128.73 64.14 128.76 64.99 128.29 66.46C128.67 67.79 128.59 69.48 128.49 71.27C128.46 71.76 128.44 72.26 128.42 72.76C128.19 79.47 129.11 85.74 131.23 91.93C134.24 100.74 140.8 108.25 150.19 113.63C153.3 115.42 156.61 117.11 159.82 118.76C160.85 119.29 161.88 119.82 162.91 120.36C171.46 124.79 179.88 129.61 188.02 134.28C204.36 143.65 221.26 153.34 240.28 160.47C251.49 164.67 263.28 167.95 275.35 170.23C281.88 171.46 288.35 172.36 296.07 173.32C302.41 174.1 309.1 174.99 315.09 176.19C319.86 177.15 324.15 178.63 327.71 179.95L327.77 179.97L327.81 180.02C328.56 180.98 330.19 181.79 331.91 182.66C334.13 183.77 336.43 184.91 337.33 186.56C337.46 186.8 337.54 187.07 337.63 187.35C337.69 187.53 337.75 187.72 337.83 187.91C341.72 197.79 342.23 206.75 339.37 215.32C336.79 223.01 331.54 230.21 323.3 237.29C308.11 250.34 285.49 260.83 259.66 272.22C246.21 278.15 235.82 282.6 226.96 286.21C225.57 286.77 224.21 287.32 222.87 287.85C216.54 290.41 210.57 292.82 205.73 295.05C204.31 295.71 202.88 296.43 201.49 297.13C197.62 299.08 193.62 301.1 189.48 301.88C174.42 304.74 160.15 303.08 144.57 296.64C136.82 293.44 129.22 289.16 121.34 283.55C106.69 273.11 97.27 262.54 92.55 251.22C89.95 245 88.75 238.42 88.96 231.65C89.08 227.5 90.13 223.05 91.13 218.75C92.39 213.4 93.69 207.88 93.19 202.92C92.52 196.4 88.81 189.77 84.89 182.73C83.64 180.5 82.34 178.18 81.15 175.85C76.04 165.81 70.26 156.22 66.35 149.88C66.07 149.43 65.79 148.99 65.51 148.55C63.89 146 62.25 143.41 61.53 140.34V140.33ZM128.12 64.48C128.08 64.29 127.99 64.2 127.92 64.15C127.62 63.96 126.64 63.96 123.51 66.18C121.88 67.21 120.25 68.4 118.68 69.71C115.57 72.29 112.82 75.35 110.15 78.31L109.71 78.79C104.97 84.04 99.55 89.48 94.04 94.5L92.3 96.16C87.47 100.74 83.29 104.71 80.78 108.38L80.73 108.43C77.01 111.45 73.49 115.06 69.67 119.79C57.44 134.96 61.74 141.75 65.91 148.32C66.19 148.76 66.47 149.21 66.75 149.65C70.66 156 76.44 165.59 81.56 175.65C82.76 177.97 84.05 180.28 85.3 182.52C89.24 189.58 92.96 196.25 93.64 202.85C94.16 207.88 92.84 213.45 91.58 218.82C90.57 223.11 89.54 227.53 89.42 231.64C89.2 238.35 90.39 244.88 92.97 251.05C97.66 262.3 107.03 272.81 121.62 283.19C129.47 288.78 137.05 293.05 144.76 296.23C160.25 302.63 174.44 304.28 189.39 301.44C193.47 300.66 197.44 298.66 201.27 296.73C202.66 296.03 204.1 295.31 205.52 294.65C210.37 292.4 216.35 289.99 222.69 287.44C224.03 286.9 225.39 286.35 226.78 285.79C235.62 282.19 246.01 277.74 259.46 271.81C285.26 260.43 307.85 249.96 322.98 236.96C331.15 229.93 336.36 222.81 338.91 215.18C341.74 206.72 341.24 197.84 337.38 188.06C337.3 187.86 337.24 187.66 337.18 187.46C337.09 187.2 337.02 186.95 336.9 186.74C336.06 185.21 333.83 184.1 331.67 183.03C329.93 182.15 328.27 181.33 327.45 180.32C323.92 179.01 319.68 177.55 314.96 176.61C308.99 175.42 302.31 174.53 295.97 173.74C288.25 172.77 281.77 171.87 275.23 170.64C263.14 168.36 251.32 165.07 240.09 160.86C221.03 153.72 204.12 144.02 187.76 134.64C179.62 129.98 171.21 125.15 162.67 120.72C161.64 120.19 160.61 119.66 159.58 119.13C156.37 117.48 153.05 115.78 149.93 113.98C140.44 108.54 133.81 100.96 130.77 92.05C128.64 85.8 127.72 79.49 127.95 72.73C127.96 72.23 127.99 71.72 128.01 71.23C128.1 69.44 128.19 67.76 127.81 66.49L127.8 66.43L127.81 66.36C128.15 65.33 128.19 64.76 128.11 64.45L128.12 64.48Z" fill="#573610" fill-opacity="0.3" />
<path d="M54.47 142.01C54.18 140.78 54.02 139.46 54.05 138.05C54.12 135.25 54.9 132.33 56.45 129.14C58.18 125.54 60.84 121.68 64.56 117.36C67.63 113.78 71.29 110.54 74.82 107.39C76.04 106.3 77.31 105.18 78.51 104.06C79.87 102.81 81.26 101.51 82.74 100.13C86.33 96.8 90.38 93 94.9 89.07C101.02 83.93 107.25 78.11 112.91 72.26C113.25 71.9 113.6 71.55 113.94 71.19C116.97 68.05 119.83 65.09 122.99 62.43C124.7 60.98 126.45 59.65 128.18 58.47C130.91 56.42 132.54 55.63 133.16 56.05C133.62 56.36 133.52 57.32 132.87 58.99C133.03 60.32 132.82 61.97 132.6 63.72C132.52 64.36 132.43 65.01 132.37 65.67C131.64 72.73 132.22 79.34 134.14 85.87C135.51 90.56 137.91 94.88 141.27 98.73C144.56 102.5 148.7 105.74 153.6 108.37C156.57 109.96 159.71 111.49 162.75 112.96C164.14 113.63 165.59 114.33 166.99 115.03C177.93 120.42 188.39 126.62 198.49 132.6C213.28 141.37 228.58 150.42 245.77 157.24C257.39 161.86 269.35 165.24 281.33 167.31C287.44 168.36 294.06 169.16 302.8 169.88C303.56 169.95 304.34 170.01 305.1 170.06C311.05 170.55 317.21 171.04 322.82 171.71C327.27 172.24 331.45 173.22 335.13 174.07C335.6 174.18 336.05 174.29 336.5 174.39C337.31 175.26 339.35 175.9 341.52 176.57C344.05 177.36 346.67 178.19 347.81 179.49C348.03 179.75 348.2 180.09 348.37 180.46C348.42 180.55 348.47 180.65 348.52 180.75C351.63 187.02 353.41 193.1 353.82 198.85C354.2 204.29 353.35 209.61 351.28 214.67C350.05 217.67 348.36 220.66 346.26 223.56C344.25 226.32 341.8 229.1 338.97 231.8C333.71 236.82 327.1 241.7 318.74 246.73C303.29 256.02 284.07 264.43 264.07 272.93C250.99 278.5 238.72 283.61 227.6 288.09L227.26 288.23C218.17 291.88 210.33 295.04 204.03 298.08C202.44 298.85 200.84 299.69 199.29 300.52C195.05 302.76 190.66 305.08 186.1 305.98C178.21 307.52 170.59 307.74 162.81 306.62C156.51 305.71 150.11 303.91 143.25 301.11C135.78 298.05 128.48 294.01 120.94 288.75C106.96 279 97.82 269.03 92.98 258.27C90.36 252.45 88.99 246.29 88.9 239.94C88.83 236.05 89.58 231.89 90.32 227.85C91.25 222.81 92.2 217.59 91.51 212.91C90.45 205.71 86.12 198.32 81.53 190.51C79.93 187.79 78.29 184.97 76.76 182.14C70.79 170.9 64.08 159.77 59.65 152.41C59.34 151.9 59.02 151.38 58.71 150.88C56.99 148.12 55.25 145.31 54.47 141.96V142.01ZM133.36 56.48C133.32 56.31 133.25 56.18 133.13 56.11C132.53 55.71 130.93 56.5 128.21 58.53C126.49 59.71 124.74 61.04 123.03 62.48C119.88 65.14 117.01 68.11 113.99 71.24C113.64 71.6 113.3 71.95 112.95 72.31C107.29 78.16 101.06 83.98 94.93 89.12C90.42 93.05 86.36 96.84 82.78 100.18C81.3 101.56 79.9 102.86 78.54 104.11C77.34 105.23 76.07 106.35 74.84 107.44C71.31 110.58 67.66 113.83 64.59 117.4C60.88 121.72 58.23 125.57 56.49 129.17C54.94 132.36 54.16 135.27 54.1 138.07C53.99 143.24 56.4 147.14 58.75 150.91C59.06 151.41 59.38 151.93 59.69 152.44C64.13 159.81 70.83 170.93 76.81 182.17C78.33 185 79.98 187.81 81.57 190.53C86.15 198.35 90.48 205.73 91.55 212.96C92.24 217.64 91.29 222.86 90.37 227.9C89.63 231.93 88.87 236.09 88.94 239.97C89.03 246.32 90.4 252.48 93.02 258.29C97.85 269.03 106.99 278.99 120.96 288.74C128.5 294.01 135.8 298.05 143.27 301.09C150.12 303.88 156.51 305.69 162.81 306.59C170.59 307.72 178.2 307.51 186.08 305.96C190.64 305.06 195.02 302.74 199.27 300.5C200.81 299.68 202.42 298.83 204.01 298.06C210.31 295.02 218.16 291.87 227.24 288.21L227.58 288.08C238.7 283.59 250.97 278.48 264.06 272.91C284.04 264.41 303.27 256.01 318.72 246.72C327.07 241.7 333.68 236.82 338.94 231.8C341.77 229.1 344.22 226.33 346.22 223.56C348.32 220.67 350 217.69 351.23 214.68C353.3 209.64 354.15 204.33 353.77 198.88C353.37 193.14 351.59 187.07 348.47 180.8C348.42 180.7 348.38 180.61 348.33 180.51C348.16 180.15 348 179.82 347.78 179.56C346.65 178.26 344.03 177.45 341.51 176.66C339.35 175.98 337.3 175.34 336.48 174.46C336.03 174.36 335.57 174.25 335.11 174.15C331.43 173.29 327.26 172.33 322.8 171.79C317.2 171.11 311.05 170.62 305.09 170.14C304.32 170.08 303.55 170.01 302.78 169.96C294.05 169.23 287.43 168.44 281.32 167.39C269.34 165.32 257.36 161.93 245.73 157.31C228.55 150.49 213.25 141.43 198.45 132.67C188.34 126.68 177.89 120.49 166.96 115.09C165.55 114.4 164.11 113.7 162.71 113.02C159.67 111.55 156.53 110.03 153.56 108.43C148.66 105.81 144.51 102.56 141.21 98.78C137.85 94.93 135.45 90.59 134.07 85.9C132.15 79.37 131.58 72.75 132.3 65.69C132.37 65.03 132.45 64.36 132.53 63.72C132.76 61.98 132.97 60.32 132.8 59.01C133.27 57.8 133.46 56.96 133.34 56.47L133.36 56.48Z" fill="#573610" fill-opacity="0.3" />
<path d="M47.14 143.78C46.78 142.25 46.6 140.63 46.7 138.88C46.86 135.68 47.86 132.34 49.76 128.68C51.91 124.55 55.13 120.11 59.6 115.13C64.15 110.07 69.64 105.54 74.96 101.15C75.45 100.75 75.93 100.35 76.41 99.95C77.92 98.7 79.47 97.42 81.12 96.05C85.55 92.38 90.57 88.21 95.89 83.9C102.68 78.56 109.73 72.37 116.27 65.98C116.93 65.34 117.58 64.7 118.23 64.06C121.37 60.98 124.33 58.07 127.43 55.43C129.29 53.86 131.14 52.39 132.95 51.06C135.94 48.73 137.62 47.84 138.22 48.25C138.7 48.57 138.5 49.67 137.62 51.63C137.59 52.95 137.28 54.51 136.95 56.17C136.78 57 136.62 57.84 136.48 58.69C135.3 65.82 135.47 72.5 137.01 79.1C137.07 79.35 137.12 79.61 137.19 79.86C138.42 84.77 140.78 89.29 144.22 93.26C147.58 97.17 151.91 100.46 157.05 103.05C159.93 104.51 162.96 105.89 165.9 107.24C167.62 108.02 169.4 108.83 171.13 109.66C183.96 115.71 195.86 123.02 207.36 130.09C221.1 138.54 235.31 147.28 251.27 153.96C256.98 156.35 262.78 158.42 268.5 160.09C274.73 161.92 281.05 163.35 287.31 164.33C293.76 165.35 300.81 166 309.51 166.38C312.53 166.5 315.59 166.61 318.54 166.71C322.72 166.85 326.66 166.99 330.54 167.18C334.35 167.37 337.93 167.84 341.38 168.28C342.75 168.47 344.05 168.63 345.33 168.78H345.34C346.17 169.51 348.57 169.93 351.1 170.37C354.03 170.89 357.06 171.42 358.44 172.48C358.83 172.77 359.09 173.2 359.37 173.65C363.44 180.46 365.94 187.08 366.8 193.34C367.61 199.27 366.99 205.07 364.94 210.58C363.72 213.86 361.96 217.12 359.73 220.29C357.58 223.3 354.93 226.33 351.83 229.28C346.08 234.75 338.76 240.07 329.45 245.55C321.57 250.18 312.18 254.97 300.72 260.18C290.1 265.01 279 269.63 268.54 273.94C254.76 279.64 241.05 285.17 228.29 290.29C218.66 294.14 209.43 297.89 202.4 301.4C200.64 302.28 198.88 303.25 197.18 304.19C192.54 306.74 187.73 309.38 182.72 310.4C175.23 311.92 167.96 312.14 160.51 311.09C154.52 310.24 148.4 308.54 141.81 305.88C134.6 302.97 127.58 299.17 120.37 294.25C114.2 290.03 108.88 285.66 104.57 281.26C99.64 276.23 95.81 270.94 93.18 265.54C90.55 260.14 89.01 254.36 88.6 248.36C88.35 244.73 88.81 240.84 89.27 237.08C89.84 232.36 90.43 227.47 89.59 223.08C89.51 222.69 89.43 222.3 89.34 221.92C87.58 214.41 82.89 206.65 77.92 198.45C75.99 195.28 74.01 191.99 72.16 188.66C66.53 178.44 60.72 168.65 55.58 160.01C54.58 158.32 53.63 156.73 52.72 155.18C52.38 154.61 52.03 154.03 51.68 153.46C49.86 150.46 47.98 147.38 47.13 143.77L47.14 143.78ZM138.39 48.62C138.36 48.47 138.29 48.37 138.19 48.3C137.62 47.91 135.91 48.82 132.98 51.11C131.17 52.43 129.32 53.9 127.46 55.47C124.36 58.11 121.4 61.02 118.26 64.1C117.61 64.74 116.96 65.38 116.31 66.02C109.76 72.42 102.71 78.61 95.92 83.95C90.6 88.26 85.58 92.43 81.15 96.1C79.51 97.47 77.96 98.75 76.44 100C75.96 100.4 75.48 100.8 75 101.2C69.68 105.58 64.19 110.11 59.64 115.18C55.17 120.15 51.96 124.58 49.81 128.7C47.91 132.36 46.91 135.69 46.75 138.89C46.45 144.8 49.13 149.2 51.73 153.46C52.08 154.03 52.43 154.61 52.77 155.18C53.69 156.72 54.64 158.32 55.63 160.01C60.76 168.65 66.58 178.44 72.21 188.66C74.05 191.98 76.04 195.27 77.97 198.45C82.94 206.64 87.64 214.41 89.4 221.92C89.49 222.31 89.57 222.71 89.65 223.1C90.49 227.49 89.9 232.38 89.34 237.11C88.89 240.86 88.41 244.75 88.66 248.38C89.08 254.37 90.62 260.14 93.25 265.54C95.87 270.93 99.7 276.21 104.63 281.24C108.93 285.64 114.25 290.01 120.42 294.22C127.63 299.14 134.64 302.94 141.85 305.85C148.43 308.5 154.54 310.21 160.54 311.06C167.98 312.11 175.24 311.89 182.73 310.37C187.74 309.35 192.54 306.72 197.18 304.16C198.88 303.22 200.64 302.26 202.4 301.38C209.43 297.85 218.66 294.1 228.29 290.25C241.05 285.13 254.76 279.6 268.54 273.91C279 269.6 290.1 264.97 300.72 260.14C312.18 254.94 321.57 250.15 329.45 245.52C338.75 240.05 346.07 234.73 351.81 229.26C354.9 226.31 357.56 223.29 359.7 220.27C361.94 217.11 363.69 213.85 364.91 210.58C366.97 205.08 367.59 199.29 366.78 193.37C365.91 187.11 363.42 180.5 359.34 173.69C359.08 173.25 358.81 172.82 358.44 172.54C357.06 171.48 354.04 170.95 351.12 170.44C348.58 169.99 346.18 169.56 345.34 168.84C344.05 168.69 342.77 168.53 341.39 168.34C337.94 167.89 334.38 167.43 330.57 167.24C326.69 167.05 322.74 166.91 318.56 166.77C315.61 166.67 312.55 166.57 309.54 166.44C300.84 166.06 293.78 165.41 287.33 164.39C281.07 163.4 274.73 161.98 268.51 160.15C262.8 158.47 256.99 156.41 251.28 154.02C235.31 147.33 221.1 138.6 207.36 130.14C195.86 123.07 183.97 115.76 171.14 109.71C169.41 108.89 167.63 108.08 165.91 107.29C162.97 105.95 159.94 104.56 157.06 103.1C151.91 100.5 147.58 97.2 144.21 93.29C140.77 89.31 138.41 84.8 137.17 79.88C137.11 79.63 137.05 79.37 136.99 79.12C135.45 72.51 135.27 65.82 136.45 58.68C136.59 57.83 136.76 56.98 136.93 56.16C137.26 54.5 137.57 52.94 137.6 51.63C138.26 50.14 138.53 49.13 138.41 48.62L138.39 48.62Z" fill="#573610" fill-opacity="0.3" />
<path d="M39.76 145.57C39.34 143.77 39.15 141.84 39.31 139.74C39.56 136.14 40.79 132.38 43.06 128.25C45.61 123.58 49.38 118.58 54.61 112.95C60.21 106.92 66.46 100.69 74.28 95.88C79.24 92.84 84 89 89.04 84.94C91.55 82.92 94.13 80.83 96.84 78.77C104.34 73.21 112.2 66.62 119.59 59.74C120.73 58.68 121.86 57.61 122.96 56.58C126.03 53.7 128.92 50.97 131.85 48.47C133.79 46.8 135.76 45.18 137.71 43.69C140.96 41.07 142.68 40.09 143.27 40.49C143.74 40.82 143.44 42.07 142.36 44.31C142.17 45.57 141.79 47 141.39 48.52C141.12 49.56 140.82 50.65 140.58 51.74C138.85 59.47 138.75 66.71 140.25 73.87C140.3 74.1 140.35 74.32 140.4 74.55C141.54 79.43 143.82 83.89 147.17 87.81C150.62 91.85 155.11 95.2 160.51 97.77C163.34 99.11 166.31 100.4 169.2 101.63C171.2 102.5 173.26 103.39 175.27 104.29C189.73 110.82 202.71 119.12 215.27 127.15C228.25 135.45 241.68 144.04 256.79 150.69C269.12 156.12 281.07 159.61 293.3 161.37C299.98 162.32 307.48 162.82 316.23 162.88C321.52 162.91 326.85 162.82 332.02 162.74C334.08 162.71 336.21 162.67 338.28 162.65C341.72 162.61 345.02 162.77 348.21 162.93C350.27 163.04 352.23 163.13 354.16 163.17C354.99 163.73 357.68 163.92 360.52 164.13C363.75 164.36 367.41 164.62 369.06 165.48C369.47 165.68 369.83 166.03 370.2 166.56C374.99 173.43 378.17 180.14 379.65 186.53C379.74 186.92 379.83 187.32 379.91 187.71C380.57 190.95 380.8 194.17 380.6 197.3C380.41 200.33 379.8 203.37 378.81 206.3C377.6 209.85 375.78 213.39 373.4 216.82C371.12 220.1 368.26 223.38 364.89 226.59C358.64 232.53 350.59 238.31 340.29 244.26C321.38 255.2 297.66 265.02 272.98 274.96C263.49 278.78 254.21 282.47 245.22 286.02C239.52 288.29 234.14 290.41 228.94 292.49C217.24 297.15 207.97 301.01 200.73 304.75C198.82 305.74 196.9 306.82 195.05 307.87C190 310.73 184.79 313.68 179.31 314.83C172.21 316.32 165.29 316.55 158.18 315.56C152.49 314.77 146.65 313.17 140.33 310.66C133.38 307.9 126.66 304.32 119.78 299.74C113.9 295.82 108.78 291.71 104.56 287.55C99.81 282.84 96.04 277.89 93.36 272.81C90.72 267.8 89.01 262.41 88.27 256.8C87.83 253.4 88.01 249.76 88.18 246.23C88.39 241.89 88.61 237.41 87.67 233.37C87.66 233.32 87.65 233.29 87.64 233.25C85.6 224.74 80.08 215.8 74.23 206.33C72 202.71 69.68 198.96 67.53 195.18C62.39 186.1 57.05 177.06 52.33 169.09C49.99 165.13 47.77 161.38 45.77 157.96C45.4 157.33 45.02 156.68 44.63 156.06C42.67 152.8 40.67 149.47 39.75 145.56L39.76 145.57ZM143.41 40.81C143.38 40.68 143.32 40.59 143.24 40.53C142.5 40.02 139.74 42.11 137.74 43.72C135.79 45.23 133.82 46.83 131.88 48.5C128.95 51 126.06 53.73 122.99 56.61C121.89 57.65 120.76 58.71 119.62 59.77C112.23 66.66 104.36 73.24 96.87 78.81C94.17 80.87 91.57 82.96 89.06 84.98C84.03 89.05 79.26 92.88 74.3 95.93C66.48 100.73 60.23 106.96 54.64 112.99C49.42 118.62 45.64 123.62 43.1 128.28C40.84 132.41 39.61 136.16 39.36 139.75C38.87 146.39 41.82 151.31 44.68 156.06C45.06 156.69 45.45 157.34 45.82 157.97C47.82 161.38 50.04 165.13 52.38 169.1C57.1 177.07 62.44 186.1 67.58 195.19C69.73 198.97 72.05 202.71 74.28 206.34C80.13 215.81 85.65 224.74 87.7 233.27C87.71 233.31 87.72 233.34 87.72 233.38C88.67 237.44 88.46 241.92 88.24 246.26C88.07 249.78 87.89 253.42 88.33 256.82C89.06 262.43 90.78 267.81 93.42 272.81C96.1 277.89 99.86 282.83 104.61 287.54C108.82 291.7 113.94 295.81 119.82 299.73C126.7 304.31 133.42 307.87 140.37 310.63C146.68 313.14 152.51 314.75 158.2 315.54C165.31 316.53 172.21 316.29 179.31 314.81C184.78 313.66 189.99 310.71 195.03 307.86C196.88 306.8 198.8 305.72 200.72 304.73C207.96 301 217.24 297.13 228.93 292.48C234.13 290.41 239.51 288.27 245.21 286.01C254.19 282.45 263.48 278.77 272.97 274.94C297.65 265.01 321.37 255.18 340.27 244.25C350.56 238.3 358.61 232.52 364.85 226.57C368.22 223.37 371.09 220.09 373.36 216.81C375.74 213.39 377.56 209.85 378.76 206.31C379.75 203.38 380.35 200.35 380.55 197.32C380.75 194.19 380.52 190.97 379.86 187.73C378.5 181 375.23 173.89 370.15 166.59C369.79 166.07 369.44 165.73 369.03 165.52C367.38 164.68 363.73 164.42 360.51 164.19C357.66 163.98 354.98 163.79 354.13 163.23C352.19 163.19 350.25 163.09 348.19 162.99C344.99 162.83 341.69 162.67 338.26 162.71C336.2 162.73 334.06 162.76 332 162.8C326.84 162.88 321.5 162.97 316.21 162.94C307.47 162.87 299.96 162.38 293.27 161.43C281.04 159.67 269.09 156.18 256.75 150.74C241.64 144.08 228.2 135.5 215.22 127.19C202.66 119.17 189.68 110.86 175.23 104.34C173.22 103.44 171.16 102.55 169.16 101.68C166.27 100.44 163.3 99.16 160.47 97.82C155.06 95.25 150.56 91.89 147.11 87.85C143.75 83.93 141.47 79.45 140.33 74.56C140.28 74.34 140.23 74.12 140.18 73.89C138.67 66.71 138.78 59.47 140.52 51.73C140.77 50.63 141.05 49.55 141.32 48.5C141.72 46.98 142.1 45.55 142.3 44.29C143.16 42.5 143.53 41.35 143.39 40.81H143.41Z" fill="#573610" fill-opacity="0.3" />
<path d="M32.38 147.37C31.9 145.29 31.69 143.06 31.9 140.62C32.27 136.62 33.72 132.43 36.34 127.83C39.29 122.63 43.63 117.05 49.61 110.78C57.61 102.38 64.77 96.35 72.13 91.82C78.22 88.07 84.21 83.65 90.54 78.97C92.89 77.23 95.32 75.43 97.79 73.65C106.11 67.75 114.57 60.96 122.91 53.5C124.73 51.87 126.51 50.25 128.24 48.68C131.02 46.15 133.65 43.75 136.24 41.51C138.33 39.7 140.42 37.95 142.44 36.31C145.92 33.43 147.73 32.34 148.3 32.74C148.79 33.07 148.4 34.42 147.08 36.98C146.78 38.1 146.38 39.34 145.95 40.64C145.51 41.98 145.06 43.37 144.66 44.8C142.42 52.85 141.97 60.4 143.28 67.9C145.16 78.62 152.5 87.36 163.95 92.5C166.75 93.75 169.7 94.96 172.55 96.11C174.8 97.03 177.14 97.97 179.39 98.95C195.3 105.84 209.14 115.04 222.54 123.95C234.96 132.22 247.8 140.76 262.29 147.45C274.83 153.24 286.92 156.83 299.27 158.43C306.23 159.33 313.97 159.65 322.93 159.42C330.39 159.21 337.79 158.72 346 158.15C349.19 157.93 352.31 157.88 355.33 157.83C357.98 157.79 360.48 157.75 362.98 157.61C363.79 158 366.54 157.97 369.72 157.93C373.47 157.89 377.71 157.85 379.68 158.51C380.2 158.68 380.64 159 381.03 159.5C384.14 163.41 386.75 167.32 388.77 171.09C390.74 174.78 392.21 178.44 393.14 181.99C394.05 185.45 394.48 188.9 394.42 192.24C394.36 195.49 393.83 198.74 392.85 201.9C391.67 205.71 389.79 209.53 387.27 213.23C384.86 216.76 381.78 220.31 378.13 223.79C371.36 230.21 362.57 236.47 351.24 242.93C330.34 254.86 304.4 265.39 277.43 276.02C269.62 279.11 261.89 282.11 254.4 285.02C245.65 288.42 237.39 291.64 229.61 294.74C219.32 298.81 207.65 303.59 199.09 308.12C197.02 309.21 194.95 310.41 192.95 311.58C187.5 314.75 181.87 318.01 175.91 319.29C169.2 320.74 162.64 321 155.87 320.08C150.47 319.34 144.92 317.84 138.88 315.47C132.18 312.85 125.74 309.52 119.21 305.28C113.6 301.64 108.68 297.8 104.57 293.87C99.99 289.5 96.29 284.87 93.56 280.12C91.16 275.95 89.39 271.47 88.3 266.79C88.18 266.29 88.06 265.78 87.96 265.26C87.32 262.07 87.2 258.67 87.08 255.38C86.94 251.36 86.79 247.21 85.7 243.46C83.05 234.31 76.94 224.53 70.47 214.17C67.95 210.13 65.34 205.96 62.9 201.75C58.41 193.97 53.91 186.38 49.55 179.04C45.65 172.45 41.96 166.23 38.82 160.78C38.42 160.09 38 159.38 37.59 158.7C35.5 155.19 33.37 151.59 32.38 147.38V147.37ZM148.42 33.03C148.4 32.91 148.35 32.83 148.26 32.78C147.72 32.4 145.88 33.53 142.47 36.34C140.44 37.98 138.35 39.74 136.27 41.54C133.67 43.78 131.05 46.17 128.26 48.71C126.54 50.29 124.75 51.91 122.93 53.54C114.59 61 106.14 67.78 97.81 73.68C95.34 75.47 92.91 77.26 90.56 79C84.22 83.69 78.24 88.11 72.15 91.86C64.79 96.39 57.64 102.41 49.64 110.81C43.66 117.09 39.32 122.66 36.37 127.85C33.76 132.45 32.3 136.63 31.95 140.62C31.28 148 34.5 153.42 37.62 158.66C38.02 159.34 38.45 160.05 38.85 160.74C41.99 166.19 45.67 172.42 49.58 179C53.93 186.34 58.43 193.93 62.92 201.7C65.37 205.92 67.98 210.09 70.5 214.13C76.96 224.48 83.08 234.26 85.73 243.42C86.82 247.19 86.97 251.35 87.12 255.36C87.23 258.65 87.36 262.05 88 265.24C89.05 270.47 90.92 275.46 93.59 280.08C96.33 284.83 100.03 289.45 104.59 293.81C108.71 297.74 113.63 301.59 119.22 305.22C125.76 309.45 132.18 312.78 138.89 315.4C144.92 317.76 150.47 319.27 155.86 320C162.63 320.92 169.18 320.67 175.89 319.22C181.83 317.94 187.46 314.67 192.91 311.51C194.91 310.35 196.98 309.14 199.05 308.05C207.62 303.52 219.3 298.74 229.59 294.67C237.36 291.58 245.63 288.37 254.38 284.96C261.86 282.05 269.59 279.04 277.41 275.95C304.38 265.32 330.31 254.8 351.21 242.87C362.52 236.41 371.31 230.15 378.08 223.73C381.73 220.26 384.81 216.71 387.21 213.18C389.74 209.48 391.61 205.66 392.79 201.85C393.76 198.7 394.29 195.46 394.35 192.21C394.42 188.87 393.98 185.42 393.08 181.97C392.15 178.42 390.68 174.75 388.7 171.08C386.68 167.3 384.08 163.4 380.97 159.49C380.59 159 380.15 158.68 379.64 158.51C377.69 157.85 373.45 157.89 369.7 157.93C366.52 157.97 363.77 158 362.95 157.61C360.45 157.75 357.94 157.79 355.29 157.83C352.27 157.88 349.16 157.93 345.97 158.15C337.77 158.72 330.37 159.21 322.91 159.42C313.95 159.66 306.21 159.34 299.23 158.43C286.89 156.83 274.78 153.24 262.24 147.45C247.75 140.76 234.91 132.22 222.48 123.95C209.09 115.04 195.25 105.83 179.34 98.95C177.1 97.98 174.76 97.03 172.5 96.11C169.65 94.96 166.7 93.76 163.9 92.5C152.44 87.35 145.09 78.6 143.2 67.87C141.89 60.36 142.34 52.8 144.58 44.75C144.98 43.32 145.44 41.93 145.88 40.59C146.31 39.29 146.71 38.05 147.01 36.93C148.07 34.86 148.54 33.55 148.4 32.99L148.42 33.03Z" fill="#573610" fill-opacity="0.3" />
<path d="M24.79 149.22C24.23 146.85 24.01 144.3 24.31 141.49C25.28 132.23 31.87 121.44 44.47 108.49C52.97 99.74 61.29 92.91 69.89 87.62C78.44 82.35 87 76.42 96.06 70.15L98.62 68.38C107.68 62.2 116.93 55.05 126.08 47.14C128.95 44.66 131.69 42.22 134.33 39.87C136.48 37.96 138.51 36.14 140.5 34.42C142.73 32.46 144.93 30.57 147.04 28.8C151.59 24.96 152.9 24.44 153.47 24.84C153.9 25.15 154.02 25.95 151.98 29.76C151.67 30.61 151.31 31.55 150.92 32.52C150.25 34.25 149.54 36.04 148.93 37.92C146.19 46.26 145.39 54.1 146.51 61.91C148.11 73.06 155.55 81.99 167.47 87.05C170.26 88.24 173.2 89.37 176.03 90.46C178.53 91.41 181.1 92.41 183.58 93.43C200.86 100.6 215.42 110.68 229.51 120.42C241.48 128.7 253.86 137.27 267.87 144.02C280.56 150.14 292.79 153.83 305.24 155.29C312.45 156.13 320.42 156.28 329.6 155.75C337.92 155.26 346.43 154.31 353.67 153.43C356.73 153.08 359.76 152.85 362.68 152.64C365.82 152.4 368.77 152.19 371.75 151.82H371.85C372.58 152.04 375.47 151.82 378.53 151.57C382.95 151.22 387.97 150.83 390.33 151.32C390.99 151.46 391.56 151.79 392.01 152.3C406.31 168.32 411.29 183.06 407.24 197.38C402.95 212.56 388.28 227.05 362.39 241.69C339.33 254.71 310.01 266.4 281.95 277.26C274.77 280.04 267.65 282.76 260.76 285.4C249.97 289.52 239.79 293.41 230.35 297.15C220.03 301.23 206.96 306.56 197.52 311.65C195.32 312.84 193.1 314.16 190.95 315.43C185.08 318.91 179.01 322.5 172.56 323.94C157.68 327.24 145.33 323.53 137.33 320.46C130.95 318.01 124.62 314.81 118.51 310.96C107.35 303.94 98.96 296.05 93.57 287.52C90.88 283.28 88.83 278.66 87.44 273.78C86.58 270.77 86.15 267.57 85.74 264.48C85.25 260.87 84.74 257.13 83.56 253.72C80.19 243.96 73.5 233.28 66.42 221.97C63.65 217.56 60.8 212.99 58.09 208.4C54.42 202.15 50.72 195.93 47.14 189.92C41.44 180.35 36.06 171.33 31.7 163.68C31.27 162.92 30.83 162.16 30.38 161.41C28.16 157.62 25.88 153.75 24.82 149.22H24.79ZM153.25 25.31C153.24 25.24 153.21 25.2 153.19 25.19C152.94 25.02 151.87 25.3 147.36 29.12C145.25 30.89 143.05 32.78 140.82 34.72C138.84 36.45 136.81 38.26 134.65 40.18C132.01 42.53 129.27 44.97 126.4 47.44C117.23 55.37 107.97 62.52 98.89 68.72L96.33 70.49C87.26 76.77 78.69 82.7 70.13 87.96C61.57 93.24 53.28 100.04 44.8 108.77C26.03 128.08 23.04 139.85 25.19 149.01C26.23 153.49 28.5 157.35 30.76 161.17C31.21 161.94 31.65 162.7 32.09 163.45C36.45 171.09 41.82 180.12 47.52 189.68C51.1 195.69 54.8 201.91 58.48 208.16C61.19 212.75 64.04 217.32 66.81 221.73C73.9 233.06 80.6 243.76 83.98 253.56C85.17 257.02 85.69 260.77 86.18 264.4C86.59 267.47 87.02 270.66 87.87 273.64C89.24 278.48 91.29 283.07 93.95 287.28C99.31 295.76 107.66 303.61 118.76 310.59C124.84 314.41 131.15 317.6 137.51 320.04C145.45 323.09 157.71 326.78 172.45 323.51C178.82 322.1 184.86 318.52 190.71 315.05C192.85 313.78 195.08 312.46 197.29 311.27C206.75 306.17 219.84 300.82 230.17 296.74C239.61 293 249.8 289.11 260.58 284.98C267.47 282.35 274.61 279.62 281.77 276.84C309.81 265.99 339.11 254.31 362.15 241.3C387.93 226.74 402.53 212.34 406.79 197.27C410.79 183.11 405.84 168.48 391.65 152.58C391.27 152.15 390.78 151.87 390.21 151.75C387.92 151.27 382.72 151.68 378.55 152C375.24 152.26 372.62 152.47 371.75 152.25C368.76 152.62 365.82 152.84 362.69 153.07C359.77 153.29 356.76 153.5 353.7 153.87C346.46 154.73 337.93 155.69 329.61 156.18C320.39 156.71 312.39 156.56 305.16 155.72C292.65 154.26 280.37 150.56 267.63 144.41C253.6 137.65 241.19 129.07 229.21 120.78C215.14 111.05 200.6 100.99 183.36 93.83C180.89 92.8 178.32 91.81 175.83 90.86C172.99 89.77 170.05 88.64 167.25 87.44C155.19 82.31 147.65 73.27 146.04 61.97C144.91 54.1 145.7 46.2 148.47 37.79C149.09 35.9 149.8 34.1 150.48 32.37C150.86 31.4 151.22 30.47 151.54 29.59C153.17 26.57 153.31 25.61 153.24 25.31H153.25Z" fill="#573610" fill-opacity="0.3" />
<path d="M17.62 150.98C17.01 148.35 16.77 145.52 17.14 142.4C17.7 137.6 19.59 132.58 22.93 127.03C26.63 120.85 32.26 113.94 39.65 106.46C47.48 98.52 56.99 90.88 67.89 83.73C72.55 80.67 77.27 77.71 82.28 74.58C87.99 71 93.9 67.3 99.72 63.42C109.55 56.95 119.59 49.42 129.57 41.06C134.15 37.22 138.31 33.55 142.34 30.01C143.27 29.2 144.18 28.4 145.07 27.62C147.79 25.23 150.03 23.26 151.95 21.6C155.93 18.16 157.86 16.87 158.42 17.27C158.9 17.61 158.3 19.23 156.54 22.38C156.34 22.81 156.15 23.25 155.94 23.71C154.94 25.89 153.8 28.37 152.84 30.95C149.57 39.63 148.43 47.82 149.36 55.98C150.03 61.82 152.25 67.05 155.97 71.53C159.66 75.97 164.67 79.49 170.84 81.97C173.64 83.1 176.58 84.17 179.42 85.21C182.13 86.19 184.94 87.22 187.62 88.29C195.95 91.61 204.33 95.93 213.23 101.49C221.16 106.45 228.77 111.91 236.13 117.2C247.72 125.51 259.7 134.11 273.27 140.97C279.38 144.03 285.17 146.42 290.95 148.27C297.71 150.43 304.32 151.84 311.18 152.55C318.64 153.34 326.86 153.31 336.31 152.49C345.41 151.69 354.5 150.28 361.4 149.15C362.76 148.92 364.14 148.69 365.48 148.46C370.55 147.6 375.79 146.7 380.59 146.46C381.13 146.44 382.63 146.23 384.52 145.98C389.4 145.32 397.59 144.22 400.89 144.57C401.6 144.64 402.22 144.92 402.67 145.39C406.92 149.69 410.53 153.98 413.41 158.17C416.2 162.23 418.38 166.31 419.87 170.28C421.32 174.14 422.17 178 422.4 181.77C422.63 185.42 422.27 189.09 421.35 192.68C420.22 197.02 418.23 201.39 415.41 205.65C412.73 209.71 409.22 213.81 404.98 217.83C400.98 221.63 396.19 225.47 390.75 229.27C385.65 232.82 379.82 236.45 373.39 240.05C362.03 246.42 348.49 252.93 332.01 259.96C316.78 266.46 301.04 272.55 286.31 278.15C279.4 280.78 272.53 283.36 265.88 285.87C253.44 290.55 241.7 294.96 230.92 299.22C214.59 305.65 203.74 310.47 195.74 314.87C193.39 316.17 191.03 317.59 188.74 318.96C182.47 322.74 175.98 326.64 169.09 328.22C163.15 329.59 157.29 329.86 151.2 329.08C146.4 328.47 141.41 327.16 135.92 325.1C129.78 322.79 123.76 319.84 118.01 316.34C107.59 310 99.48 302.73 93.9 294.73C91.2 290.85 88.98 286.64 87.29 282.19C86.19 279.32 85.4 276.27 84.66 273.32C83.86 270.16 83.03 266.9 81.79 263.85C77.54 253.43 70.23 241.69 62.48 229.28C59.55 224.58 56.52 219.72 53.61 214.85C50.94 210.38 48.24 205.87 45.63 201.52C37.89 188.63 30.59 176.44 24.9 166.4C24.44 165.58 23.96 164.75 23.48 163.94C21.13 159.91 18.73 155.79 17.6 150.98L17.62 150.98ZM158.51 17.5C158.48 17.41 158.44 17.34 158.38 17.3C157.72 16.82 154.62 19.36 151.98 21.63C150.07 23.3 147.82 25.26 145.1 27.65C144.22 28.43 143.31 29.23 142.38 30.04C138.35 33.59 134.18 37.25 129.6 41.09C119.62 49.46 109.57 56.99 99.75 63.46C93.93 67.34 88.01 71.04 82.3 74.62C77.3 77.76 72.57 80.72 67.91 83.78C57.02 90.92 47.53 98.57 39.68 106.5C32.3 113.97 26.68 120.89 22.97 127.06C19.64 132.59 17.75 137.61 17.19 142.4C16.15 151.26 19.91 157.69 23.55 163.92C24.02 164.73 24.51 165.56 24.97 166.37C30.66 176.42 37.97 188.6 45.7 201.5C48.31 205.85 51.01 210.35 53.68 214.82C56.59 219.7 59.62 224.55 62.55 229.26C70.29 241.67 77.61 253.4 81.85 263.83C83.09 266.89 83.92 270.15 84.73 273.3C85.48 276.25 86.25 279.3 87.37 282.17C89.05 286.61 91.27 290.82 93.98 294.69C99.55 302.68 107.66 309.95 118.07 316.29C123.81 319.78 129.83 322.72 135.97 325.03C141.45 327.09 146.43 328.4 151.23 329.01C157.32 329.8 163.16 329.51 169.1 328.16C175.98 326.58 182.47 322.68 188.74 318.9C191.02 317.52 193.38 316.1 195.74 314.81C203.73 310.42 214.58 305.59 230.92 299.16C241.7 294.91 253.45 290.49 265.88 285.81C272.53 283.3 279.4 280.72 286.31 278.09C301.04 272.48 316.77 266.39 332.01 259.9C348.48 252.88 362.02 246.37 373.38 239.99C379.8 236.39 385.64 232.76 390.73 229.21C396.17 225.42 400.96 221.57 404.96 217.77C409.19 213.75 412.7 209.66 415.38 205.6C418.19 201.35 420.18 196.98 421.3 192.64C422.23 189.07 422.58 185.4 422.36 181.75C422.13 177.99 421.28 174.12 419.83 170.27C418.34 166.31 416.17 162.23 413.37 158.17C410.5 153.98 406.9 149.69 402.65 145.4C402.2 144.95 401.59 144.66 400.89 144.59C397.6 144.24 389.41 145.34 384.52 146C382.64 146.26 381.14 146.46 380.59 146.49C375.79 146.73 370.56 147.62 365.49 148.49C364.15 148.71 362.77 148.95 361.41 149.17C354.51 150.31 345.42 151.71 336.31 152.51C326.85 153.34 318.62 153.36 311.16 152.58C304.3 151.86 297.69 150.46 290.93 148.29C285.13 146.44 279.35 144.04 273.24 140.99C259.67 134.13 247.68 125.53 236.09 117.2C228.73 111.93 221.12 106.45 213.19 101.51C204.29 95.95 195.92 91.64 187.59 88.31C184.9 87.24 182.1 86.22 179.39 85.23C176.55 84.19 173.6 83.13 170.8 82C164.63 79.5 159.61 75.99 155.92 71.54C152.19 67.05 149.96 61.81 149.29 55.97C148.36 47.79 149.5 39.6 152.78 30.91C153.75 28.33 154.88 25.85 155.88 23.66C156.09 23.21 156.29 22.76 156.49 22.33C157.97 19.67 158.63 18.07 158.5 17.48L158.51 17.5Z" fill="#573610" fill-opacity="0.3" />
<path d="M10.27 152.78C9.59 149.89 9.34 146.76 9.78 143.29C10.44 138.09 12.56 132.64 16.24 126.62C20.35 119.92 26.55 112.42 34.68 104.3C43.61 95.39 54.07 87.11 65.78 79.68C71.08 76.31 76.66 72.97 82.06 69.73C88.19 66.06 94.53 62.27 100.71 58.3C111.42 51.45 122.26 43.55 132.93 34.82C139.03 29.85 144.51 25.07 149.52 20.66C151.87 18.59 154.23 16.48 156.74 14.22C161 10.49 162.96 9.12 163.51 9.51C164 9.85 163.29 11.61 161.31 15.05C159.84 17.81 158.29 20.82 156.96 24C153.2 32.96 151.72 41.47 152.44 50C152.98 56.06 155.17 61.47 158.97 66.08C162.73 70.66 167.9 74.22 174.32 76.68C177.15 77.76 180.11 78.79 182.97 79.78C185.89 80.78 188.91 81.83 191.79 82.94C200.64 86.34 209.45 90.87 218.72 96.77C226.99 102.03 234.85 107.89 242.46 113.56C253.79 121.99 265.51 130.71 278.82 137.71C284.98 140.92 290.8 143.4 296.62 145.31C303.47 147.54 310.2 148.95 317.2 149.6C324.88 150.31 333.35 150.11 343.07 149C350.49 148.14 358.79 146.75 369.18 144.62C376.55 143.1 383.19 141.87 389.46 140.86C389.8 140.8 390.55 140.66 391.59 140.46C396.32 139.56 407.4 137.45 411.56 137.56C412.38 137.58 413.07 137.83 413.57 138.29C418.4 142.74 422.54 147.22 425.85 151.58C429.08 155.83 431.61 160.09 433.4 164.25C435.14 168.29 436.21 172.36 436.59 176.33C436.97 180.18 436.7 184.06 435.8 187.85C431.77 204.95 415.03 221.51 384.62 238.47C372.32 245.33 357.71 252.31 339.96 259.82C323.15 266.93 305.68 273.59 290.8 279.17C283.97 281.73 277.16 284.27 270.57 286.71C256.69 291.86 243.58 296.73 231.64 301.42C214.58 308.12 202.66 313.46 194.13 318.21C191.65 319.59 189.17 321.11 186.76 322.58C180.06 326.67 173.12 330.9 165.73 332.66C160.17 333.97 154.68 334.27 148.92 333.55C144.36 332.99 139.77 331.82 134.51 329.88C128.59 327.7 122.86 324.99 117.48 321.85C107.8 316.19 99.95 309.51 94.13 302C91.47 298.57 89.08 294.75 87.02 290.63C85.55 287.74 84.34 284.69 83.16 281.73C82.15 279.19 81.09 276.55 79.89 274.04C74.51 262.75 66.38 249.58 57.77 235.64C54.9 231 51.93 226.18 49.03 221.39C47.59 219.01 46.15 216.62 44.71 214.24C34.64 197.6 25.13 181.89 18.01 169.19C17.52 168.31 16.99 167.42 16.49 166.56C14.01 162.27 11.46 157.88 10.27 152.76V152.78ZM163.58 9.75C163.56 9.67 163.52 9.61 163.47 9.57C162.82 9.1 159.72 11.69 156.76 14.27C154.25 16.53 151.89 18.64 149.55 20.71C144.53 25.12 139.06 29.9 132.95 34.87C122.29 43.61 111.44 51.51 100.73 58.35C94.56 62.32 88.22 66.12 82.08 69.78C76.68 73.02 71.1 76.36 65.8 79.73C54.1 87.15 43.65 95.43 34.72 104.34C26.59 112.45 20.39 119.96 16.28 126.66C12.6 132.67 10.49 138.11 9.83 143.29C8.61 152.88 12.64 159.83 16.53 166.55C17.03 167.41 17.56 168.31 18.05 169.18C25.17 181.88 34.68 197.6 44.75 214.23C46.19 216.61 47.63 219 49.07 221.38C51.97 226.17 54.94 230.99 57.81 235.63C66.42 249.58 74.55 262.75 79.93 274.03C81.14 276.55 82.19 279.18 83.2 281.73C84.38 284.68 85.6 287.73 87.06 290.62C89.12 294.73 91.52 298.55 94.18 301.99C99.99 309.49 107.84 316.15 117.5 321.81C122.88 324.96 128.6 327.66 134.52 329.85C139.79 331.78 144.37 332.95 148.93 333.52C154.68 334.23 160.17 333.94 165.72 332.62C173.11 330.88 180.03 326.64 186.73 322.55C189.14 321.08 191.63 319.57 194.11 318.18C202.64 313.43 214.56 308.09 231.61 301.39C243.56 296.69 256.66 291.83 270.54 286.68C277.14 284.24 283.95 281.71 290.78 279.14C305.65 273.56 323.12 266.89 339.92 259.79C357.68 252.28 372.29 245.29 384.58 238.44C414.98 221.48 431.71 204.94 435.75 187.85C436.64 184.06 436.9 180.19 436.54 176.35C436.15 172.38 435.08 168.32 433.34 164.29C431.56 160.13 429.02 155.86 425.79 151.62C422.48 147.26 418.35 142.79 413.51 138.34C413.02 137.89 412.33 137.64 411.54 137.62C407.38 137.51 396.31 139.62 391.58 140.52C390.54 140.72 389.79 140.86 389.46 140.92C383.18 141.94 376.54 143.17 369.17 144.67C358.78 146.81 350.48 148.2 343.06 149.06C333.32 150.17 324.86 150.37 317.18 149.65C310.18 149.01 303.43 147.6 296.58 145.36C290.75 143.45 284.93 140.97 278.77 137.76C265.45 130.76 253.73 122.04 242.4 113.6C234.79 107.94 226.94 102.07 218.67 96.81C209.41 90.91 200.6 86.39 191.75 82.99C188.87 81.88 185.84 80.83 182.93 79.83C180.07 78.84 177.11 77.81 174.28 76.73C167.85 74.27 162.67 70.7 158.9 66.11C155.11 61.49 152.9 56.07 152.36 50.01C151.64 41.46 153.12 32.95 156.9 23.98C158.23 20.8 159.78 17.8 161.25 15.03C162.95 12.08 163.72 10.33 163.58 9.73V9.75Z" fill="#573610" fill-opacity="0.3" />
<path d="M2.67 154.68C1.93 151.49 1.67 148.05 2.18 144.21C3.78 132.44 12.73 118.65 29.54 102.07C39.54 92.21 50.98 83.28 63.52 75.53C69.49 71.85 75.73 68.25 81.76 64.79C88.28 61.03 95.03 57.15 101.54 53.09C121.32 40.78 141.44 25.2 161.33 6.79C166.76 1.96 168.1 1.26 168.68 1.68C169.18 2.03 168.96 3.23 166.21 7.89C160.81 16.87 154.74 29.11 155.66 44.08C156.44 56.52 164.51 66.45 177.82 71.3C180.67 72.34 183.65 73.31 186.53 74.26C189.66 75.28 192.89 76.34 195.97 77.48C216.86 85.22 233.03 97.71 248.67 109.78C259.79 118.36 271.28 127.23 284.4 134.36C297.7 141.59 310.02 145.46 323.16 146.54C340.76 147.98 360.17 144.04 376.82 140C379.81 139.28 382.82 138.65 385.73 138.05C389.8 137.2 394.01 136.33 398.19 135.17C400.11 134.64 416.6 130.67 422.14 130.47C423.09 130.43 423.93 130.67 424.51 131.16C445.39 148.82 454.12 166.31 450.45 183.15C446.18 202.76 425.48 221.94 387.16 241.8C353.87 259.05 311.95 274.42 274.97 287.97C242.03 300.04 210.92 311.44 192.56 321.82C189.94 323.3 187.31 324.93 184.76 326.5C177.64 330.9 170.26 335.45 162.37 337.39C150.43 340.31 140.38 337.62 132.94 334.95C116.85 329.17 103.79 320.61 94.14 309.51C87.47 301.83 82.53 292.97 77.75 284.4C69.03 268.78 56.46 248.2 44.3 228.29C32.14 208.38 19.57 187.8 10.85 172.17C10.32 171.23 9.78 170.29 9.24 169.35C6.62 164.78 3.93 160.11 2.66 154.68H2.67ZM168.43 2.12C168.43 2.08 168.41 2.05 168.38 2.03C168.12 1.84 166.74 2.58 161.64 7.11C141.74 25.53 121.6 41.13 101.79 53.46C95.27 57.53 88.52 61.41 81.99 65.17C75.96 68.64 69.73 72.22 63.77 75.9C51.25 83.63 39.85 92.53 29.87 102.37C13.13 118.88 4.23 132.58 2.64 144.26C1.24 154.53 5.53 161.95 9.66 169.13C10.2 170.08 10.74 171.02 11.26 171.96C19.98 187.58 32.55 208.17 44.71 228.07C56.87 247.98 69.44 268.56 78.16 284.19C82.94 292.74 87.87 301.59 94.51 309.23C104.11 320.27 117.1 328.79 133.13 334.54C140.49 337.19 150.46 339.86 162.27 336.96C170.09 335.04 177.43 330.52 184.52 326.14C187.07 324.57 189.71 322.94 192.34 321.45C210.72 311.04 241.85 299.63 274.81 287.56C311.78 274.01 353.68 258.66 386.94 241.42C425.13 221.63 445.75 202.55 449.99 183.07C453.63 166.4 444.95 149.04 424.19 131.49C423.71 131.08 422.98 130.87 422.14 130.91C416.64 131.11 400.23 135.06 398.31 135.59C394.11 136.75 389.9 137.62 385.81 138.47C382.9 139.08 379.9 139.7 376.92 140.43C360.22 144.47 340.77 148.41 323.1 146.97C309.88 145.89 297.51 142.01 284.15 134.75C271 127.61 259.49 118.72 248.36 110.13C232.75 98.08 216.6 85.62 195.78 77.9C192.72 76.76 189.48 75.7 186.37 74.68C183.48 73.73 180.49 72.75 177.64 71.72C164.15 66.82 155.97 56.76 155.19 44.13C154.26 29.05 160.37 16.73 165.79 7.7C168.28 3.49 168.49 2.4 168.43 2.13V2.12Z" fill="#573610" fill-opacity="0.3" />
</g>
</svg>