<svg xmlns="http://www.w3.org/2000/svg" viewBox="1464 649 456 342" width="456" height="342"><g>
<path d="M1571.92 855.435C1571.28 852.698 1570.98 849.862 1571 846.942C1571.03 843.233 1572.46 839.265 1575.37 834.807C1577.86 830.972 1580.97 827.52 1583.68 824.65C1584.16 823.286 1584.61 821.856 1584.6 820.558C1584.6 819.177 1584.1 817.979 1583.1 816.898C1582.2 815.933 1580.98 815.143 1579.79 814.386C1579.56 814.245 1579.34 814.095 1579.12 813.954C1577.1 812.631 1578.26 810.144 1579.49 807.515C1579.81 806.817 1580.15 806.085 1580.45 805.369C1580.79 804.488 1581.23 803.564 1582.25 802.857C1583.56 801.951 1585.22 801.893 1586.1 802.308C1587.01 802.733 1587.4 803.548 1587.79 804.33L1587.82 804.396C1589.83 808.53 1592.63 812.431 1596.13 815.983C1599.42 819.319 1603.42 822.438 1608.02 825.258C1616.22 830.29 1626.65 834.574 1639.03 837.992C1640.99 838.533 1643.01 839.057 1644.97 839.564C1651.05 841.145 1657.34 842.775 1662.79 845.129C1666.7 846.818 1669.59 848.88 1671.39 851.251C1673.57 854.129 1674.05 857.406 1672.82 860.983C1671.62 864.468 1669.03 868.095 1664.87 872.079C1661.57 875.248 1657.29 878.609 1651.8 882.368C1651.1 882.843 1650.39 883.325 1649.67 883.807C1647.3 885.388 1644.96 886.893 1642.47 887.958C1639.12 889.397 1635.85 889.855 1633.68 890.079C1631.55 890.295 1629.35 890.395 1626.96 890.379C1613.9 890.312 1601.55 886.644 1590.26 879.465C1584.17 875.614 1579.43 870.981 1576.16 865.674C1574.19 862.464 1572.76 859.037 1571.92 855.427V855.435ZM1584.51 819.352C1584.59 819.726 1584.64 820.117 1584.64 820.541C1584.64 821.847 1584.2 823.295 1583.72 824.659C1581.01 827.537 1577.9 830.989 1575.41 834.823C1572.51 839.273 1571.08 843.233 1571.05 846.934C1570.99 853.705 1572.72 860.002 1576.21 865.649C1579.47 870.948 1584.2 875.581 1590.28 879.424C1601.57 886.594 1613.91 890.262 1626.95 890.329C1629.34 890.345 1631.53 890.254 1633.66 890.029C1638.18 889.572 1640.84 888.599 1642.44 887.917C1644.93 886.852 1647.26 885.346 1649.62 883.766C1650.35 883.283 1651.06 882.801 1651.76 882.327C1657.26 878.575 1661.53 875.215 1664.83 872.046C1668.98 868.07 1671.57 864.443 1672.76 860.975C1673.98 857.406 1673.5 854.146 1671.33 851.284C1669.54 848.922 1666.65 846.868 1662.74 845.179C1657.31 842.833 1651.02 841.195 1644.94 839.623C1642.98 839.115 1640.96 838.591 1639 838.051C1626.62 834.632 1616.18 830.348 1607.98 825.307C1603.38 822.479 1599.38 819.36 1596.08 816.025C1592.57 812.465 1589.77 808.564 1587.76 804.421L1587.73 804.355C1587.35 803.573 1586.96 802.774 1586.07 802.35C1585.19 801.942 1583.56 801.992 1582.27 802.891C1581.26 803.589 1580.83 804.504 1580.49 805.378C1580.2 806.093 1579.86 806.825 1579.53 807.524C1578.31 810.136 1577.15 812.598 1579.14 813.904C1579.37 814.045 1579.59 814.195 1579.81 814.336C1581.86 815.65 1583.96 817.015 1584.51 819.352Z" fill="#573610" fill-opacity="0.3" />
<path d="M1568.91 856.709C1568.12 853.316 1567.8 849.797 1567.98 846.171C1568.16 842.361 1569.58 838.21 1572.33 833.469C1574.69 829.393 1577.6 825.609 1580.17 822.273L1580.6 821.708C1581.14 820.119 1581.63 818.447 1581.59 816.925C1581.55 815.311 1580.95 813.914 1579.74 812.649C1578.66 811.518 1577.2 810.595 1575.8 809.705C1575.53 809.539 1575.27 809.364 1575 809.198C1572.61 807.65 1573.91 804.756 1575.29 801.686C1575.67 800.863 1576.05 800.006 1576.37 799.158C1576.77 798.126 1577.25 797.045 1578.43 796.222C1579.89 795.19 1581.83 795.082 1582.87 795.573C1583.91 796.064 1584.35 797.012 1584.79 797.918L1584.82 797.993C1587.08 802.793 1590.26 807.309 1594.27 811.418C1598.03 815.27 1602.62 818.871 1607.92 822.132C1612.84 825.151 1618.49 827.954 1624.73 830.458C1630.46 832.754 1636.85 834.867 1643.7 836.722C1645.98 837.345 1648.35 837.944 1650.62 838.527C1657.63 840.315 1664.89 842.161 1671.17 844.84C1675.71 846.77 1679.06 849.132 1681.14 851.86C1683.67 855.171 1684.22 858.939 1682.77 863.073C1681.39 867.015 1678.4 871.124 1673.63 875.633C1669.86 879.193 1665.14 882.869 1658.75 887.22C1657.97 887.752 1657.17 888.293 1656.34 888.842C1653.54 890.705 1650.99 892.352 1648.21 893.558C1644.42 895.197 1640.7 895.745 1638.23 896.02C1635.75 896.294 1633.24 896.428 1630.57 896.428C1622.67 896.436 1614.94 895.172 1607.58 892.676C1601.36 890.563 1595.2 887.494 1589.28 883.543C1582.36 878.943 1577.02 873.603 1573.42 867.664C1571.31 864.196 1569.81 860.527 1568.92 856.701L1568.91 856.709ZM1581.48 815.636C1581.58 816.051 1581.63 816.476 1581.64 816.925C1581.67 818.455 1581.18 820.136 1580.65 821.733L1580.21 822.307C1577.65 825.642 1574.74 829.418 1572.38 833.494C1569.64 838.227 1568.22 842.378 1568.03 846.179C1567.67 853.881 1569.49 861.11 1573.46 867.648C1577.06 873.578 1582.4 878.91 1589.32 883.51C1595.24 887.453 1601.39 890.522 1607.6 892.635C1614.95 895.13 1622.68 896.394 1630.57 896.386C1633.24 896.386 1635.74 896.253 1638.23 895.978C1643.38 895.404 1646.38 894.298 1648.2 893.516C1650.97 892.31 1653.52 890.672 1656.32 888.808C1657.14 888.259 1657.96 887.719 1658.73 887.186C1665.11 882.836 1669.84 879.16 1673.59 875.608C1678.37 871.108 1681.35 866.999 1682.73 863.073C1684.17 858.964 1683.63 855.204 1681.11 851.902C1679.04 849.182 1675.69 846.828 1671.16 844.898C1664.88 842.22 1657.63 840.373 1650.62 838.585C1648.35 838.002 1645.98 837.404 1643.7 836.78C1636.84 834.917 1630.46 832.812 1624.73 830.508C1618.48 828.004 1612.82 825.201 1607.9 822.182C1602.6 818.929 1598.01 815.319 1594.24 811.468C1590.22 807.351 1587.04 802.826 1584.78 798.027L1584.75 797.952C1584.32 797.045 1583.88 796.113 1582.85 795.631C1581.83 795.149 1579.91 795.265 1578.47 796.28C1577.31 797.095 1576.83 798.168 1576.43 799.191C1576.11 800.04 1575.72 800.896 1575.35 801.72C1573.98 804.764 1572.68 807.642 1575.04 809.173C1575.31 809.347 1575.58 809.514 1575.84 809.68C1577.25 810.578 1578.71 811.502 1579.79 812.633C1580.67 813.556 1581.24 814.554 1581.49 815.652L1581.48 815.636Z" fill="#573610" fill-opacity="0.3" />
<path d="M1565.84 857.957C1564.89 853.915 1564.59 849.723 1564.95 845.406C1565.47 838.951 1569.56 832.297 1573.16 826.424C1574.82 823.713 1576.39 821.159 1577.53 818.772C1578.32 817.125 1578.65 815.386 1578.58 813.298C1578.5 811.452 1577.78 809.847 1576.37 808.399C1575.11 807.102 1573.42 806.045 1571.78 805.022C1571.48 804.831 1571.18 804.64 1570.87 804.448C1568.09 802.676 1569.55 799.358 1571.09 795.839C1571.5 794.899 1571.93 793.918 1572.28 792.953C1572.72 791.772 1573.26 790.532 1574.59 789.592C1576.25 788.411 1578.45 788.287 1579.62 788.836C1580.8 789.393 1581.29 790.466 1581.76 791.506L1581.8 791.597C1584.31 797.054 1587.88 802.194 1592.39 806.869C1596.63 811.244 1601.81 815.328 1607.8 819.013C1613.36 822.432 1619.77 825.592 1626.85 828.412C1633.34 830.999 1640.58 833.37 1648.36 835.457C1650.98 836.156 1653.68 836.838 1656.29 837.495C1664.23 839.492 1672.44 841.555 1679.56 844.557C1684.72 846.728 1688.53 849.398 1690.9 852.476C1693.77 856.219 1694.38 860.486 1692.72 865.161C1689.16 875.151 1676.4 884.791 1665.69 892.069C1664.83 892.652 1663.95 893.242 1662.99 893.883C1659.85 895.979 1656.99 897.817 1653.92 899.164C1649.71 901.003 1645.53 901.651 1642.75 901.976C1639.92 902.309 1637.11 902.475 1634.15 902.492C1617.87 902.591 1602.87 897.725 1588.29 887.636C1580.51 882.262 1574.56 876.224 1570.62 869.677C1568.38 865.951 1566.77 862.033 1565.82 857.974L1565.84 857.957ZM1577.58 818.797C1576.43 821.184 1574.87 823.737 1573.21 826.449C1569.61 832.322 1565.53 838.968 1565.01 845.406C1564.3 854.048 1566.21 862.2 1570.69 869.636C1574.62 876.174 1580.56 882.212 1588.34 887.578C1602.91 897.659 1617.9 902.517 1634.17 902.425C1637.13 902.408 1639.94 902.242 1642.77 901.909C1648.55 901.227 1651.9 899.98 1653.92 899.106C1656.99 897.767 1659.84 895.92 1662.99 893.833C1663.94 893.2 1664.82 892.602 1665.68 892.019C1676.39 884.741 1689.12 875.109 1692.68 865.136C1694.35 860.478 1693.73 856.219 1690.87 852.493C1688.52 849.423 1684.7 846.762 1679.55 844.591C1672.43 841.596 1664.23 839.525 1656.29 837.537C1653.68 836.88 1650.98 836.206 1648.36 835.499C1640.58 833.411 1633.34 831.041 1626.85 828.454C1619.77 825.634 1613.35 822.473 1607.79 819.046C1601.8 815.361 1596.61 811.277 1592.38 806.894C1587.86 802.219 1584.29 797.079 1581.78 791.614L1581.74 791.522C1581.26 790.491 1580.77 789.426 1579.62 788.877C1578.46 788.328 1576.28 788.461 1574.64 789.626C1573.33 790.557 1572.79 791.788 1572.36 792.969C1572 793.934 1571.58 794.908 1571.16 795.856C1569.62 799.349 1568.18 802.652 1570.92 804.407C1571.22 804.598 1571.53 804.789 1571.83 804.981C1573.47 806.004 1575.17 807.068 1576.43 808.366C1577.85 809.822 1578.58 811.435 1578.65 813.29C1578.73 815.386 1578.39 817.133 1577.6 818.788L1577.58 818.797Z" fill="#573610" fill-opacity="0.3" />
<path d="M1562.54 859.162C1561.44 854.479 1561.17 849.621 1561.73 844.614C1562.46 837.943 1566.14 831.23 1569.7 824.734C1571.44 821.573 1573.07 818.579 1574.26 815.767C1575.09 813.813 1575.46 811.775 1575.37 809.687C1575.14 805.154 1571.52 802.9 1567.69 800.512C1567.34 800.296 1566.99 800.08 1566.64 799.855C1563.34 797.768 1564.98 793.958 1566.71 789.915C1567.17 788.859 1567.64 787.761 1568.03 786.688C1568.52 785.324 1569.13 783.902 1570.66 782.804C1572.65 781.373 1575.15 781.281 1576.49 781.922C1577.87 782.579 1578.43 783.81 1578.96 785.008L1579 785.108C1588.93 807.125 1613.86 823.57 1653.11 833.984C1656.05 834.766 1659.1 835.523 1662.03 836.246C1670.91 838.45 1680.09 840.738 1688.06 844.065C1701.06 849.497 1706.33 857.74 1702.88 867.272C1698.92 878.252 1684.71 888.957 1672.78 897.05C1671.78 897.724 1670.79 898.389 1669.8 899.047C1666.18 901.459 1663.14 903.422 1659.75 904.911C1655.08 906.957 1650.42 907.705 1647.33 908.08C1644.15 908.471 1641.01 908.679 1637.76 908.704C1619.9 908.878 1603.36 903.364 1587.2 891.843C1573.6 882.169 1565.35 871.215 1562.53 859.162H1562.54ZM1574.7 815.917C1573.5 818.754 1571.86 821.756 1570.11 824.926C1566.57 831.38 1562.91 838.06 1562.19 844.647C1560.24 862.389 1568.75 878.152 1587.5 891.494C1603.58 902.956 1620.02 908.446 1637.78 908.271C1641.01 908.246 1644.12 908.038 1647.29 907.647C1650.36 907.273 1654.96 906.533 1659.57 904.511C1662.92 903.039 1665.94 901.093 1669.55 898.689C1670.54 898.032 1671.53 897.366 1672.51 896.693C1695.12 881.354 1700.38 872.845 1702.44 867.139C1704.82 860.56 1704.21 851.293 1687.86 844.464C1679.92 841.145 1670.76 838.875 1661.9 836.67C1658.96 835.938 1655.92 835.181 1652.97 834.4C1613.59 823.944 1588.55 807.425 1578.57 785.282L1578.53 785.182C1578.02 784.06 1577.5 782.895 1576.27 782.313C1575.03 781.722 1572.7 781.88 1570.94 783.145C1569.52 784.168 1568.93 785.515 1568.47 786.813C1568.08 787.902 1567.6 789 1567.15 790.065C1565.41 794.108 1563.91 797.593 1566.9 799.481C1567.25 799.697 1567.6 799.913 1567.95 800.138C1571.71 802.475 1575.6 804.888 1575.83 809.645C1575.93 811.791 1575.55 813.896 1574.69 815.909L1574.7 815.917Z" fill="#573610" fill-opacity="0.3" />
<path d="M1559.6 860.36C1559.56 860.177 1559.52 859.986 1559.48 859.803C1558.36 854.696 1558.17 849.331 1558.91 843.858C1559.83 837.062 1563.28 830.083 1566.61 823.329C1568.43 819.669 1570.13 816.209 1571.38 812.89C1572.27 810.536 1572.68 808.174 1572.57 806.044C1572.43 803.732 1571.48 801.727 1569.68 799.914C1568.06 798.292 1565.91 796.961 1563.83 795.68C1563.44 795.439 1563.04 795.189 1562.65 794.948C1559.1 792.719 1560.86 788.552 1562.72 784.143C1563.22 782.962 1563.74 781.748 1564.16 780.542C1564.68 779.061 1565.33 777.514 1566.97 776.324C1567.9 775.651 1569.07 775.185 1570.26 775.027C1571.36 774.877 1572.42 775.002 1573.16 775.359C1574.61 776.05 1575.2 777.381 1575.77 778.67L1575.82 778.778C1578.83 785.566 1583.17 791.937 1588.7 797.726C1593.88 803.141 1600.25 808.19 1607.62 812.732C1614.47 816.949 1622.38 820.834 1631.13 824.285C1639.15 827.455 1648.1 830.349 1657.73 832.886C1661.01 833.751 1664.38 834.583 1667.65 835.382C1677.45 837.794 1687.59 840.289 1696.38 843.941C1702.79 846.602 1707.53 849.863 1710.46 853.648C1714.02 858.256 1714.76 863.521 1712.66 869.285C1710.71 874.609 1706.55 880.157 1699.92 886.237C1694.85 890.879 1688.6 895.653 1679.64 901.725C1678.61 902.424 1677.54 903.139 1676.39 903.905C1673.1 906.092 1669.38 908.571 1665.43 910.309C1660.36 912.547 1655.27 913.379 1651.88 913.811C1648.4 914.252 1644.88 914.502 1641.39 914.543C1635.81 914.618 1630.27 914.152 1624.94 913.179C1620.04 912.281 1615.15 910.908 1610.42 909.112C1602.35 906.042 1594.48 901.675 1586.37 895.753C1581.84 892.443 1577.8 889.007 1574.41 885.555C1570.63 881.712 1567.48 877.703 1565.06 873.636C1562.51 869.369 1560.68 864.902 1559.63 860.352L1559.6 860.36ZM1571.43 812.907C1570.18 816.225 1568.47 819.686 1566.65 823.354C1563.32 830.1 1559.88 837.078 1558.96 843.866C1558.22 849.331 1558.41 854.688 1559.53 859.795C1559.57 859.978 1559.61 860.169 1559.65 860.352C1560.72 864.894 1562.54 869.352 1565.08 873.619C1567.5 877.687 1570.65 881.687 1574.44 885.53C1577.84 888.982 1581.86 892.409 1586.4 895.72C1594.51 901.642 1602.36 906.009 1610.43 909.078C1615.16 910.875 1620.05 912.248 1624.95 913.146C1630.28 914.127 1635.81 914.585 1641.39 914.51C1644.87 914.468 1648.39 914.219 1651.86 913.778C1658.93 912.871 1662.97 911.349 1665.4 910.285C1669.35 908.546 1673.06 906.067 1676.35 903.888C1677.51 903.114 1678.57 902.399 1679.6 901.709C1688.56 895.637 1694.81 890.862 1699.87 886.221C1706.5 880.14 1710.67 874.601 1712.61 869.285C1714.71 863.529 1713.97 858.289 1710.42 853.689C1707.49 849.913 1702.77 846.652 1696.37 843.999C1687.57 840.356 1677.44 837.86 1667.64 835.44C1664.37 834.633 1661 833.801 1657.72 832.944C1648.09 830.407 1639.13 827.513 1631.11 824.344C1622.36 820.892 1614.45 816.999 1607.6 812.782C1600.22 808.24 1593.84 803.191 1588.66 797.768C1583.12 791.979 1578.79 785.599 1575.77 778.803L1575.72 778.695C1575.16 777.414 1574.57 776.091 1573.14 775.401C1571.71 774.719 1569.02 774.894 1567 776.358C1565.37 777.539 1564.73 779.078 1564.21 780.55C1563.79 781.756 1563.27 782.97 1562.77 784.152C1560.92 788.543 1559.16 792.694 1562.68 794.898C1563.07 795.148 1563.47 795.389 1563.86 795.63C1565.95 796.92 1568.1 798.25 1569.73 799.872C1571.55 801.694 1572.5 803.707 1572.63 806.028C1572.75 808.165 1572.34 810.536 1571.44 812.898L1571.43 812.907Z" fill="#573610" fill-opacity="0.3" />
<path d="M1556.45 861.533C1556.38 861.201 1556.3 860.868 1556.23 860.527C1555.06 854.929 1554.94 849.065 1555.89 843.084C1556.99 836.147 1560.22 828.935 1563.35 821.965C1565.22 817.773 1566.99 813.813 1568.32 809.954C1569.28 807.134 1569.71 804.597 1569.56 802.418C1569.41 799.872 1568.34 797.668 1566.33 795.672C1564.53 793.892 1562.15 792.42 1559.84 791.006C1559.4 790.739 1558.96 790.465 1558.52 790.19C1554.59 787.737 1556.5 783.145 1558.52 778.279C1559.06 776.982 1559.62 775.651 1560.08 774.328C1560.64 772.698 1561.35 770.993 1563.15 769.678C1565.38 768.048 1568.35 767.857 1569.92 768.614C1571.5 769.371 1572.14 770.835 1572.76 772.249L1572.81 772.365C1576.07 779.81 1580.8 786.805 1586.83 793.152C1592.48 799.091 1599.44 804.622 1607.52 809.588C1615.01 814.196 1623.67 818.446 1633.25 822.223C1642.03 825.683 1651.84 828.835 1662.4 831.597C1666.01 832.537 1669.72 833.444 1673.32 834.325C1684.04 836.945 1695.14 839.657 1704.78 843.633C1708.06 844.989 1710.99 846.511 1713.48 848.175C1716.28 850.03 1718.55 852.076 1720.23 854.238C1724.14 859.279 1724.95 865.035 1722.61 871.348C1720.49 877.129 1715.94 883.152 1708.67 889.764C1701.67 896.136 1693.19 902.083 1686.58 906.558C1685.48 907.298 1684.33 908.072 1683.05 908.929C1679.47 911.308 1675.41 914.011 1671.15 915.899C1665.65 918.336 1660.1 919.26 1656.41 919.742C1652.59 920.241 1648.75 920.524 1644.98 920.582C1638.89 920.674 1632.87 920.175 1627.08 919.093C1621.76 918.103 1616.46 916.581 1611.34 914.585C1602.68 911.216 1594.19 906.383 1585.38 899.812C1574.76 891.902 1567.19 883.983 1562.21 875.615C1559.5 871.066 1557.57 866.333 1556.44 861.517L1556.45 861.533ZM1568.37 809.962C1567.04 813.83 1565.27 817.789 1563.39 821.982C1560.26 828.952 1557.04 836.164 1555.94 843.092C1554.99 849.065 1555.11 854.929 1556.28 860.518C1556.34 860.851 1556.42 861.192 1556.5 861.525C1557.63 866.333 1559.56 871.066 1562.26 875.615C1567.24 883.975 1574.81 891.885 1585.43 899.796C1594.23 906.359 1602.72 911.191 1611.37 914.56C1616.49 916.556 1621.79 918.07 1627.1 919.06C1632.89 920.141 1638.91 920.64 1644.99 920.549C1648.76 920.491 1652.6 920.208 1656.42 919.709C1664.12 918.694 1668.51 917.03 1671.14 915.866C1675.4 913.978 1679.45 911.283 1683.03 908.904C1684.31 908.047 1685.47 907.274 1686.56 906.533C1693.17 902.066 1701.65 896.119 1708.65 889.748C1715.91 883.143 1720.47 877.121 1722.58 871.348C1724.91 865.052 1724.11 859.312 1720.2 854.28C1718.52 852.117 1716.25 850.079 1713.47 848.225C1710.97 846.569 1708.05 845.039 1704.77 843.691C1695.14 839.724 1684.04 837.012 1673.32 834.384C1669.73 833.502 1666.01 832.595 1662.4 831.655C1651.84 828.894 1642.03 825.741 1633.25 822.281C1623.66 818.505 1615.01 814.254 1607.51 809.646C1599.43 804.672 1592.47 799.141 1586.81 793.202C1580.77 786.855 1576.06 779.851 1572.79 772.398L1572.74 772.282C1572.12 770.876 1571.48 769.421 1569.92 768.672C1568.36 767.923 1565.42 768.115 1563.2 769.737C1561.41 771.034 1560.71 772.731 1560.14 774.361C1559.69 775.684 1559.13 777.023 1558.59 778.321C1557.56 780.791 1556.59 783.128 1556.35 785.175C1556.09 787.47 1556.79 789.059 1558.56 790.174C1559 790.448 1559.45 790.723 1559.88 790.989C1562.19 792.403 1564.58 793.875 1566.38 795.664C1568.4 797.668 1569.46 799.881 1569.62 802.434C1569.76 804.622 1569.34 807.167 1568.37 809.987L1568.37 809.962Z" fill="#573610" fill-opacity="0.3" />
<path d="M1553.05 862.781C1551.52 856.185 1551.4 849.39 1552.67 842.278C1553.93 835.224 1556.95 827.83 1559.88 820.684C1561.74 816.126 1563.67 811.418 1565.06 806.952C1566.1 803.599 1566.51 801.013 1566.36 798.792C1565.94 792.703 1560.99 789.684 1555.76 786.481C1555.27 786.19 1554.79 785.891 1554.31 785.591C1549.86 782.83 1551.95 777.739 1554.17 772.357C1554.75 770.952 1555.35 769.496 1555.84 768.057C1556.46 766.244 1557.23 764.355 1559.23 762.883C1561.73 761.053 1565.05 760.837 1566.82 761.685C1568.6 762.542 1569.31 764.164 1569.99 765.736L1570.05 765.869C1576.83 781.54 1589.46 795.14 1607.58 806.286C1623.16 815.877 1643.21 823.895 1667.18 830.125C1671.11 831.148 1675.16 832.13 1679.08 833.086C1690.75 835.923 1702.81 838.851 1713.3 843.151C1723.28 847.244 1739.07 856.626 1732.81 873.478C1727.75 887.136 1711.02 899.846 1693.69 911.549C1692.41 912.414 1691.14 913.263 1689.87 914.103C1685.81 916.815 1681.6 919.61 1677 921.647C1671.04 924.292 1665.02 925.316 1661.02 925.856C1656.85 926.414 1652.69 926.738 1648.62 926.805C1618.58 927.329 1597.53 914.053 1584.31 904.022C1566.71 890.671 1556.45 877.221 1553.07 862.757L1553.05 862.781ZM1565.51 807.068C1564.11 811.551 1562.18 816.268 1560.31 820.834C1557.39 827.963 1554.38 835.332 1553.13 842.344C1549.11 864.878 1559.11 884.375 1584.6 903.706C1597.77 913.695 1618.72 926.913 1648.61 926.389C1652.65 926.322 1656.81 925.998 1660.95 925.44C1664.93 924.908 1670.9 923.885 1676.8 921.273C1681.36 919.252 1685.55 916.465 1689.6 913.762C1690.86 912.922 1692.13 912.065 1693.41 911.208C1710.67 899.547 1727.34 886.895 1732.35 873.354C1734.87 866.574 1734.01 860.394 1729.8 854.988C1726.34 850.537 1720.71 846.686 1713.09 843.567C1702.63 839.275 1690.6 836.355 1678.94 833.519C1675.02 832.571 1670.97 831.581 1667.03 830.558C1643.02 824.319 1622.91 816.276 1607.29 806.669C1589.1 795.473 1576.42 781.815 1569.6 766.061L1569.54 765.928C1568.89 764.422 1568.22 762.875 1566.58 762.093C1564.93 761.303 1561.84 761.519 1559.5 763.241C1557.61 764.63 1556.87 766.443 1556.27 768.19C1555.78 769.637 1555.17 771.101 1554.59 772.515C1552.45 777.731 1550.42 782.663 1554.57 785.233C1555.05 785.533 1555.53 785.824 1556.01 786.123C1561.12 789.243 1566.39 792.462 1566.83 798.758C1566.99 801.029 1566.56 803.666 1565.51 807.068Z" fill="#573610" fill-opacity="0.3" />
<path d="M1550.09 863.838C1549.95 863.214 1549.82 862.59 1549.7 861.967C1548.42 855.404 1548.48 848.525 1549.85 841.521C1551.24 834.443 1554.05 826.973 1556.76 819.745C1558.71 814.571 1560.71 809.223 1562.19 804.049C1563.03 801.104 1563.78 797.985 1563.57 795.14C1563.35 792.138 1562.07 789.526 1559.66 787.163C1557.5 785.051 1554.65 783.321 1551.89 781.64C1551.38 781.324 1550.83 781 1550.31 780.676C1545.61 777.773 1547.83 772.333 1550.17 766.568C1550.79 765.038 1551.43 763.457 1551.97 761.902C1552.61 759.972 1553.43 757.951 1555.54 756.404C1558.16 754.474 1561.64 754.241 1563.49 755.123C1565.34 756.013 1566.08 757.735 1566.8 759.407L1566.86 759.54C1570.62 768.315 1576.1 776.55 1583.15 784.011C1589.74 790.99 1597.89 797.486 1607.35 803.317C1616.13 808.724 1626.29 813.698 1637.54 818.106C1647.86 822.149 1659.38 825.825 1671.78 829.036C1676.05 830.134 1680.44 831.199 1684.69 832.222C1697.27 835.266 1710.29 838.41 1721.61 843.027C1725.46 844.607 1728.91 846.387 1731.85 848.325C1735.13 850.496 1737.81 852.883 1739.78 855.42C1744.39 861.326 1745.33 868.08 1742.56 875.483C1739.89 882.628 1733.96 890.123 1724.44 898.391C1716.12 905.619 1706.06 912.548 1696.42 918.969C1692.05 921.881 1687.54 924.883 1682.65 927.063C1676.29 929.891 1669.84 931.005 1665.53 931.596C1656.8 932.794 1648.24 932.993 1640.07 932.178C1632.64 931.438 1625.3 929.832 1618.24 927.404C1611.89 925.216 1605.77 922.413 1599.54 918.811C1594.27 915.775 1589.01 912.215 1583.47 907.948C1577.59 903.423 1572.68 899.123 1568.46 894.797C1563.51 889.732 1559.61 884.758 1556.55 879.592C1553.52 874.477 1551.35 869.186 1550.1 863.821L1550.09 863.838ZM1563.35 793.31C1563.49 793.901 1563.58 794.508 1563.62 795.14C1563.84 798.002 1563.08 801.121 1562.24 804.066C1560.76 809.239 1558.76 814.588 1556.81 819.761C1554.1 826.99 1551.3 834.459 1549.9 841.529C1548.53 848.525 1548.47 855.395 1549.75 861.958C1550.9 867.947 1553.2 873.878 1556.59 879.576C1559.65 884.733 1563.55 889.707 1568.48 894.772C1572.71 899.089 1577.61 903.39 1583.49 907.915C1589.04 912.19 1594.3 915.742 1599.56 918.778C1605.8 922.371 1611.91 925.183 1618.26 927.362C1625.32 929.791 1632.66 931.396 1640.08 932.137C1648.24 932.952 1656.79 932.752 1665.52 931.554C1674.5 930.323 1679.58 928.377 1682.62 927.021C1687.51 924.85 1692.03 921.839 1696.39 918.936C1706.03 912.523 1716.09 905.594 1724.41 898.366C1733.92 890.106 1739.84 882.62 1742.51 875.475C1745.27 868.08 1744.34 861.351 1739.74 855.454C1737.77 852.925 1735.1 850.538 1731.82 848.367C1728.88 846.429 1725.44 844.649 1721.58 843.068C1710.28 838.452 1697.26 835.308 1684.67 832.263C1680.42 831.24 1676.03 830.175 1671.77 829.077C1659.36 825.867 1647.83 822.19 1637.51 818.148C1626.26 813.739 1616.1 808.765 1607.32 803.35C1597.85 797.519 1589.7 791.023 1583.1 784.036C1576.05 776.566 1570.56 768.332 1566.8 759.548L1566.74 759.415C1566.02 757.751 1565.29 756.038 1563.45 755.156C1561.62 754.274 1558.17 754.507 1555.57 756.429C1553.47 757.976 1552.66 759.981 1552.02 761.902C1551.49 763.466 1550.84 765.046 1550.22 766.568C1549.03 769.496 1547.9 772.266 1547.64 774.695C1547.35 777.423 1548.21 779.303 1550.34 780.617C1550.86 780.942 1551.4 781.266 1551.92 781.582C1554.68 783.262 1557.53 784.992 1559.69 787.114C1561.61 788.993 1562.81 791.023 1563.34 793.294L1563.35 793.31Z" fill="#573610" fill-opacity="0.3" />
<path d="M1551.62 869.602C1551.03 867.032 1550.63 864.428 1550.44 861.808C1550.16 857.707 1550.38 853.457 1551.11 849.181C1552.06 843.534 1554.26 837.553 1556.39 831.764C1558.62 825.675 1560.94 819.387 1561.82 813.448C1562.48 808.998 1561.47 804.398 1560.51 800.888C1559.45 796.987 1557.59 793.285 1554.98 789.891C1554.77 789.617 1554.56 789.342 1554.34 789.076C1552.13 786.256 1550.04 783.595 1550.07 779.635C1550.07 778.87 1549.99 778.171 1549.89 777.498C1549.82 776.915 1549.75 776.358 1549.74 775.801C1548.81 774.678 1548.49 773.272 1548.75 771.525C1548.96 770.07 1549.57 768.356 1550.67 766.119C1551.48 764.538 1552.41 762.916 1553.39 761.186C1554.58 759.115 1555.8 756.969 1556.85 754.856C1557.99 752.585 1559.2 750.398 1561.51 748.634C1562.56 747.828 1563.74 747.187 1565.01 746.738C1567.35 745.765 1569.09 745.856 1569.79 746.996C1571.32 748.002 1571.87 749.766 1572.4 751.471C1572.43 751.579 1572.47 751.687 1572.5 751.787C1574.18 757.094 1576.54 762.268 1579.51 767.167C1583.75 774.146 1589.62 780.55 1596.94 786.19C1599.86 788.436 1603.13 790.731 1606.95 793.202C1617.23 799.84 1628.53 805.903 1640.56 811.218C1652.61 816.542 1665.48 821.167 1678.83 824.96C1685.52 826.84 1692.48 828.578 1699.23 830.258C1703.45 831.315 1707.82 832.404 1712.06 833.519C1717.06 834.825 1723.6 836.605 1729.85 838.726C1735.82 840.755 1740.85 843.109 1744.81 845.738C1748.88 848.458 1751.49 851.011 1753 853.79C1755.33 858.057 1756.07 861.908 1755.32 865.909C1755.28 866.133 1755.22 866.366 1755.15 866.608C1755.07 866.932 1754.99 867.256 1754.94 867.589C1753.69 876.98 1747.85 886.163 1737.1 895.662C1726.97 904.604 1713.88 912.581 1702.42 919.202C1697.01 922.329 1690.88 925.873 1684.86 928.476C1680.25 930.456 1675.83 931.887 1672.9 932.793C1672.56 932.901 1672.21 933.01 1671.87 933.118C1669.18 933.958 1666.41 934.823 1663.68 935.239C1658.63 936.021 1653.59 936.42 1648.7 936.437C1644.11 936.453 1639.51 936.129 1635.04 935.463C1626.96 934.274 1619.16 932.036 1611.16 928.609C1602.34 924.833 1593.59 919.609 1584.43 912.647C1576.46 906.592 1570.15 900.794 1565.14 894.93C1562.26 891.553 1559.77 888.101 1557.75 884.657C1555.56 880.948 1553.84 877.13 1552.63 873.295C1552.24 872.064 1551.9 870.816 1551.61 869.56L1551.62 869.602ZM1561.13 803.125C1561.87 806.244 1562.41 809.896 1561.87 813.464C1560.99 819.403 1558.67 825.7 1556.44 831.789C1554.31 837.57 1552.11 843.55 1551.16 849.198C1550.43 853.474 1550.21 857.716 1550.49 861.808C1550.77 865.701 1551.51 869.577 1552.7 873.32C1553.91 877.146 1555.63 880.964 1557.81 884.674C1559.83 888.118 1562.32 891.57 1565.2 894.938C1570.21 900.803 1576.52 906.592 1584.48 912.647C1593.63 919.601 1602.37 924.825 1611.19 928.601C1619.18 932.02 1626.99 934.266 1635.05 935.447C1639.53 936.104 1644.12 936.428 1648.72 936.412C1653.6 936.395 1658.64 935.996 1663.69 935.214C1666.41 934.798 1669.06 933.966 1671.87 933.093C1672.21 932.985 1672.56 932.876 1672.9 932.768C1675.83 931.862 1680.25 930.431 1684.86 928.451C1690.88 925.848 1697.01 922.304 1702.41 919.185C1713.87 912.564 1726.95 904.596 1737.08 895.654C1747.83 886.163 1753.66 876.988 1754.9 867.614C1754.94 867.281 1755.04 866.949 1755.12 866.632C1755.19 866.391 1755.24 866.167 1755.29 865.942C1756.03 861.95 1755.3 858.107 1752.97 853.856C1751.46 851.086 1748.87 848.533 1744.8 845.821C1740.85 843.193 1735.82 840.839 1729.86 838.809C1723.61 836.68 1717.08 834.908 1712.08 833.602C1707.83 832.487 1703.47 831.398 1699.24 830.341C1692.5 828.661 1685.53 826.914 1678.85 825.043C1665.5 821.242 1652.62 816.617 1640.57 811.293C1628.54 805.978 1617.23 799.914 1606.95 793.268C1603.14 790.798 1599.86 788.502 1596.94 786.256C1589.61 780.609 1583.74 774.204 1579.49 767.217C1576.52 762.317 1574.15 757.135 1572.47 751.829C1572.44 751.72 1572.41 751.612 1572.38 751.512C1571.84 749.807 1571.29 748.052 1569.77 747.054C1569.1 745.931 1567.38 745.84 1565.06 746.804C1563.8 747.254 1562.62 747.886 1561.58 748.693C1559.27 750.448 1558.07 752.627 1556.94 754.898C1555.88 757.011 1554.66 759.157 1553.48 761.228C1552.5 762.95 1551.57 764.58 1550.75 766.152C1549.65 768.381 1549.05 770.095 1548.83 771.542C1548.57 773.28 1548.9 774.67 1549.81 775.792V775.809C1549.81 776.366 1549.89 776.924 1549.97 777.506C1550.06 778.18 1550.15 778.887 1550.14 779.652C1550.12 783.595 1552.2 786.248 1554.41 789.06C1554.63 789.334 1554.83 789.6 1555.05 789.875C1557.66 793.277 1559.52 796.978 1560.59 800.888C1560.78 801.595 1560.98 802.343 1561.16 803.125H1561.13Z" fill="#573610" fill-opacity="0.3" />
<path d="M1552.78 875.292C1552.28 873.171 1551.93 871.025 1551.73 868.879C1551.36 864.977 1551.47 860.935 1552.04 856.876C1552.75 851.785 1554.63 846.362 1556.45 841.122C1558.57 835.025 1560.77 828.72 1561.13 822.88C1561.43 818.015 1559.5 812.924 1557.64 808.008C1557.47 807.567 1557.3 807.126 1557.14 806.685C1554.77 800.38 1551.56 795.182 1549.29 791.938C1549.11 791.697 1548.95 791.455 1548.77 791.214C1547.44 789.359 1546.07 787.43 1545.44 785.15C1545.4 785.009 1545.36 784.868 1545.33 784.726C1544.77 782.289 1545.1 779.661 1546.35 776.699C1546.59 776.1 1546.83 775.518 1547.05 774.944C1547.61 773.539 1548.12 772.216 1548.86 770.968C1548.86 770.927 1548.84 770.877 1548.83 770.827C1548.19 768.082 1549.99 764.597 1552.9 760.222C1553.56 759.282 1554.23 758.333 1554.95 757.335C1557.16 754.233 1559.46 751.022 1561.45 747.853C1563.11 745.216 1564.69 742.879 1567.19 740.907C1568.38 739.976 1569.67 739.194 1571.02 738.595C1572.82 737.647 1574.2 737.347 1575 737.713C1575.44 737.913 1575.7 738.32 1575.78 738.911C1577 740.017 1577.38 741.806 1577.74 743.544C1577.78 743.727 1577.81 743.902 1577.85 744.085C1579.08 749.799 1581.03 755.148 1583.82 760.43C1587.75 767.899 1593.75 774.537 1601.66 780.151C1605.35 782.78 1609.31 785.242 1612.34 787.097C1624.36 794.417 1635.68 800.564 1646.94 805.887C1659.97 812.051 1672.61 816.975 1685.6 820.951C1696.63 824.328 1708.16 827.114 1719.3 829.809L1720.42 830.084C1726.48 831.548 1732.2 832.929 1737.82 834.492C1744.14 836.247 1749.51 838.252 1753.79 840.473C1757.24 842.27 1761.04 844.507 1763.08 847.452C1765.39 850.762 1767.43 854.064 1767.2 858.165C1767.19 858.365 1767.16 858.573 1767.12 858.789C1767.07 859.105 1767.02 859.429 1767.04 859.754C1767.16 862.906 1766.83 866.042 1766.06 869.07C1765.33 871.973 1764.17 874.876 1762.63 877.696C1759.73 882.969 1755.49 888.035 1749.66 893.184C1738.49 903.04 1723.1 911.649 1708.14 919.485C1701.5 922.97 1693.96 926.913 1686.8 929.94C1682.19 931.887 1677.79 933.484 1673.89 934.89C1673.43 935.056 1672.97 935.222 1672.51 935.389C1671.72 935.68 1670.91 935.988 1670.13 936.287C1667.33 937.352 1664.44 938.45 1661.55 938.932C1656.69 939.739 1651.85 940.163 1647.12 940.196C1642.72 940.23 1638.29 939.922 1633.96 939.281C1626.3 938.142 1618.77 935.979 1610.96 932.66C1602.41 929.025 1593.96 924.043 1585.11 917.422C1577.42 911.658 1571.3 906.126 1566.41 900.495C1563.6 897.276 1561.18 893.974 1559.18 890.688C1557.04 887.153 1555.32 883.501 1554.09 879.85C1553.58 878.344 1553.15 876.822 1552.78 875.283V875.292ZM1561.18 822.88C1560.82 828.728 1558.62 835.033 1556.5 841.13C1554.68 846.37 1552.8 851.785 1552.09 856.876C1551.52 860.935 1551.42 864.977 1551.78 868.87C1552.13 872.58 1552.92 876.273 1554.14 879.842C1555.37 883.493 1557.09 887.136 1559.23 890.672C1561.23 893.957 1563.65 897.259 1566.46 900.47C1571.35 906.101 1577.47 911.633 1585.15 917.397C1593.99 924.018 1602.44 929.001 1610.98 932.627C1618.79 935.946 1626.31 938.109 1633.97 939.248C1638.3 939.889 1642.73 940.196 1647.12 940.163C1651.84 940.13 1656.69 939.706 1661.54 938.899C1664.43 938.416 1667.32 937.318 1670.11 936.262C1670.89 935.963 1671.7 935.655 1672.5 935.364C1672.95 935.197 1673.41 935.031 1673.88 934.865C1677.76 933.459 1682.17 931.854 1686.78 929.915C1693.95 926.896 1701.47 922.945 1708.11 919.468C1723.07 911.633 1738.45 903.032 1749.62 893.175C1755.44 888.026 1759.68 882.969 1762.58 877.704C1764.12 874.892 1765.28 871.99 1766.01 869.095C1766.78 866.067 1767.11 862.94 1766.99 859.787C1766.98 859.463 1767.03 859.138 1767.07 858.814C1767.11 858.598 1767.14 858.39 1767.15 858.19C1767.37 854.098 1765.34 850.804 1763.04 847.502C1761.01 844.574 1757.21 842.336 1753.76 840.539C1749.49 838.327 1744.12 836.314 1737.81 834.567C1732.19 832.995 1726.47 831.614 1720.41 830.159L1719.29 829.884C1708.15 827.189 1696.62 824.403 1685.58 821.017C1672.6 817.041 1659.95 812.109 1646.92 805.945C1635.65 800.613 1624.33 794.466 1612.31 787.155C1609.27 785.3 1605.31 782.838 1601.61 780.21C1593.71 774.587 1587.7 767.949 1583.76 760.471C1581.15 755.53 1579.28 750.531 1578.05 745.233C1577.96 744.858 1577.87 744.484 1577.8 744.11C1577.75 743.927 1577.72 743.752 1577.68 743.569C1577.31 741.839 1576.94 740.051 1575.73 738.953V738.936C1575.66 738.354 1575.4 737.963 1574.98 737.772C1574.2 737.414 1572.83 737.713 1571.05 738.653C1569.69 739.252 1568.4 740.026 1567.22 740.957C1564.73 742.92 1563.15 745.258 1561.49 747.886C1559.5 751.055 1557.21 754.266 1554.99 757.369C1554.28 758.367 1553.6 759.315 1552.94 760.255C1550.04 764.622 1548.24 768.09 1548.88 770.819C1548.89 770.868 1548.91 770.918 1548.91 770.968V770.985C1548.17 772.224 1547.65 773.555 1547.1 774.961C1546.88 775.527 1546.64 776.117 1546.4 776.716C1545.07 779.844 1544.78 782.597 1545.49 785.134C1546.12 787.405 1547.49 789.326 1548.82 791.181C1549 791.422 1549.16 791.663 1549.34 791.905C1551.62 795.157 1554.83 800.347 1557.19 806.661C1557.36 807.101 1557.53 807.542 1557.69 807.983C1559.56 812.907 1561.49 818.006 1561.19 822.88H1561.18Z" fill="#573610" fill-opacity="0.3" />
<path d="M1553.53 880.831C1552.29 875.516 1551.96 870.018 1552.58 864.403C1553.08 859.679 1554.68 854.638 1556.24 849.772C1558.12 843.858 1560.06 837.745 1560.05 832.155C1560.04 826.881 1557.61 821.583 1555.03 815.977C1554.48 814.779 1553.91 813.539 1553.37 812.308C1550.02 804.672 1546 798.035 1543.2 793.809C1542.99 793.501 1542.78 793.185 1542.58 792.878C1541 790.549 1539.38 788.136 1538.93 785.142C1538.69 783.528 1538.8 781.873 1539.28 780.085C1539.81 778.08 1540.77 775.959 1542.23 773.605C1543.92 770.877 1545.5 768.298 1547.61 765.986C1548.06 762.642 1551.23 758.491 1554.72 754.183C1558.19 750.14 1562.2 745.374 1565.64 740.699C1567.49 738.196 1569.57 735.351 1572.47 733.039C1573.79 731.982 1575.19 731.059 1576.64 730.319C1578.7 729.079 1580.12 728.655 1580.85 729.054C1581.3 729.295 1581.47 729.844 1581.4 730.685C1582.32 731.874 1582.52 733.604 1582.73 735.434C1582.76 735.7 1582.78 735.966 1582.82 736.241C1583.57 742.296 1585.18 747.961 1587.73 753.55C1589.55 757.543 1592.06 761.328 1595.2 764.805C1598.23 768.173 1601.86 771.259 1605.98 773.971C1609.51 776.3 1613.22 778.463 1617.34 780.842C1629.75 787.978 1641 794.375 1652.95 800.389C1666.74 807.318 1679.51 812.683 1691.98 816.8C1701.74 820.011 1712.91 823.014 1726.15 825.966C1729.39 826.69 1732.65 827.38 1735.81 828.046C1738.97 828.72 1742.26 829.41 1745.41 830.117C1752.22 831.623 1757.77 833.245 1762.39 835.058C1766.77 836.805 1770.57 838.46 1772.78 840.964C1773.12 841.346 1773.47 841.737 1773.85 842.145C1775.75 844.216 1777.89 846.537 1778.54 849.331C1778.61 849.639 1778.66 849.955 1778.7 850.28V850.354C1778.75 850.779 1778.8 851.253 1778.75 851.777C1780.39 855.112 1781.27 858.498 1781.36 861.842C1781.44 865.011 1780.82 868.238 1779.5 871.432C1778.26 874.435 1776.37 877.504 1773.87 880.549C1771.55 883.393 1768.61 886.305 1765.16 889.208C1751.58 900.653 1731.35 910.917 1713.46 919.634C1704.39 924.06 1696.23 927.994 1688.33 931.271C1684.69 932.785 1681.28 934.116 1677.97 935.397C1675.76 936.254 1673.67 937.069 1671.73 937.851C1670.68 938.275 1669.64 938.732 1668.61 939.173C1665.51 940.521 1662.29 941.91 1659.02 942.484C1654.36 943.299 1649.7 943.74 1645.16 943.79C1640.94 943.831 1636.68 943.549 1632.51 942.925C1625.21 941.843 1617.97 939.764 1610.37 936.561C1602.1 933.076 1593.92 928.327 1585.4 922.038C1577.99 916.574 1572.07 911.292 1567.28 905.893C1564.56 902.824 1562.18 899.68 1560.22 896.544C1558.11 893.175 1556.4 889.707 1555.14 886.23C1554.5 884.458 1553.96 882.653 1553.54 880.831H1553.53ZM1559.51 827.472C1559.88 829.044 1560.1 830.599 1560.1 832.155C1560.11 837.753 1558.16 843.867 1556.28 849.781C1554.73 854.655 1553.13 859.687 1552.63 864.403C1551.81 871.931 1552.67 879.268 1555.18 886.205C1556.44 889.682 1558.15 893.15 1560.25 896.511C1562.22 899.647 1564.59 902.791 1567.31 905.852C1572.1 911.25 1578.03 916.524 1585.44 921.988C1593.96 928.268 1602.11 933.018 1610.39 936.503C1617.98 939.706 1625.22 941.785 1632.51 942.866C1636.68 943.482 1640.94 943.773 1645.15 943.731C1649.69 943.682 1654.36 943.241 1659 942.426C1662.26 941.852 1665.47 940.463 1668.58 939.123C1669.6 938.683 1670.65 938.225 1671.7 937.801C1673.64 937.019 1675.72 936.204 1677.93 935.347C1681.23 934.058 1684.65 932.735 1688.29 931.221C1696.19 927.944 1704.34 924.018 1713.42 919.593C1731.31 910.876 1751.53 900.62 1765.11 889.174C1768.56 886.271 1771.49 883.36 1773.82 880.515C1776.31 877.479 1778.2 874.41 1779.44 871.407C1780.75 868.221 1781.37 865.002 1781.29 861.842C1781.2 858.506 1780.33 855.121 1778.68 851.794V851.785C1778.73 851.261 1778.68 850.779 1778.64 850.363V850.288C1778.3 847.086 1775.9 844.474 1773.79 842.178C1773.42 841.77 1773.06 841.379 1772.72 840.997C1770.52 838.501 1766.72 836.855 1762.34 835.108C1757.73 833.294 1752.18 831.672 1745.38 830.167C1742.22 829.46 1738.94 828.77 1735.77 828.096C1732.61 827.43 1729.35 826.732 1726.12 826.016C1712.88 823.063 1701.7 820.061 1691.95 816.85C1679.47 812.733 1666.7 807.368 1652.91 800.439C1640.95 794.433 1629.71 788.028 1617.3 780.892C1613.18 778.513 1609.47 776.35 1605.94 774.021C1601.81 771.309 1598.18 768.215 1595.15 764.846C1592.02 761.369 1589.5 757.585 1587.68 753.584C1585.12 747.986 1583.52 742.313 1582.76 736.258C1582.73 735.991 1582.69 735.717 1582.67 735.451C1582.46 733.621 1582.26 731.899 1581.34 730.718V730.701C1581.42 729.878 1581.25 729.345 1580.82 729.112C1580.11 728.713 1578.71 729.137 1576.66 730.368C1575.22 731.117 1573.81 732.024 1572.5 733.088C1569.61 735.401 1567.53 738.237 1565.68 740.741C1562.24 745.416 1558.23 750.182 1554.77 754.224C1551.27 758.533 1548.11 762.675 1547.66 766.011V766.027C1545.55 768.34 1543.97 770.918 1542.28 773.647C1540.82 776.001 1539.87 778.113 1539.34 780.11C1538.86 781.89 1538.75 783.537 1538.99 785.15C1539.03 785.458 1539.09 785.757 1539.16 786.049C1539.77 788.627 1541.22 790.782 1542.64 792.869C1542.84 793.177 1543.05 793.485 1543.26 793.801C1546.05 798.026 1550.09 804.664 1553.43 812.308C1553.97 813.539 1554.53 814.779 1555.09 815.977C1556.91 819.936 1558.66 823.737 1559.53 827.489L1559.51 827.472Z" fill="#573610" fill-opacity="0.3" />
<path d="M1554.11 886.619C1553.02 881.969 1552.65 877.17 1553.01 872.287C1553.32 867.871 1554.64 863.146 1555.92 858.579C1557.51 852.923 1559.15 847.076 1558.86 841.777C1558.53 835.855 1555.44 829.883 1552.16 823.561C1551.27 821.839 1550.35 820.059 1549.49 818.287C1546.22 811.417 1542.02 803.931 1537.01 796.045C1536.77 795.663 1536.52 795.28 1536.27 794.906C1534.44 792.094 1532.54 789.191 1532.28 785.465C1532.14 783.46 1532.48 781.381 1533.32 779.127C1534.25 776.59 1535.78 773.886 1537.99 770.867C1540.18 767.864 1542.88 764.387 1546.23 761.36C1547.87 757.625 1551.84 753.391 1556.44 748.492C1561.4 743.459 1565.99 738.419 1569.72 733.902L1569.8 733.811C1572.16 730.949 1574.6 727.996 1577.63 725.518C1579.08 724.328 1580.6 723.28 1582.13 722.382C1584.41 720.876 1585.91 720.319 1586.58 720.735C1587.03 721.009 1587.12 721.708 1586.86 722.798C1587.51 724.054 1587.56 725.784 1587.61 727.605C1587.62 727.971 1587.63 728.354 1587.65 728.72C1587.91 735.117 1589.18 741.089 1591.51 747.003C1594.81 755.362 1601.26 762.665 1610.16 768.122C1613.53 770.193 1617.13 772.165 1620.63 774.069C1621.15 774.352 1621.67 774.643 1622.2 774.926C1627.38 777.754 1632.61 780.699 1637.66 783.544C1656.53 794.174 1676.05 805.162 1698.21 812.972C1708.84 816.715 1720.49 819.901 1732.85 822.438C1738.7 823.636 1744.6 824.651 1750.31 825.632C1751.16 825.774 1752 825.923 1752.84 826.065C1760.37 827.346 1766.08 828.585 1770.83 829.974L1771.4 830.14C1775.55 831.347 1779.86 832.594 1782.33 834.807C1782.94 835.356 1783.68 835.913 1784.45 836.512C1786.73 838.259 1789.3 840.238 1790.04 842.717V842.742C1790.17 843.141 1790.31 843.599 1790.31 844.14C1792.71 847.908 1794.21 851.726 1794.74 855.485C1795.25 859.054 1794.91 862.672 1793.73 866.24C1790.56 875.806 1781.42 885.38 1765.78 895.494C1752.08 904.361 1735.02 912.571 1718.63 920.124C1709.6 924.291 1699.17 929.066 1689.72 932.942C1687.05 934.04 1684.47 935.071 1681.98 936.069C1677.93 937.691 1674.12 939.222 1670.8 940.669C1669.55 941.21 1668.3 941.809 1667.09 942.374C1663.62 944.013 1660.03 945.71 1656.35 946.383C1651.89 947.199 1647.42 947.648 1643.06 947.706C1639.01 947.764 1634.93 947.49 1630.9 946.899C1623.95 945.876 1616.99 943.88 1609.63 940.81C1601.62 937.467 1593.75 932.958 1585.55 927.011C1578.43 921.846 1572.69 916.822 1568 911.656C1565.36 908.745 1563.04 905.759 1561.11 902.773C1559.04 899.579 1557.33 896.285 1556.05 892.974C1555.25 890.895 1554.59 888.782 1554.09 886.636L1554.11 886.619ZM1558.34 837.951C1558.64 839.224 1558.84 840.496 1558.91 841.769C1559.2 847.076 1557.56 852.923 1555.97 858.588C1554.69 863.154 1553.37 867.879 1553.06 872.287C1552.54 879.416 1553.57 886.37 1556.12 892.932C1557.4 896.235 1559.1 899.529 1561.17 902.723C1563.1 905.709 1565.42 908.695 1568.06 911.598C1572.74 916.763 1578.48 921.779 1585.6 926.944C1593.8 932.883 1601.67 937.4 1609.67 940.736C1617.03 943.805 1623.99 945.801 1630.93 946.824C1634.94 947.415 1639.03 947.689 1643.07 947.631C1647.43 947.573 1651.89 947.124 1656.35 946.309C1660.03 945.635 1663.61 943.938 1667.08 942.299C1668.29 941.725 1669.54 941.135 1670.79 940.586C1674.11 939.139 1677.93 937.608 1681.97 935.986C1684.46 934.988 1687.04 933.965 1689.71 932.859C1699.16 928.982 1709.58 924.216 1718.62 920.049C1735.01 912.496 1752.07 904.286 1765.76 895.42C1781.39 885.305 1790.53 875.748 1793.69 866.19C1794.87 862.63 1795.21 859.02 1794.7 855.46C1794.17 851.709 1792.68 847.899 1790.27 844.131V844.123C1790.27 843.591 1790.13 843.133 1790.01 842.734V842.709C1789.26 840.238 1786.69 838.267 1784.42 836.529C1783.64 835.93 1782.91 835.364 1782.3 834.823C1779.83 832.619 1775.54 831.372 1771.39 830.165L1770.82 829.999C1766.08 828.618 1760.36 827.379 1752.83 826.098C1751.99 825.957 1751.14 825.807 1750.3 825.665C1744.59 824.684 1738.69 823.669 1732.84 822.471C1720.48 819.934 1708.83 816.749 1698.19 812.997C1676.03 805.187 1656.51 794.19 1637.64 783.56C1632.58 780.715 1627.35 777.771 1622.17 774.943C1621.65 774.66 1621.13 774.369 1620.6 774.086C1617.11 772.181 1613.5 770.21 1610.13 768.139C1601.22 762.674 1594.76 755.371 1591.45 746.995C1589.12 741.081 1587.85 735.1 1587.59 728.703C1587.57 728.329 1587.56 727.955 1587.55 727.58C1587.5 725.759 1587.45 724.029 1586.81 722.781V722.764C1587.06 721.683 1586.98 721.001 1586.55 720.743C1585.89 720.344 1584.41 720.893 1582.15 722.39C1580.61 723.28 1579.1 724.337 1577.64 725.518C1574.62 727.988 1572.18 730.949 1569.82 733.802L1569.75 733.894C1566.01 738.41 1561.42 743.459 1556.46 748.492C1551.87 753.391 1547.91 757.617 1546.26 761.351C1542.91 764.396 1540.22 767.864 1538.03 770.867C1535.83 773.878 1534.3 776.581 1533.37 779.11C1532.53 781.364 1532.2 783.427 1532.33 785.432C1532.59 789.15 1534.48 792.044 1536.31 794.848C1536.55 795.222 1536.81 795.604 1537.05 795.987C1542.06 803.881 1546.26 811.367 1549.54 818.238C1550.4 820.018 1551.32 821.789 1552.2 823.511C1554.78 828.485 1557.24 833.243 1558.34 837.934V837.951Z" fill="#573610" fill-opacity="0.3" />
<path d="M1525.53 789.284C1524.37 784.293 1525.63 778.005 1533.32 768.473C1537.15 763.723 1540.67 760.097 1544.41 757.06C1546.96 753.351 1551.14 749.383 1555.97 744.783L1557.72 743.12C1563.22 738.096 1568.62 732.672 1573.36 727.424L1573.79 726.941C1576.46 723.972 1579.23 720.902 1582.37 718.299C1583.96 716.976 1585.59 715.779 1587.24 714.739C1589.87 712.876 1591.45 712.219 1592.19 712.701C1592.73 713.05 1592.76 713.899 1592.29 715.371C1592.67 716.702 1592.58 718.399 1592.48 720.187C1592.46 720.678 1592.44 721.177 1592.42 721.676C1592.19 728.389 1593.11 734.66 1595.23 740.857C1598.24 749.674 1604.8 757.185 1614.19 762.567C1617.3 764.355 1620.61 766.052 1623.82 767.699C1624.85 768.231 1625.88 768.764 1626.91 769.296C1635.46 773.73 1643.88 778.554 1652.02 783.229C1668.36 792.603 1685.26 802.293 1704.28 809.43C1715.49 813.631 1727.28 816.916 1739.35 819.195C1745.88 820.426 1752.35 821.325 1760.06 822.29C1766.41 823.071 1773.1 823.962 1779.09 825.159C1783.86 826.116 1788.15 827.596 1791.71 828.919L1791.77 828.944L1791.81 828.994C1792.56 829.95 1794.18 830.766 1795.91 831.631C1798.13 832.737 1800.43 833.885 1801.33 835.532C1801.46 835.773 1801.54 836.039 1801.63 836.322C1801.69 836.505 1801.75 836.696 1801.82 836.879C1805.72 846.769 1806.23 855.736 1803.37 864.303C1800.79 872.006 1795.54 879.201 1787.3 886.288C1772.11 899.347 1749.49 909.844 1723.66 921.231C1710.21 927.17 1699.82 931.62 1690.96 935.23C1689.57 935.796 1688.21 936.345 1686.87 936.877C1680.54 939.431 1674.57 941.843 1669.73 944.081C1668.31 944.738 1666.88 945.461 1665.49 946.16C1661.62 948.107 1657.62 950.128 1653.47 950.91C1638.42 953.771 1624.15 952.107 1608.57 945.669C1600.82 942.467 1593.22 938.183 1585.34 932.569C1570.69 922.13 1561.27 911.549 1556.54 900.229C1553.95 894.007 1552.75 887.419 1552.96 880.648C1553.08 876.489 1554.13 872.039 1555.13 867.739C1556.39 862.39 1557.69 856.859 1557.18 851.901C1556.52 845.38 1552.81 838.742 1548.89 831.706C1547.64 829.468 1546.34 827.147 1545.15 824.818C1540.04 814.77 1534.26 805.18 1530.35 798.833C1530.07 798.384 1529.79 797.943 1529.51 797.502C1527.89 794.949 1526.25 792.362 1525.53 789.292V789.284ZM1592.12 713.391C1592.08 713.2 1591.99 713.109 1591.92 713.059C1591.62 712.867 1590.64 712.867 1587.51 715.088C1585.88 716.128 1584.25 717.317 1582.68 718.623C1579.57 721.202 1576.82 724.263 1574.15 727.224L1573.71 727.707C1568.97 732.963 1563.55 738.403 1558.04 743.427L1556.3 745.091C1551.46 749.674 1547.29 753.642 1544.78 757.318L1544.73 757.368C1541.01 760.388 1537.49 763.998 1533.67 768.73C1521.44 783.911 1525.74 790.698 1529.91 797.269C1530.19 797.718 1530.47 798.159 1530.75 798.609C1534.65 804.955 1540.44 814.554 1545.56 824.619C1546.76 826.939 1548.05 829.252 1549.3 831.489C1553.24 838.559 1556.96 845.23 1557.64 851.835C1558.16 856.867 1556.84 862.432 1555.58 867.814C1554.57 872.097 1553.54 876.522 1553.42 880.64C1553.2 887.352 1554.39 893.882 1556.97 900.054C1561.66 911.308 1571.03 921.822 1585.62 932.211C1593.47 937.809 1601.05 942.076 1608.76 945.262C1624.25 951.658 1638.43 953.314 1653.39 950.469C1657.47 949.695 1661.44 947.691 1665.27 945.761C1666.66 945.062 1668.1 944.339 1669.52 943.673C1674.37 941.427 1680.35 939.015 1686.69 936.461C1688.03 935.921 1689.39 935.372 1690.78 934.815C1699.62 931.213 1710.01 926.763 1723.46 920.824C1749.26 909.445 1771.85 898.964 1786.98 885.955C1795.15 878.926 1800.36 871.798 1802.91 864.17C1805.74 855.703 1805.24 846.819 1801.38 837.029C1801.3 836.829 1801.23 836.63 1801.18 836.438C1801.09 836.172 1801.02 835.923 1800.9 835.715C1800.06 834.184 1797.83 833.07 1795.67 831.997C1793.93 831.123 1792.27 830.3 1791.45 829.293C1787.92 827.979 1783.68 826.515 1778.96 825.575C1772.99 824.386 1766.31 823.496 1759.97 822.706C1752.25 821.732 1745.77 820.834 1739.23 819.603C1727.14 817.324 1715.32 814.03 1704.09 809.821C1685.03 802.676 1668.12 792.969 1651.76 783.586C1643.62 778.92 1635.21 774.087 1626.67 769.662C1625.64 769.13 1624.61 768.597 1623.58 768.065C1620.37 766.418 1617.05 764.713 1613.93 762.916C1604.44 757.476 1597.81 749.89 1594.77 740.974C1592.64 734.727 1591.72 728.405 1591.94 721.643C1591.96 721.144 1591.99 720.636 1592.01 720.146C1592.1 718.357 1592.19 716.669 1591.81 715.404L1591.79 715.338L1591.81 715.271C1592.15 714.24 1592.19 713.674 1592.11 713.358L1592.12 713.391Z" fill="#573610" fill-opacity="0.3" />
<path d="M1518.47 790.965C1518.18 789.725 1518.02 788.411 1518.05 786.997C1518.12 784.194 1518.9 781.274 1520.45 778.08C1522.18 774.479 1524.84 770.619 1528.56 766.294C1531.63 762.717 1535.29 759.473 1538.82 756.321C1540.04 755.231 1541.3 754.108 1542.51 752.994C1543.87 751.746 1545.26 750.44 1546.74 749.059C1550.33 745.724 1554.38 741.931 1558.9 737.996C1565.02 732.848 1571.25 727.033 1576.91 721.177C1577.25 720.82 1577.6 720.462 1577.94 720.104C1580.97 716.96 1583.83 713.999 1586.99 711.337C1588.7 709.89 1590.45 708.559 1592.18 707.378C1594.91 705.332 1596.54 704.542 1597.16 704.958C1597.62 705.265 1597.52 706.23 1596.87 707.902C1597.03 709.225 1596.82 710.88 1596.6 712.627C1596.52 713.267 1596.43 713.924 1596.37 714.581C1595.64 721.643 1596.22 728.256 1598.14 734.794C1599.51 739.485 1601.91 743.811 1605.27 747.662C1608.56 751.43 1612.7 754.674 1617.6 757.302C1620.57 758.899 1623.71 760.421 1626.75 761.894C1628.14 762.567 1629.59 763.266 1630.99 763.965C1641.93 769.363 1652.38 775.56 1662.49 781.549C1677.28 790.316 1692.58 799.374 1709.77 806.203C1721.39 810.82 1733.35 814.205 1745.33 816.276C1751.44 817.324 1758.06 818.123 1766.8 818.846C1767.56 818.913 1768.34 818.971 1769.1 819.03C1775.05 819.512 1781.21 820.003 1786.82 820.676C1791.27 821.209 1795.45 822.182 1799.13 823.039C1799.6 823.147 1800.05 823.255 1800.5 823.355C1801.31 824.228 1803.35 824.869 1805.52 825.542C1808.05 826.333 1810.67 827.156 1811.81 828.462C1812.03 828.72 1812.2 829.061 1812.37 829.427C1812.42 829.518 1812.47 829.618 1812.52 829.718C1815.63 835.99 1817.41 842.078 1817.82 847.826C1818.2 853.274 1817.35 858.598 1815.28 863.655C1814.05 866.658 1812.36 869.652 1810.26 872.547C1808.25 875.317 1805.8 878.095 1802.97 880.798C1797.71 885.822 1791.1 890.705 1782.74 895.729C1767.29 905.029 1748.07 913.438 1728.07 921.947C1714.99 927.52 1702.72 932.627 1691.6 937.119L1691.26 937.252C1682.17 940.904 1674.32 944.065 1668.03 947.109C1666.43 947.882 1664.84 948.723 1663.29 949.546C1659.05 951.792 1654.66 954.113 1650.1 955.011C1642.21 956.558 1634.59 956.774 1626.81 955.651C1620.51 954.745 1614.11 952.94 1607.25 950.137C1599.78 947.084 1592.48 943.041 1584.94 937.776C1570.96 928.019 1561.81 918.046 1556.98 907.283C1554.36 901.46 1552.99 895.288 1552.9 888.942C1552.83 885.049 1553.58 880.882 1554.32 876.847C1555.25 871.798 1556.19 866.583 1555.5 861.9C1554.45 854.688 1550.12 847.302 1545.53 839.483C1543.93 836.763 1542.29 833.944 1540.76 831.107C1534.79 819.87 1528.08 808.732 1523.65 801.362C1523.34 800.855 1523.01 800.331 1522.71 799.832C1520.99 797.079 1519.25 794.259 1518.47 790.915V790.965ZM1597.36 705.39C1597.32 705.215 1597.25 705.091 1597.13 705.016C1596.53 704.616 1594.93 705.407 1592.21 707.436C1590.49 708.617 1588.74 709.948 1587.03 711.396C1583.88 714.049 1581.01 717.019 1577.98 720.154C1577.64 720.512 1577.29 720.87 1576.95 721.227C1571.29 727.083 1565.06 732.897 1558.93 738.046C1554.42 741.981 1550.36 745.765 1546.78 749.109C1545.3 750.49 1543.9 751.796 1542.54 753.043C1541.34 754.158 1540.07 755.281 1538.84 756.371C1535.31 759.515 1531.66 762.767 1528.59 766.336C1524.88 770.661 1522.22 774.512 1520.49 778.114C1518.94 781.308 1518.16 784.219 1518.1 787.014C1517.98 792.188 1520.4 796.097 1522.75 799.865C1523.06 800.364 1523.38 800.888 1523.69 801.396C1528.13 808.765 1534.83 819.895 1540.81 831.14C1542.33 833.977 1543.98 836.788 1545.57 839.508C1550.15 847.327 1554.48 854.713 1555.55 861.942C1556.24 866.633 1555.29 871.848 1554.37 876.897C1553.63 880.923 1552.87 885.09 1552.94 888.975C1553.03 895.322 1554.4 901.485 1557.02 907.299C1561.85 918.046 1570.99 928.011 1584.96 937.768C1592.5 943.033 1599.8 947.076 1607.27 950.12C1614.12 952.915 1620.51 954.72 1626.81 955.626C1634.58 956.749 1642.2 956.541 1650.08 954.994C1654.64 954.096 1659.02 951.775 1663.27 949.529C1664.81 948.706 1666.42 947.858 1668.01 947.092C1674.31 944.048 1682.16 940.895 1691.24 937.236L1691.58 937.102C1702.7 932.611 1714.97 927.504 1728.06 921.931C1748.04 913.421 1767.27 905.02 1782.72 895.721C1791.07 890.697 1797.68 885.814 1802.94 880.798C1805.76 878.095 1808.22 875.325 1810.22 872.555C1812.32 869.661 1814 866.675 1815.23 863.672C1817.3 858.623 1818.15 853.308 1817.77 847.859C1817.37 842.12 1815.59 836.04 1812.47 829.768C1812.42 829.668 1812.38 829.577 1812.33 829.477C1812.16 829.119 1812 828.786 1811.78 828.529C1810.65 827.231 1808.03 826.416 1805.51 825.626C1803.35 824.952 1801.3 824.311 1800.48 823.43C1800.03 823.33 1799.57 823.222 1799.11 823.114C1795.43 822.257 1791.26 821.292 1786.8 820.751C1781.2 820.078 1775.05 819.587 1769.08 819.104C1768.32 819.046 1767.55 818.98 1766.78 818.921C1758.05 818.198 1751.43 817.399 1745.32 816.351C1733.34 814.28 1721.36 810.886 1709.73 806.27C1692.55 799.441 1677.25 790.383 1662.45 781.616C1652.34 775.627 1641.89 769.43 1630.96 764.031C1629.55 763.333 1628.11 762.634 1626.71 761.96C1623.67 760.488 1620.53 758.966 1617.56 757.369C1612.66 754.74 1608.5 751.488 1605.21 747.712C1601.85 743.86 1599.45 739.519 1598.07 734.827C1596.15 728.289 1595.58 721.668 1596.3 714.598C1596.37 713.941 1596.45 713.275 1596.53 712.635C1596.76 710.888 1596.97 709.233 1596.8 707.919C1597.27 706.704 1597.46 705.864 1597.34 705.382L1597.36 705.39Z" fill="#573610" fill-opacity="0.3" />
<path d="M1511.14 792.735C1510.78 791.204 1510.6 789.582 1510.7 787.827C1510.86 784.625 1511.86 781.289 1513.76 777.621C1515.91 773.487 1519.13 769.054 1523.6 764.071C1528.15 759.006 1533.64 754.472 1538.96 750.081C1539.44 749.681 1539.93 749.282 1540.41 748.883C1541.92 747.627 1543.47 746.346 1545.11 744.982C1549.55 741.305 1554.57 737.138 1559.89 732.821C1566.68 727.481 1573.73 721.284 1580.27 714.896C1580.93 714.255 1581.58 713.615 1582.23 712.974C1585.37 709.888 1588.33 706.977 1591.43 704.34C1593.28 702.768 1595.14 701.296 1596.95 699.965C1599.94 697.636 1601.61 696.746 1602.22 697.154C1602.7 697.478 1602.5 698.576 1601.62 700.539C1601.59 701.853 1601.28 703.417 1600.95 705.081C1600.78 705.904 1600.62 706.753 1600.48 707.601C1599.3 714.729 1599.47 721.417 1601.01 728.021C1601.07 728.271 1601.12 728.529 1601.19 728.778C1602.42 733.694 1604.78 738.211 1608.22 742.187C1611.58 746.096 1615.91 749.39 1621.05 751.985C1623.93 753.441 1626.96 754.822 1629.9 756.169C1631.62 756.951 1633.4 757.766 1635.13 758.59C1647.96 764.645 1659.86 771.957 1671.36 779.035C1685.1 787.486 1699.31 796.228 1715.27 802.916C1720.98 805.312 1726.78 807.374 1732.5 809.055C1738.73 810.885 1745.05 812.307 1751.31 813.297C1757.76 814.312 1764.81 814.96 1773.51 815.343C1776.53 815.468 1779.59 815.576 1782.54 815.676C1786.72 815.817 1790.66 815.95 1794.54 816.142C1798.35 816.333 1801.93 816.799 1805.38 817.248C1806.75 817.431 1808.05 817.597 1809.33 817.747H1809.34C1810.17 818.471 1812.57 818.895 1815.1 819.336C1818.03 819.851 1821.06 820.384 1822.44 821.448C1822.83 821.739 1823.09 822.164 1823.37 822.613C1827.44 829.425 1829.94 836.055 1830.8 842.318C1831.61 848.249 1830.99 854.055 1828.94 859.569C1827.72 862.847 1825.96 866.107 1823.72 869.276C1821.58 872.296 1818.93 875.324 1815.83 878.276C1810.08 883.75 1802.76 889.073 1793.45 894.555C1785.57 899.188 1776.18 903.979 1764.72 909.186C1754.1 914.019 1743 918.643 1732.54 922.96C1718.76 928.658 1705.05 934.19 1692.28 939.313C1682.66 943.165 1673.43 946.916 1666.4 950.434C1664.64 951.316 1662.88 952.281 1661.17 953.221C1656.54 955.775 1651.73 958.411 1646.72 959.434C1639.23 960.957 1631.96 961.181 1624.51 960.125C1618.52 959.276 1612.4 957.571 1605.81 954.909C1598.6 951.998 1591.58 948.197 1584.37 943.273C1578.2 939.055 1572.88 934.68 1568.57 930.28C1563.64 925.248 1559.81 919.958 1557.18 914.551C1554.55 909.153 1553.01 903.372 1552.6 897.366C1552.35 893.731 1552.81 889.838 1553.27 886.079C1553.84 881.354 1554.43 876.463 1553.59 872.071C1553.51 871.68 1553.43 871.289 1553.34 870.907C1551.58 863.396 1546.89 855.635 1541.92 847.434C1539.99 844.256 1538.01 840.962 1536.16 837.635C1530.53 827.412 1524.72 817.614 1519.58 808.971C1518.58 807.283 1517.63 805.686 1516.72 804.139C1516.38 803.565 1516.02 802.983 1515.68 802.417C1513.86 799.414 1511.98 796.337 1511.13 792.718L1511.14 792.735ZM1602.39 697.528C1602.35 697.378 1602.29 697.278 1602.19 697.204C1601.61 696.813 1599.91 697.728 1596.98 700.015C1595.17 701.338 1593.32 702.81 1591.46 704.382C1588.36 707.019 1585.39 709.93 1582.26 713.016C1581.61 713.656 1580.96 714.297 1580.31 714.937C1573.76 721.334 1566.71 727.531 1559.92 732.871C1554.6 737.188 1549.58 741.355 1545.15 745.032C1543.51 746.396 1541.96 747.677 1540.44 748.933C1539.96 749.332 1539.48 749.731 1539 750.13C1533.68 754.514 1528.19 759.047 1523.64 764.113C1519.17 769.087 1515.96 773.521 1513.81 777.646C1511.91 781.306 1510.91 784.642 1510.75 787.836C1510.45 793.75 1513.13 798.158 1515.73 802.417C1516.07 802.983 1516.43 803.565 1516.77 804.139C1517.69 805.678 1518.64 807.275 1519.63 808.971C1524.76 817.614 1530.58 827.412 1536.21 837.635C1538.05 840.954 1540.04 844.248 1541.97 847.425C1546.94 855.627 1551.64 863.396 1553.4 870.915C1553.49 871.306 1553.57 871.697 1553.64 872.088C1554.49 876.48 1553.9 881.379 1553.34 886.104C1552.89 889.863 1552.41 893.756 1552.66 897.383C1553.08 903.38 1554.62 909.153 1557.24 914.551C1559.87 919.949 1563.7 925.231 1568.63 930.263C1572.93 934.664 1578.25 939.031 1584.42 943.248C1591.63 948.172 1598.64 951.973 1605.85 954.885C1612.43 957.538 1618.54 959.243 1624.54 960.092C1631.98 961.148 1639.23 960.923 1646.73 959.401C1651.74 958.386 1656.54 955.75 1661.17 953.196C1662.88 952.256 1664.64 951.291 1666.4 950.409C1673.43 946.883 1682.66 943.131 1692.28 939.28C1705.05 934.148 1718.76 928.616 1732.54 922.927C1743 918.61 1754.1 913.985 1764.72 909.153C1776.18 903.946 1785.57 899.154 1793.45 894.521C1802.75 889.048 1810.07 883.725 1815.81 878.251C1818.9 875.307 1821.56 872.279 1823.7 869.26C1825.94 866.099 1827.69 862.838 1828.91 859.569C1830.97 854.063 1831.59 848.265 1830.77 842.343C1829.91 836.088 1827.42 829.467 1823.34 822.654C1823.08 822.214 1822.81 821.789 1822.44 821.507C1821.06 820.45 1818.04 819.918 1815.12 819.402C1812.58 818.953 1810.18 818.529 1809.34 817.805C1808.05 817.655 1806.76 817.489 1805.39 817.306C1801.94 816.857 1798.38 816.391 1794.57 816.2C1790.69 816.008 1786.74 815.875 1782.56 815.734C1779.61 815.634 1776.55 815.534 1773.53 815.401C1764.84 815.019 1757.78 814.37 1751.33 813.355C1745.07 812.365 1738.73 810.943 1732.51 809.113C1726.79 807.433 1720.99 805.37 1715.28 802.974C1699.31 796.278 1685.1 787.545 1671.36 779.085C1659.86 772.015 1647.97 764.695 1635.14 758.64C1633.41 757.825 1631.63 757.009 1629.91 756.219C1626.97 754.88 1623.94 753.491 1621.06 752.035C1615.91 749.432 1611.58 746.13 1608.21 742.22C1604.77 738.236 1602.4 733.719 1601.17 728.795C1601.11 728.546 1601.05 728.288 1600.99 728.038C1599.45 721.425 1599.27 714.729 1600.45 707.593C1600.59 706.736 1600.76 705.887 1600.92 705.072C1601.26 703.409 1601.57 701.845 1601.6 700.539C1602.26 699.042 1602.53 698.035 1602.41 697.52L1602.39 697.528Z" fill="#573610" fill-opacity="0.3" />
<path d="M1503.76 794.524C1503.34 792.719 1503.15 790.79 1503.31 788.685C1503.56 785.084 1504.79 781.324 1507.05 777.19C1509.61 772.523 1513.38 767.516 1518.61 761.885C1524.21 755.854 1530.46 749.616 1538.28 744.808C1543.24 741.764 1548 737.921 1553.04 733.862C1555.55 731.84 1558.13 729.753 1560.84 727.69C1568.34 722.125 1576.2 715.537 1583.59 708.65C1584.73 707.585 1585.86 706.521 1586.96 705.489C1590.03 702.603 1592.92 699.875 1595.85 697.371C1597.79 695.699 1599.76 694.085 1601.71 692.588C1604.96 689.968 1606.68 688.987 1607.27 689.394C1607.74 689.719 1607.44 690.966 1606.36 693.212C1606.17 694.468 1605.79 695.899 1605.39 697.421C1605.12 698.469 1604.82 699.55 1604.58 700.648C1602.85 708.376 1602.75 715.621 1604.25 722.791C1604.3 723.015 1604.35 723.24 1604.4 723.464C1605.54 728.347 1607.82 732.814 1611.17 736.731C1614.62 740.774 1619.11 744.126 1624.51 746.696C1627.34 748.044 1630.31 749.325 1633.2 750.564C1635.2 751.429 1637.26 752.319 1639.27 753.226C1653.73 759.755 1666.71 768.057 1679.27 776.092C1692.25 784.401 1705.68 792.994 1720.79 799.648C1733.12 805.08 1745.07 808.573 1757.3 810.328C1763.98 811.285 1771.48 811.784 1780.23 811.842C1785.51 811.876 1790.85 811.784 1796.02 811.701C1798.08 811.668 1800.21 811.634 1802.28 811.609C1805.72 811.568 1809.02 811.734 1812.21 811.892C1814.27 812 1816.23 812.092 1818.16 812.133C1818.99 812.691 1821.68 812.882 1824.52 813.09C1827.75 813.323 1831.41 813.581 1833.06 814.437C1833.47 814.645 1833.83 814.995 1834.2 815.519C1838.99 822.398 1842.16 829.11 1843.65 835.498C1843.74 835.898 1843.83 836.289 1843.91 836.68C1844.57 839.924 1844.8 843.151 1844.6 846.278C1844.41 849.315 1843.8 852.351 1842.8 855.287C1841.6 858.83 1839.78 862.374 1837.4 865.809C1835.12 869.086 1832.26 872.372 1828.89 875.583C1822.64 881.53 1814.59 887.311 1804.29 893.266C1785.38 904.204 1761.66 914.036 1736.98 923.976C1727.49 927.802 1718.21 931.487 1709.22 935.047C1703.52 937.31 1698.14 939.439 1692.94 941.519C1681.24 946.177 1671.97 950.045 1664.73 953.779C1662.82 954.769 1660.9 955.85 1659.05 956.907C1654 959.768 1648.79 962.721 1643.31 963.869C1636.21 965.358 1629.29 965.591 1622.18 964.601C1616.49 963.811 1610.65 962.205 1604.33 959.693C1597.38 956.932 1590.66 953.355 1583.78 948.772C1577.9 944.846 1572.77 940.737 1568.56 936.57C1563.81 931.862 1560.04 926.904 1557.36 921.83C1554.72 916.814 1553 911.424 1552.27 905.81C1551.83 902.408 1552.01 898.765 1552.18 895.238C1552.39 890.896 1552.61 886.412 1551.67 882.362C1551.66 882.32 1551.65 882.287 1551.64 882.245C1549.6 873.728 1544.08 864.786 1538.23 855.312C1535.99 851.693 1533.68 847.942 1531.53 844.157C1526.39 835.074 1521.05 826.033 1516.33 818.056C1513.99 814.088 1511.77 810.337 1509.77 806.918C1509.4 806.286 1509.02 805.637 1508.63 805.013C1506.67 801.753 1504.67 798.425 1503.75 794.508L1503.76 794.524ZM1607.41 689.71C1607.38 689.577 1607.32 689.486 1607.24 689.427C1606.5 688.92 1603.74 691.008 1601.74 692.621C1599.79 694.127 1597.82 695.732 1595.88 697.404C1592.95 699.908 1590.06 702.636 1586.99 705.523C1585.89 706.554 1584.76 707.619 1583.62 708.683C1576.22 715.571 1568.36 722.158 1560.87 727.731C1558.17 729.794 1555.57 731.882 1553.06 733.903C1548.02 737.971 1543.26 741.805 1538.3 744.858C1530.48 749.658 1524.23 755.896 1518.64 761.926C1513.42 767.558 1509.64 772.557 1507.1 777.223C1504.83 781.357 1503.61 785.108 1503.35 788.702C1502.87 795.348 1505.82 800.264 1508.68 805.022C1509.06 805.645 1509.45 806.294 1509.82 806.926C1511.82 810.345 1514.04 814.096 1516.38 818.064C1521.1 826.041 1526.44 835.074 1531.58 844.166C1533.73 847.95 1536.04 851.693 1538.28 855.32C1544.13 864.794 1549.65 873.736 1551.7 882.262C1551.71 882.303 1551.72 882.337 1551.72 882.378C1552.67 886.437 1552.46 890.921 1552.24 895.263C1552.07 898.781 1551.89 902.424 1552.33 905.826C1553.06 911.441 1554.78 916.823 1557.42 921.83C1560.1 926.904 1563.86 931.853 1568.61 936.561C1572.82 940.728 1577.94 944.838 1583.82 948.755C1590.7 953.339 1597.42 956.907 1604.37 959.668C1610.68 962.18 1616.51 963.786 1622.2 964.576C1629.31 965.566 1636.21 965.325 1643.31 963.844C1648.78 962.696 1653.99 959.743 1659.03 956.89C1660.88 955.834 1662.8 954.753 1664.72 953.763C1671.96 950.028 1681.24 946.16 1692.93 941.502C1698.13 939.431 1703.51 937.293 1709.21 935.031C1718.19 931.471 1727.48 927.786 1736.97 923.96C1761.65 914.02 1785.37 904.188 1804.27 893.25C1814.56 887.294 1822.61 881.513 1828.85 875.566C1832.22 872.363 1835.09 869.078 1837.36 865.801C1839.74 862.374 1841.56 858.839 1842.75 855.295C1843.75 852.359 1844.35 849.331 1844.55 846.295C1844.75 843.168 1844.52 839.949 1843.86 836.705C1842.5 829.967 1839.23 822.855 1834.15 815.552C1833.79 815.036 1833.44 814.695 1833.03 814.487C1831.38 813.639 1827.73 813.381 1824.51 813.148C1821.66 812.94 1818.98 812.749 1818.13 812.192C1816.19 812.15 1814.25 812.05 1812.19 811.95C1808.99 811.792 1805.69 811.626 1802.26 811.668C1800.2 811.693 1798.06 811.726 1796 811.759C1790.84 811.842 1785.5 811.934 1780.21 811.9C1771.46 811.834 1763.96 811.343 1757.27 810.387C1745.04 808.632 1733.09 805.138 1720.75 799.698C1705.64 793.035 1692.2 784.443 1679.22 776.133C1666.66 768.107 1653.68 759.797 1639.23 753.276C1637.22 752.369 1635.16 751.479 1633.16 750.614C1630.27 749.375 1627.3 748.094 1624.47 746.746C1619.06 744.176 1614.56 740.816 1611.11 736.773C1607.75 732.847 1605.47 728.372 1604.33 723.481C1604.28 723.256 1604.23 723.032 1604.18 722.807C1602.67 715.621 1602.78 708.376 1604.52 700.64C1604.77 699.534 1605.05 698.452 1605.32 697.404C1605.72 695.882 1606.1 694.451 1606.3 693.195C1607.16 691.399 1607.53 690.251 1607.39 689.71H1607.41Z" fill="#573610" fill-opacity="0.3" />
<path d="M1496.38 796.319C1495.9 794.24 1495.69 792.01 1495.9 789.565C1496.27 785.564 1497.72 781.38 1500.33 776.772C1503.29 771.573 1507.63 765.992 1513.61 759.712C1521.61 751.311 1528.77 745.28 1536.13 740.747C1542.22 736.996 1548.21 732.571 1554.54 727.888C1556.89 726.149 1559.32 724.344 1561.79 722.564C1570.11 716.658 1578.57 709.871 1586.91 702.41C1588.73 700.779 1590.51 699.157 1592.23 697.585C1595.02 695.048 1597.65 692.653 1600.24 690.407C1602.33 688.602 1604.41 686.847 1606.44 685.208C1609.92 682.33 1611.73 681.232 1612.3 681.632C1612.79 681.964 1612.4 683.32 1611.08 685.882C1610.78 686.997 1610.38 688.236 1609.95 689.542C1609.51 690.881 1609.06 692.27 1608.66 693.701C1606.42 701.753 1605.97 709.314 1607.28 716.816C1609.16 727.538 1616.5 736.28 1627.95 741.421C1630.75 742.677 1633.7 743.883 1636.55 745.039C1638.8 745.954 1641.14 746.902 1643.39 747.884C1659.3 754.771 1673.14 763.979 1686.54 772.896C1698.96 781.164 1711.8 789.715 1726.29 796.402C1738.83 802.192 1750.92 805.785 1763.27 807.39C1770.23 808.289 1777.97 808.613 1786.93 808.38C1794.39 808.172 1801.79 807.681 1810 807.107C1813.19 806.891 1816.31 806.841 1819.32 806.791C1821.98 806.75 1824.48 806.708 1826.98 806.567C1827.79 806.958 1830.54 806.924 1833.72 806.891C1837.47 806.85 1841.71 806.808 1843.68 807.465C1844.2 807.64 1844.64 807.964 1845.03 808.455C1848.14 812.373 1850.75 816.282 1852.77 820.058C1854.74 823.743 1856.21 827.411 1857.14 830.963C1858.05 834.423 1858.48 837.875 1858.42 841.219C1858.36 844.472 1857.83 847.716 1856.85 850.876C1855.67 854.694 1853.79 858.512 1851.27 862.214C1848.86 865.749 1845.78 869.301 1842.13 872.777C1835.36 879.207 1826.57 885.471 1815.24 891.934C1794.34 903.87 1768.4 914.4 1741.43 925.039C1733.62 928.125 1725.89 931.136 1718.4 934.047C1709.65 937.449 1701.39 940.668 1693.61 943.763C1683.32 947.838 1671.65 952.621 1663.08 957.154C1661.02 958.244 1658.95 959.45 1656.95 960.615C1651.5 963.784 1645.87 967.053 1639.91 968.334C1633.2 969.781 1626.64 970.039 1619.87 969.116C1614.47 968.384 1608.92 966.878 1602.88 964.508C1596.18 961.887 1589.74 958.552 1583.21 954.31C1577.6 950.675 1572.68 946.832 1568.57 942.897C1563.99 938.522 1560.29 933.898 1557.56 929.14C1555.16 924.964 1553.38 920.489 1552.3 915.806C1552.18 915.299 1552.06 914.791 1551.96 914.276C1551.32 911.081 1551.2 907.679 1551.08 904.386C1550.94 900.368 1550.79 896.217 1549.7 892.458C1547.05 883.308 1540.94 873.518 1534.47 863.162C1531.95 859.119 1529.34 854.944 1526.9 850.727C1522.41 842.949 1517.91 835.355 1513.55 828.01C1509.65 821.414 1505.96 815.192 1502.82 809.744C1502.42 809.046 1502 808.338 1501.59 807.656C1499.5 804.146 1497.37 800.545 1496.38 796.336V796.319ZM1612.42 681.923C1612.4 681.806 1612.35 681.723 1612.26 681.673C1611.72 681.291 1609.88 682.43 1606.47 685.242C1604.44 686.88 1602.35 688.635 1600.27 690.44C1597.67 692.678 1595.04 695.073 1592.26 697.619C1590.54 699.191 1588.75 700.813 1586.93 702.443C1578.59 709.913 1570.14 716.692 1561.81 722.597C1559.34 724.386 1556.91 726.182 1554.56 727.921C1548.22 732.612 1542.24 737.037 1536.15 740.789C1528.78 745.322 1521.63 751.344 1513.64 759.745C1507.66 766.025 1503.32 771.598 1500.37 776.797C1497.76 781.397 1496.3 785.581 1495.95 789.565C1495.28 796.951 1498.5 802.375 1501.62 807.615C1502.02 808.297 1502.45 809.012 1502.85 809.703C1505.99 815.151 1509.67 821.381 1513.58 827.969C1517.93 835.314 1522.43 842.908 1526.92 850.685C1529.37 854.902 1531.98 859.078 1534.5 863.112C1540.96 873.476 1547.07 883.258 1549.73 892.424C1550.82 896.192 1550.97 900.351 1551.12 904.369C1551.23 907.663 1551.36 911.065 1552 914.251C1553.05 919.483 1554.92 924.482 1557.59 929.098C1560.33 933.848 1564.03 938.472 1568.59 942.839C1572.71 946.774 1577.63 950.617 1583.22 954.251C1589.76 958.485 1596.18 961.821 1602.88 964.441C1608.92 966.803 1614.47 968.309 1619.86 969.041C1626.63 969.964 1633.18 969.706 1639.89 968.259C1645.83 966.978 1651.46 963.709 1656.91 960.548C1658.91 959.384 1660.98 958.178 1663.05 957.088C1671.62 952.555 1683.3 947.772 1693.59 943.696C1701.36 940.602 1709.62 937.391 1718.38 933.981C1725.86 931.069 1733.59 928.058 1741.41 924.972C1768.38 914.334 1794.31 903.803 1815.21 891.867C1826.52 885.404 1835.31 879.141 1842.08 872.719C1845.73 869.251 1848.81 865.699 1851.21 862.164C1853.74 858.462 1855.61 854.644 1856.79 850.835C1857.76 847.682 1858.29 844.438 1858.35 841.186C1858.42 837.842 1857.98 834.39 1857.08 830.938C1856.15 827.387 1854.67 823.718 1852.7 820.042C1850.68 816.265 1848.08 812.364 1844.97 808.447C1844.59 807.964 1844.15 807.64 1843.64 807.465C1841.69 806.808 1837.45 806.85 1833.7 806.891C1830.52 806.924 1827.77 806.958 1826.95 806.567C1824.45 806.708 1821.94 806.75 1819.29 806.791C1816.27 806.841 1813.16 806.891 1809.97 807.107C1801.77 807.681 1794.37 808.172 1786.91 808.38C1777.95 808.621 1770.21 808.297 1763.23 807.39C1750.89 805.785 1738.78 802.192 1726.24 796.402C1711.75 789.706 1698.91 781.164 1686.48 772.887C1673.09 763.979 1659.25 754.763 1643.34 747.884C1641.09 746.911 1638.76 745.962 1636.5 745.039C1633.65 743.883 1630.7 742.685 1627.9 741.421C1616.44 736.272 1609.09 727.522 1607.2 716.783C1605.89 709.272 1606.34 701.703 1608.58 693.651C1608.98 692.22 1609.44 690.831 1609.88 689.492C1610.31 688.186 1610.71 686.947 1611.01 685.832C1612.07 683.753 1612.54 682.447 1612.4 681.889L1612.42 681.923Z" fill="#573610" fill-opacity="0.3" />
<path d="M1488.79 798.174C1488.23 795.803 1488.01 793.25 1488.31 790.438C1489.28 781.181 1495.87 770.384 1508.47 757.425C1516.97 748.666 1525.28 741.837 1533.89 736.538C1542.44 731.273 1551 725.342 1560.06 719.062L1562.62 717.291C1571.68 711.11 1580.93 703.957 1590.08 696.038C1592.95 693.56 1595.69 691.122 1598.33 688.768C1600.48 686.855 1602.51 685.042 1604.5 683.312C1606.73 681.357 1608.93 679.469 1611.04 677.697C1615.59 673.854 1616.9 673.33 1617.47 673.73C1617.9 674.037 1618.02 674.844 1615.98 678.654C1615.67 679.502 1615.31 680.442 1614.92 681.415C1614.25 683.146 1613.54 684.934 1612.93 686.822C1610.18 695.165 1609.39 703.009 1610.51 710.819C1612.11 721.974 1619.55 730.907 1631.47 735.973C1634.26 737.162 1637.2 738.293 1640.03 739.383C1642.53 740.34 1645.1 741.338 1647.58 742.361C1664.86 749.531 1679.42 759.612 1693.5 769.361C1705.48 777.645 1717.86 786.221 1731.87 792.975C1744.56 799.097 1756.79 802.782 1769.24 804.246C1776.45 805.086 1784.42 805.236 1793.6 804.704C1801.92 804.213 1810.43 803.265 1817.67 802.391C1820.73 802.034 1823.76 801.809 1826.68 801.593C1829.82 801.36 1832.77 801.144 1835.75 800.778H1835.85C1836.58 800.994 1839.47 800.778 1842.53 800.528C1846.95 800.179 1851.97 799.788 1854.33 800.279C1854.99 800.42 1855.56 800.744 1856.01 801.252C1870.3 817.28 1875.28 832.036 1871.24 846.36C1866.95 861.548 1852.28 876.046 1826.39 890.686C1803.33 903.72 1774.01 915.415 1745.95 926.278C1738.77 929.057 1731.65 931.785 1724.76 934.422C1713.97 938.547 1703.79 942.44 1694.35 946.175C1684.03 950.259 1670.96 955.591 1661.52 960.69C1659.32 961.879 1657.1 963.193 1654.95 964.466C1649.08 967.951 1643.01 971.545 1636.56 972.984C1621.68 976.286 1609.33 972.576 1601.33 969.498C1594.95 967.045 1588.62 963.85 1582.51 959.999C1571.35 952.971 1562.96 945.077 1557.57 936.543C1554.88 932.301 1552.83 927.676 1551.44 922.793C1550.58 919.782 1550.15 916.58 1549.74 913.494C1549.24 909.884 1548.74 906.141 1547.56 902.722C1544.19 892.965 1537.5 882.277 1530.42 870.964C1527.65 866.547 1524.8 861.981 1522.09 857.381C1518.42 851.126 1514.72 844.912 1511.13 838.89C1505.44 829.325 1500.06 820.291 1495.7 812.639C1495.27 811.882 1494.83 811.125 1494.38 810.368C1492.15 806.583 1489.88 802.707 1488.82 798.174H1488.79ZM1617.25 674.204C1617.23 674.129 1617.21 674.096 1617.18 674.079C1616.94 673.913 1615.87 674.195 1611.36 678.013C1609.25 679.785 1607.05 681.673 1604.82 683.62C1602.84 685.35 1600.81 687.163 1598.65 689.076C1596.01 691.43 1593.27 693.867 1590.4 696.346C1581.23 704.273 1571.97 711.435 1562.89 717.632L1560.33 719.403C1551.26 725.683 1542.69 731.622 1534.13 736.888C1525.57 742.169 1517.28 748.974 1508.8 757.699C1490.03 777.022 1487.04 788.8 1489.19 797.966C1490.23 802.449 1492.5 806.309 1494.76 810.135C1495.21 810.9 1495.65 811.657 1496.09 812.414C1500.45 820.059 1505.82 829.092 1511.52 838.657C1515.1 844.671 1518.8 850.893 1522.47 857.148C1525.18 861.74 1528.04 866.306 1530.81 870.723C1537.9 882.052 1544.6 892.757 1547.98 902.564C1549.17 906.024 1549.69 909.776 1550.18 913.411C1550.59 916.488 1551.02 919.674 1551.87 922.66C1553.24 927.501 1555.29 932.093 1557.95 936.301C1563.31 944.786 1571.66 952.638 1582.76 959.625C1588.84 963.451 1595.15 966.637 1601.51 969.082C1609.44 972.135 1621.71 975.82 1636.45 972.551C1642.82 971.137 1648.86 967.56 1654.7 964.092C1656.85 962.819 1659.08 961.496 1661.29 960.307C1670.75 955.2 1683.84 949.851 1694.17 945.767C1703.61 942.024 1713.8 938.131 1724.58 934.006C1731.47 931.369 1738.61 928.641 1745.77 925.863C1773.81 915.008 1803.11 903.321 1826.15 890.303C1851.93 875.73 1866.53 861.324 1870.79 846.252C1874.79 832.078 1869.84 817.447 1855.65 801.534C1855.27 801.102 1854.78 800.827 1854.21 800.703C1851.92 800.229 1846.72 800.636 1842.55 800.961C1839.24 801.218 1836.62 801.426 1835.74 801.21C1832.76 801.576 1829.82 801.792 1826.69 802.025C1823.77 802.242 1820.75 802.458 1817.7 802.824C1810.46 803.689 1801.93 804.645 1793.61 805.136C1784.39 805.669 1776.39 805.519 1769.16 804.679C1756.65 803.215 1744.37 799.513 1731.63 793.366C1717.6 786.596 1705.19 778.011 1693.21 769.718C1679.14 759.986 1664.6 749.922 1647.36 742.76C1644.89 741.729 1642.32 740.739 1639.83 739.782C1636.99 738.693 1634.05 737.561 1631.25 736.364C1619.19 731.231 1611.65 722.182 1610.03 710.877C1608.91 703.009 1609.7 695.098 1612.47 686.689C1613.09 684.792 1613.8 682.996 1614.47 681.266C1614.86 680.292 1615.22 679.361 1615.54 678.487C1617.17 675.46 1617.31 674.503 1617.23 674.204H1617.25Z" fill="#573610" fill-opacity="0.3" />
<path d="M1481.62 799.93C1481.01 797.302 1480.77 794.474 1481.14 791.346C1481.7 786.547 1483.59 781.523 1486.93 775.975C1490.63 769.794 1496.26 762.874 1503.64 755.396C1511.48 747.452 1520.99 739.8 1531.89 732.655C1536.55 729.594 1541.27 726.633 1546.28 723.497C1551.99 719.912 1557.9 716.21 1563.72 712.334C1573.55 705.854 1583.59 698.327 1593.57 689.959C1598.15 686.116 1602.31 682.448 1606.34 678.904C1607.27 678.089 1608.18 677.291 1609.07 676.509C1611.79 674.122 1614.03 672.15 1615.95 670.487C1619.93 667.051 1621.86 665.762 1622.41 666.153C1622.9 666.494 1622.3 668.116 1620.54 671.269C1620.34 671.701 1620.14 672.142 1619.94 672.599C1618.94 674.787 1617.8 677.266 1616.84 679.844C1613.57 688.528 1612.43 696.721 1613.36 704.89C1614.03 710.729 1616.25 715.961 1619.97 720.444C1623.66 724.886 1628.67 728.404 1634.84 730.891C1637.64 732.023 1640.58 733.096 1643.42 734.127C1646.13 735.117 1648.94 736.14 1651.62 737.213C1659.95 740.54 1668.33 744.857 1677.23 750.422C1685.16 755.379 1692.77 760.844 1700.13 766.134C1711.72 774.452 1723.7 783.061 1737.27 789.924C1743.38 792.985 1749.17 795.372 1754.95 797.227C1761.71 799.39 1768.32 800.795 1775.18 801.511C1782.64 802.292 1790.86 802.268 1800.31 801.444C1809.41 800.646 1818.5 799.232 1825.4 798.1C1826.76 797.876 1828.14 797.643 1829.48 797.418C1834.55 796.553 1839.79 795.655 1844.59 795.414C1845.13 795.389 1846.63 795.181 1848.51 794.931C1853.4 794.274 1861.59 793.168 1864.88 793.517C1865.6 793.592 1866.22 793.875 1866.67 794.341C1870.92 798.641 1874.53 802.941 1877.41 807.125C1880.2 811.193 1882.38 815.277 1883.86 819.244C1885.32 823.104 1886.17 826.972 1886.4 830.74C1886.63 834.391 1886.27 838.068 1885.34 841.653C1884.22 846.003 1882.23 850.37 1879.41 854.637C1876.73 858.696 1873.22 862.797 1868.98 866.815C1864.98 870.616 1860.19 874.467 1854.75 878.26C1849.65 881.82 1843.82 885.447 1837.39 889.048C1826.03 895.42 1812.49 901.941 1796.01 908.97C1780.77 915.474 1765.04 921.563 1750.3 927.169C1743.4 929.798 1736.53 932.385 1729.88 934.888C1717.44 939.571 1705.7 943.988 1694.92 948.247C1678.59 954.685 1667.74 959.51 1659.74 963.91C1657.39 965.207 1655.03 966.63 1652.74 968.002C1646.47 971.778 1639.98 975.688 1633.09 977.268C1627.15 978.632 1621.29 978.907 1615.2 978.125C1610.4 977.51 1605.4 976.204 1599.92 974.141C1593.78 971.828 1587.75 968.876 1582.01 965.382C1571.59 959.035 1563.48 951.766 1557.9 943.755C1555.2 939.879 1552.98 935.662 1551.29 931.212C1550.18 928.342 1549.4 925.29 1548.66 922.337C1547.86 919.176 1547.03 915.915 1545.79 912.863C1541.54 902.432 1534.23 890.695 1526.48 878.277C1523.55 873.577 1520.52 868.711 1517.61 863.837C1514.94 859.362 1512.24 854.853 1509.63 850.503C1501.89 837.602 1494.59 825.408 1488.9 815.36C1488.44 814.545 1487.96 813.713 1487.48 812.906C1485.13 808.872 1482.73 804.746 1481.6 799.939L1481.62 799.93ZM1622.51 666.386C1622.48 666.294 1622.44 666.228 1622.38 666.186C1621.72 665.712 1618.62 668.249 1615.98 670.52C1614.07 672.192 1611.81 674.155 1609.1 676.542C1608.21 677.324 1607.31 678.123 1606.38 678.938C1602.35 682.481 1598.18 686.149 1593.6 689.992C1583.62 698.368 1573.57 705.896 1563.74 712.376C1557.92 716.252 1552.01 719.953 1546.3 723.538C1541.3 726.674 1536.57 729.635 1531.91 732.696C1521.02 739.85 1511.53 747.494 1503.68 755.438C1496.3 762.907 1490.68 769.828 1486.97 776C1483.64 781.539 1481.75 786.563 1481.19 791.354C1480.15 800.213 1483.91 806.651 1487.55 812.881C1488.02 813.688 1488.51 814.52 1488.97 815.335C1494.66 825.391 1501.97 837.577 1509.7 850.478C1512.31 854.837 1515.01 859.337 1517.68 863.812C1520.59 868.686 1523.62 873.544 1526.55 878.252C1534.29 890.67 1541.61 902.407 1545.85 912.846C1547.09 915.899 1547.92 919.168 1548.73 922.32C1549.48 925.265 1550.25 928.317 1551.37 931.187C1553.05 935.629 1555.27 939.846 1557.97 943.714C1563.55 951.716 1571.66 958.986 1582.07 965.324C1587.81 968.817 1593.83 971.762 1599.97 974.074C1605.45 976.137 1610.43 977.443 1615.23 978.059C1621.32 978.84 1627.16 978.558 1633.1 977.202C1639.98 975.621 1646.47 971.72 1652.73 967.944C1655.02 966.563 1657.38 965.141 1659.73 963.851C1667.73 959.451 1678.58 954.619 1694.92 948.189C1705.7 943.938 1717.45 939.513 1729.88 934.83C1736.53 932.327 1743.4 929.74 1750.3 927.111C1765.04 921.497 1780.77 915.408 1796.01 908.912C1812.48 901.883 1826.02 895.37 1837.37 888.99C1843.8 885.389 1849.64 881.754 1854.73 878.202C1860.17 874.409 1864.96 870.558 1868.96 866.756C1873.19 862.739 1876.7 858.646 1879.38 854.587C1882.19 850.329 1884.18 845.962 1885.3 841.62C1886.23 838.043 1886.58 834.375 1886.36 830.723C1886.13 826.955 1885.28 823.087 1883.83 819.236C1882.34 815.268 1880.17 811.193 1877.37 807.125C1874.5 802.941 1870.9 798.641 1866.65 794.349C1866.2 793.9 1865.59 793.617 1864.88 793.542C1861.6 793.193 1853.41 794.291 1848.52 794.956C1846.64 795.214 1845.14 795.414 1844.59 795.439C1839.79 795.68 1834.56 796.578 1829.48 797.443C1828.15 797.668 1826.77 797.909 1825.41 798.125C1818.51 799.265 1809.42 800.671 1800.31 801.469C1790.85 802.293 1782.62 802.317 1775.16 801.536C1768.3 800.82 1761.69 799.414 1754.93 797.244C1749.13 795.389 1743.35 792.993 1737.24 789.94C1723.67 783.078 1711.68 774.469 1700.09 766.143C1692.73 760.861 1685.12 755.388 1677.19 750.439C1668.29 744.882 1659.92 740.565 1651.59 737.238C1648.9 736.165 1646.1 735.142 1643.39 734.152C1640.55 733.112 1637.6 732.048 1634.8 730.916C1628.62 728.421 1623.61 724.903 1619.92 720.452C1616.19 715.961 1613.96 710.72 1613.29 704.873C1612.36 696.696 1613.5 688.495 1616.78 679.803C1617.75 677.224 1618.88 674.737 1619.88 672.55C1620.09 672.1 1620.29 671.651 1620.49 671.219C1621.97 668.557 1622.63 666.96 1622.5 666.369L1622.51 666.386Z" fill="#573610" fill-opacity="0.3" />
<path d="M1474.27 801.736C1473.59 798.841 1473.34 795.714 1473.78 792.237C1474.44 787.038 1476.56 781.59 1480.24 775.568C1484.35 768.863 1490.55 761.352 1498.68 753.234C1507.61 744.317 1518.07 736.032 1529.78 728.596C1535.08 725.227 1540.66 721.884 1546.06 718.648C1552.19 714.971 1558.53 711.178 1564.71 707.211C1575.42 700.357 1586.26 692.455 1596.93 683.721C1603.03 678.747 1608.51 673.964 1613.52 669.547C1615.86 667.476 1618.23 665.372 1620.74 663.109C1625 659.374 1626.96 658.002 1627.51 658.393C1627.99 658.734 1627.29 660.497 1625.31 663.933C1623.84 666.703 1622.29 669.705 1620.96 672.891C1617.2 681.858 1615.72 690.367 1616.44 698.901C1616.98 704.965 1619.17 710.38 1622.96 714.988C1626.73 719.571 1631.9 723.14 1638.32 725.602C1641.15 726.683 1644.11 727.706 1646.97 728.696C1649.89 729.703 1652.91 730.751 1655.79 731.857C1664.64 735.259 1673.45 739.792 1682.72 745.698C1690.99 750.963 1698.85 756.827 1706.46 762.492C1717.79 770.934 1729.51 779.66 1742.82 786.655C1748.98 789.866 1754.8 792.353 1760.62 794.258C1767.47 796.495 1774.2 797.901 1781.2 798.55C1788.88 799.265 1797.35 799.066 1807.07 797.951C1814.49 797.094 1822.79 795.705 1833.18 793.568C1840.55 792.054 1847.19 790.823 1853.46 789.808C1853.8 789.75 1854.55 789.608 1855.59 789.409C1860.32 788.51 1871.4 786.397 1875.56 786.506C1876.38 786.531 1877.07 786.78 1877.56 787.238C1882.4 791.696 1886.54 796.171 1889.85 800.538C1893.08 804.788 1895.61 809.047 1897.4 813.214C1899.14 817.257 1900.21 821.324 1900.59 825.3C1900.97 829.152 1900.7 833.028 1899.8 836.821C1895.77 853.931 1879.03 870.5 1848.62 887.469C1836.32 894.331 1821.71 901.318 1803.95 908.829C1787.14 915.941 1769.68 922.612 1754.8 928.193C1747.97 930.755 1741.16 933.292 1734.57 935.737C1720.69 940.886 1707.58 945.761 1695.64 950.452C1678.58 957.156 1666.66 962.496 1658.13 967.246C1655.65 968.635 1653.17 970.149 1650.76 971.621C1644.06 975.713 1637.12 979.947 1629.73 981.702C1624.17 983.017 1618.67 983.316 1612.92 982.601C1608.36 982.035 1603.77 980.871 1598.51 978.924C1592.59 976.745 1586.86 974.033 1581.48 970.889C1571.8 965.225 1563.95 958.545 1558.13 951.034C1555.47 947.599 1553.08 943.773 1551.02 939.655C1549.55 936.761 1548.34 933.708 1547.16 930.755C1546.15 928.21 1545.09 925.573 1543.89 923.053C1538.51 911.757 1530.37 898.59 1521.77 884.64C1518.9 879.991 1515.93 875.175 1513.03 870.384C1511.59 867.996 1510.15 865.609 1508.71 863.23C1498.64 846.578 1489.13 830.857 1482.01 818.155C1481.51 817.274 1480.99 816.384 1480.49 815.518C1478.01 811.226 1475.46 806.835 1474.27 801.719V801.736ZM1627.58 658.634C1627.56 658.551 1627.52 658.493 1627.47 658.451C1626.82 657.985 1623.72 660.572 1620.76 663.159C1618.25 665.422 1615.89 667.526 1613.55 669.597C1608.53 674.014 1603.06 678.797 1596.95 683.771C1586.28 692.513 1575.44 700.415 1564.73 707.261C1558.56 711.228 1552.21 715.03 1546.08 718.698C1540.68 721.934 1535.1 725.277 1529.8 728.646C1518.1 736.074 1507.64 744.359 1498.72 753.276C1490.59 761.385 1484.39 768.897 1480.28 775.601C1476.6 781.615 1474.49 787.055 1473.83 792.245C1472.61 801.836 1476.63 808.789 1480.53 815.51C1481.03 816.375 1481.56 817.274 1482.05 818.147C1489.17 830.848 1498.68 846.578 1508.75 863.222C1510.19 865.601 1511.63 867.988 1513.07 870.375C1515.97 875.166 1518.94 879.982 1521.81 884.632C1530.42 898.581 1538.55 911.757 1543.93 923.044C1545.14 925.565 1546.19 928.201 1547.2 930.747C1548.38 933.7 1549.6 936.752 1551.06 939.647C1553.12 943.756 1555.52 947.582 1558.18 951.017C1563.99 958.52 1571.84 965.191 1581.5 970.856C1586.87 974 1592.6 976.703 1598.52 978.891C1603.79 980.829 1608.37 982.002 1612.93 982.567C1618.67 983.274 1624.17 982.983 1629.72 981.669C1637.11 979.922 1644.03 975.688 1650.73 971.596C1653.14 970.124 1655.63 968.61 1658.11 967.221C1666.64 962.463 1678.56 957.123 1695.61 950.419C1707.56 945.719 1720.66 940.853 1734.54 935.704C1741.14 933.259 1747.95 930.73 1754.78 928.16C1769.65 922.579 1787.12 915.908 1803.92 908.796C1821.68 901.285 1836.29 894.298 1848.58 887.435C1878.98 870.475 1895.71 853.922 1899.75 836.821C1900.64 833.028 1900.9 829.16 1900.54 825.317C1900.15 821.349 1899.08 817.282 1897.34 813.248C1895.56 809.089 1893.02 804.822 1889.79 800.58C1886.48 796.213 1882.35 791.738 1877.51 787.288C1877.02 786.838 1876.33 786.589 1875.54 786.572C1871.38 786.456 1860.31 788.568 1855.58 789.467C1854.54 789.666 1853.79 789.808 1853.45 789.866C1847.18 790.889 1840.54 792.12 1833.17 793.626C1822.78 795.763 1814.48 797.153 1807.06 798.009C1797.32 799.124 1788.86 799.324 1781.18 798.608C1774.18 797.959 1767.43 796.554 1760.58 794.308C1754.75 792.403 1748.93 789.916 1742.77 786.705C1729.45 779.71 1717.73 770.984 1706.4 762.533C1698.79 756.869 1690.94 751.005 1682.67 745.739C1673.41 739.834 1664.6 735.309 1655.75 731.907C1652.87 730.8 1649.84 729.752 1646.93 728.746C1644.07 727.756 1641.11 726.733 1638.28 725.652C1631.85 723.19 1626.67 719.613 1622.9 715.021C1619.11 710.405 1616.9 704.982 1616.36 698.91C1615.64 690.359 1617.12 681.849 1620.89 672.874C1622.23 669.689 1623.78 666.686 1625.25 663.916C1626.95 660.963 1627.72 659.216 1627.58 658.618V658.634Z" fill="#573610" fill-opacity="0.3" />
<path d="M1466.67 803.632C1465.93 800.446 1465.67 797.003 1466.18 793.16C1467.78 781.382 1476.73 767.591 1493.54 751.005C1503.54 741.131 1514.98 732.198 1527.52 724.446C1533.49 720.761 1539.73 717.167 1545.75 713.699C1552.28 709.939 1559.03 706.055 1565.54 701.995C1585.32 689.677 1605.44 674.089 1625.33 655.673C1630.76 650.84 1632.1 650.142 1632.68 650.557C1633.18 650.915 1632.96 652.113 1630.21 656.771C1624.81 665.763 1618.74 678.007 1619.66 692.979C1620.44 705.431 1628.51 715.362 1641.82 720.212C1644.67 721.251 1647.65 722.225 1650.53 723.173C1653.66 724.196 1656.89 725.261 1659.97 726.4C1680.86 734.144 1697.03 746.638 1712.67 758.715C1723.78 767.299 1735.28 776.175 1748.4 783.311C1761.7 790.54 1774.02 794.408 1787.16 795.489C1804.76 796.936 1824.16 792.994 1840.82 788.951C1843.81 788.227 1846.82 787.595 1849.73 786.996C1853.8 786.148 1858.01 785.274 1862.19 784.118C1864.11 783.586 1880.6 779.618 1886.14 779.41C1887.09 779.377 1887.93 779.618 1888.5 780.101C1909.39 797.776 1918.12 815.277 1914.45 832.121C1910.18 851.743 1889.48 870.932 1851.16 890.804C1817.87 908.064 1775.95 923.435 1738.97 936.993C1706.03 949.071 1674.92 960.475 1656.56 970.864C1653.94 972.345 1651.31 973.975 1648.76 975.547C1641.64 979.947 1634.26 984.497 1626.36 986.435C1614.43 989.363 1604.37 986.668 1596.94 983.998C1580.85 978.217 1567.79 969.65 1558.14 958.545C1551.47 950.859 1546.53 942.001 1541.75 933.425C1533.03 917.796 1520.46 897.2 1508.3 877.287C1496.14 857.366 1483.57 836.771 1474.85 821.133C1474.32 820.193 1473.78 819.253 1473.24 818.313C1470.61 813.747 1467.93 809.072 1466.66 803.632H1466.67ZM1632.43 650.998C1632.43 650.957 1632.41 650.932 1632.38 650.915C1632.12 650.724 1630.74 651.456 1625.64 655.989C1605.74 674.422 1585.6 690.026 1565.79 702.37C1559.27 706.437 1552.52 710.322 1545.99 714.081C1539.96 717.55 1533.73 721.135 1527.77 724.82C1515.25 732.547 1503.84 741.456 1493.87 751.304C1477.13 767.824 1468.23 781.523 1466.64 793.21C1465.24 803.482 1469.53 810.91 1473.66 818.097C1474.2 819.045 1474.74 819.985 1475.26 820.925C1483.98 836.554 1496.55 857.15 1508.71 877.063C1520.87 896.984 1533.44 917.579 1542.16 933.217C1546.94 941.768 1551.87 950.618 1558.51 958.262C1568.11 969.309 1581.1 977.834 1597.13 983.59C1604.49 986.236 1614.46 988.906 1626.26 986.011C1634.09 984.089 1641.43 979.565 1648.52 975.181C1651.07 973.609 1653.71 971.979 1656.34 970.49C1674.72 960.076 1705.85 948.663 1738.81 936.586C1775.78 923.028 1817.68 907.673 1850.94 890.421C1889.13 870.625 1909.75 851.535 1913.99 832.046C1917.63 815.36 1908.95 797.993 1888.19 780.433C1887.71 780.026 1886.98 779.818 1886.14 779.851C1880.64 780.059 1864.23 784.01 1862.31 784.534C1858.11 785.699 1853.89 786.572 1849.81 787.421C1846.9 788.028 1843.9 788.652 1840.92 789.375C1824.22 793.426 1804.77 797.369 1787.1 795.921C1773.88 794.84 1761.51 790.956 1748.15 783.694C1735 776.549 1723.49 767.657 1712.36 759.065C1696.75 747.004 1680.6 734.544 1659.78 726.816C1656.72 725.677 1653.48 724.62 1650.37 723.597C1647.48 722.649 1644.49 721.667 1641.64 720.636C1628.15 715.728 1619.97 705.664 1619.19 693.029C1618.26 677.94 1624.37 665.621 1629.79 656.58C1632.28 652.371 1632.49 651.281 1632.43 651.007V650.998Z" fill="#573610" fill-opacity="0.3" />
</g>
</svg>